<svg width="131" height="45" viewBox="0 0 131 45" fill="none" xmlns="http://www.w3.org/2000/svg">
<mask id="path-1-outside-1_2097_3342" maskUnits="userSpaceOnUse" x="-0.699219" y="-0.700195" width="132" height="46" fill="black">
<rect fill="white" x="-0.699219" y="-0.700195" width="132" height="46"/>
<path d="M5.28099 9.8074C6.05349 9.8074 6.76026 9.92234 7.40127 10.1522C8.05873 10.3657 8.51072 10.6449 8.75727 10.9897L8.88054 11.1621V7.61523H1.60747V5.89106H10.7296V18.2066H8.88054V17.0489L8.75727 17.1721C8.3628 17.5662 7.86149 17.8946 7.25335 18.1573C6.6452 18.4201 6.02884 18.5514 5.40426 18.5514C4.40164 18.5514 3.51408 18.3626 2.74158 17.9849C1.9855 17.6072 1.38558 17.0818 0.941798 16.4085C0.514453 15.7353 0.300781 14.9635 0.300781 14.0932C0.300781 13.2558 0.506235 12.5168 0.917143 11.8764C1.34449 11.2196 1.9362 10.7105 2.69227 10.3493C3.44834 9.98803 4.31124 9.8074 5.28099 9.8074ZM2.14987 14.0932C2.14987 14.8978 2.45394 15.5547 3.06208 16.0637C3.67023 16.5727 4.45095 16.8273 5.40426 16.8273C6.42331 16.8273 7.25335 16.5727 7.89436 16.0637C8.55181 15.5547 8.88054 14.8978 8.88054 14.0932C8.88054 13.3379 8.5436 12.7221 7.86971 12.2459C7.21225 11.7697 6.34935 11.5316 5.28099 11.5316C4.36055 11.5316 3.60448 11.7697 3.01277 12.2459C2.4375 12.7221 2.14987 13.3379 2.14987 14.0932Z"/>
<path d="M27.0413 18.2066H14.6401V16.4824H19.6942V2.02398H15.8481V0.299805H21.5433V16.4824H27.0413V18.2066Z"/>
<path d="M29.4971 11.9257C29.4971 10.5628 29.7272 9.38867 30.1874 8.40343C30.6641 7.41819 31.3297 6.66283 32.1844 6.13737C33.0555 5.59549 34.0746 5.32455 35.2416 5.32455C36.3592 5.32455 37.329 5.59549 38.1508 6.13737C38.9726 6.67925 39.6054 7.45924 40.0492 8.47732C40.493 9.47899 40.7149 10.6695 40.7149 12.0488V12.2459H31.3215C31.4037 13.6416 31.8146 14.75 32.5542 15.5711C33.2939 16.3921 34.2472 16.8026 35.4142 16.8026C36.4661 16.8026 37.2961 16.5399 37.9043 16.0144C38.5288 15.489 38.8904 14.75 38.9891 13.7976H40.7149C40.5505 15.3083 40.0081 16.4742 39.0877 17.2952C38.1837 18.1163 36.9592 18.5268 35.4142 18.5268C34.2143 18.5268 33.1706 18.2641 32.283 17.7386C31.3955 17.1967 30.7051 16.4332 30.2121 15.4479C29.7354 14.4463 29.4971 13.2722 29.4971 11.9257ZM35.2416 7.04872C34.1896 7.01588 33.3267 7.31145 32.6529 7.93544C31.9954 8.55943 31.6256 9.42151 31.5434 10.5217H38.7918C38.7261 9.4872 38.3727 8.65795 37.7317 8.03396C37.0907 7.40997 36.2606 7.08156 35.2416 7.04872Z"/>
<path d="M44.7239 5.89106H46.9428L50.2958 10.4478L53.6982 5.89106H55.9171L51.4792 11.9996L56.065 18.2066H53.8461L50.3698 13.5021L46.9675 18.2066H44.502L49.1864 11.9257L44.7239 5.89106Z"/>
<path d="M64.4132 9.8074C65.1857 9.8074 65.8925 9.92234 66.5335 10.1522C67.191 10.3657 67.643 10.6449 67.8895 10.9897L68.0128 11.1621V7.61523H60.7397V5.89106H69.8619V18.2066H68.0128V17.0489L67.8895 17.1721C67.495 17.5662 66.9937 17.8946 66.3856 18.1573C65.7774 18.4201 65.1611 18.5514 64.5365 18.5514C63.5339 18.5514 62.6463 18.3626 61.8738 17.9849C61.1177 17.6072 60.5178 17.0818 60.074 16.4085C59.6467 15.7353 59.433 14.9635 59.433 14.0932C59.433 13.2558 59.6385 12.5168 60.0494 11.8764C60.4767 11.2196 61.0684 10.7105 61.8245 10.3493C62.5806 9.98803 63.4435 9.8074 64.4132 9.8074ZM61.2821 14.0932C61.2821 14.8978 61.5862 15.5547 62.1943 16.0637C62.8025 16.5727 63.5832 16.8273 64.5365 16.8273C65.5555 16.8273 66.3856 16.5727 67.0266 16.0637C67.684 15.5547 68.0128 14.8978 68.0128 14.0932C68.0128 13.3379 67.6758 12.7221 67.0019 12.2459C66.3445 11.7697 65.4816 11.5316 64.4132 11.5316C63.4928 11.5316 62.7367 11.7697 62.145 12.2459C61.5697 12.7221 61.2821 13.3379 61.2821 14.0932Z"/>
<path d="M74.6845 18.2066V5.89106H85.1134L85.138 18.2066H83.2889L83.2643 7.61523H76.5336V18.2066H74.6845Z"/>
<path d="M99.8964 18.2066H98.0473V16.7041C97.5871 17.2788 97.0118 17.7304 96.3215 18.0588C95.6312 18.3708 94.8505 18.5268 93.9793 18.5268C92.2371 18.5268 90.8482 17.9521 89.8127 16.8026C88.7937 15.6532 88.2842 14.0932 88.2842 12.1227C88.2842 10.727 88.5143 9.52004 88.9745 8.50195C89.4347 7.48387 90.0921 6.70388 90.9468 6.162C91.8015 5.6037 92.8124 5.32455 93.9793 5.32455C95.7216 5.32455 97.0776 5.97316 98.0473 7.2704V2.02398H96.6667V0.299805H99.8964V18.2066ZM90.1332 12.1227C90.1332 13.5677 90.4784 14.7172 91.1687 15.5711C91.8755 16.4249 92.8288 16.8519 94.0286 16.8519C95.2614 16.8519 96.2393 16.4249 96.9625 15.5711C97.6857 14.7172 98.0473 13.5677 98.0473 12.1227C98.0473 10.5463 97.6857 9.29836 96.9625 8.3788C96.2393 7.45924 95.2614 6.99946 94.0286 6.99946C92.8288 6.99946 91.8755 7.45924 91.1687 8.3788C90.4784 9.29836 90.1332 10.5463 90.1332 12.1227Z"/>
<path d="M103.412 11.9257C103.412 10.5628 103.642 9.38867 104.103 8.40343C104.579 7.41819 105.245 6.66283 106.1 6.13737C106.971 5.59549 107.99 5.32455 109.157 5.32455C110.275 5.32455 111.244 5.59549 112.066 6.13737C112.888 6.67925 113.521 7.45924 113.964 8.47732C114.408 9.47899 114.63 10.6695 114.63 12.0488V12.2459H105.237C105.319 13.6416 105.73 14.75 106.47 15.5711C107.209 16.3921 108.162 16.8026 109.329 16.8026C110.381 16.8026 111.211 16.5399 111.82 16.0144C112.444 15.489 112.806 14.75 112.904 13.7976H114.63C114.466 15.3083 113.923 16.4742 113.003 17.2952C112.099 18.1163 110.874 18.5268 109.329 18.5268C108.13 18.5268 107.086 18.2641 106.198 17.7386C105.311 17.1967 104.62 16.4332 104.127 15.4479C103.651 14.4463 103.412 13.2722 103.412 11.9257ZM109.157 7.04872C108.105 7.01588 107.242 7.31145 106.568 7.93544C105.911 8.55943 105.541 9.42151 105.459 10.5217H112.707C112.641 9.4872 112.288 8.65795 111.647 8.03396C111.006 7.40997 110.176 7.08156 109.157 7.04872Z"/>
<path d="M120.513 18.2066V5.89106H130.301V7.73839H122.362V18.2066H120.513Z"/>
<path d="M3.38259 40.934V43.7174H1.53351V25.8106H3.38259V38.4217L9.94068 31.4018H12.1596L7.05611 36.9438L12.5541 43.7174H10.2119L5.77408 38.3231L3.38259 40.934Z"/>
<path d="M14.8619 37.4364C14.8619 36.1392 15.1085 34.9979 15.6016 34.0127C16.1111 33.0275 16.8097 32.2557 17.6972 31.6974C18.5848 31.1227 19.6038 30.8353 20.7544 30.8353C21.8885 30.8353 22.8911 31.1227 23.7622 31.6974C24.6333 32.2557 25.3155 33.0275 25.8085 34.0127C26.3016 34.9979 26.5482 36.1392 26.5482 37.4364C26.5482 38.7172 26.3016 39.8585 25.8085 40.8601C25.3319 41.8454 24.6662 42.6254 23.8115 43.2001C22.9568 43.7584 21.9707 44.0376 20.853 44.0376C19.6696 44.0376 18.6259 43.7584 17.7219 43.2001C16.8343 42.6254 16.1358 41.8454 15.6262 40.8601C15.1167 39.8585 14.8619 38.7172 14.8619 37.4364ZM20.853 42.3134C21.6091 42.3134 22.2747 42.1081 22.85 41.6976C23.4253 41.2707 23.8773 40.6959 24.206 39.9734C24.5347 39.2345 24.6991 38.3888 24.6991 37.4364C24.6991 36.484 24.5265 35.6466 24.1813 34.9241C23.8526 34.1851 23.3924 33.6104 22.8007 33.1999C22.209 32.7729 21.5269 32.5595 20.7544 32.5595C19.949 32.5595 19.234 32.7729 18.6094 33.1999C18.0013 33.6104 17.5246 34.1851 17.1795 34.9241C16.8507 35.6466 16.6946 36.484 16.711 37.4364C16.7275 38.3888 16.9083 39.2345 17.2534 39.9734C17.615 40.6959 18.1081 41.2707 18.7327 41.6976C19.3573 42.1081 20.064 42.3134 20.853 42.3134Z"/>
<path d="M36.5236 43.7174H34.3294L29.2998 31.4018H31.3462L35.4388 41.402L39.5068 31.4018H41.5531L36.5236 43.7174Z"/>
<path d="M49.6302 35.3182C50.4027 35.3182 51.1094 35.4331 51.7504 35.663C52.4079 35.8765 52.8599 36.1556 53.1064 36.5004L53.2297 36.6729V33.126H45.9566V31.4018H55.0788V43.7174H53.2297V42.5597L53.1064 42.6828C52.712 43.0769 52.2107 43.4054 51.6025 43.6681C50.9944 43.9308 50.378 44.0622 49.7534 44.0622C48.7508 44.0622 47.8633 43.8733 47.0907 43.4957C46.3347 43.118 45.7348 42.5925 45.291 41.9193C44.8636 41.246 44.65 40.4743 44.65 39.604C44.65 38.7665 44.8554 38.0276 45.2663 37.3872C45.6937 36.7303 46.2854 36.2213 47.0414 35.86C47.7975 35.4988 48.6604 35.3182 49.6302 35.3182ZM46.499 39.604C46.499 40.4086 46.8031 41.0654 47.4113 41.5744C48.0194 42.0835 48.8001 42.338 49.7534 42.338C50.7725 42.338 51.6025 42.0835 52.2435 41.5744C52.901 41.0654 53.2297 40.4086 53.2297 39.604C53.2297 38.8486 52.8928 38.2328 52.2189 37.7566C51.5614 37.2804 50.6985 37.0423 49.6302 37.0423C48.7097 37.0423 47.9537 37.2804 47.3619 37.7566C46.7867 38.2328 46.499 38.8486 46.499 39.604Z"/>
<path d="M65.1529 42.3134C66.0404 42.3134 66.8047 42.0424 67.4457 41.5006C68.1032 40.9587 68.5387 40.2279 68.7524 39.3084H70.5522C70.2728 40.7534 69.6482 41.9029 68.6784 42.7567C67.7087 43.6106 66.5335 44.0376 65.1529 44.0376C63.953 44.0376 62.9093 43.7748 62.0217 43.2494C61.1342 42.7075 60.4438 41.9439 59.9508 40.9587C59.4741 39.957 59.2358 38.7829 59.2358 37.4364C59.2358 36.0735 59.4659 34.8994 59.9261 33.9142C60.4028 32.9289 61.0684 32.1736 61.9231 31.6481C62.7942 31.1062 63.8215 30.8353 65.0049 30.8353C66.4678 30.8353 67.7005 31.2869 68.7031 32.19C69.7057 33.0767 70.3221 34.2836 70.5522 35.8108H68.7524C68.588 34.8091 68.1607 34.0209 67.4704 33.4462C66.7965 32.855 65.9747 32.5595 65.0049 32.5595C63.7722 32.5595 62.8025 32.9946 62.0957 33.8649C61.4054 34.7352 61.0684 35.9257 61.0849 37.4364C61.1177 38.9307 61.4958 40.1212 62.219 41.0079C62.9586 41.8782 63.9366 42.3134 65.1529 42.3134Z"/>
<path d="M77.2979 40.934V43.7174H75.4488V25.8106H77.2979V38.4217L83.856 31.4018H86.0749L80.9714 36.9438L86.4693 43.7174H84.1272L79.6894 38.3231L77.2979 40.934Z"/>
<path d="M93.9793 35.3182C94.7518 35.3182 95.4586 35.4331 96.0996 35.663C96.7571 35.8765 97.2091 36.1556 97.4556 36.5004L97.5789 36.6729V33.126H90.3058V31.4018H99.428V43.7174H97.5789V42.5597L97.4556 42.6828C97.0611 43.0769 96.5598 43.4054 95.9517 43.6681C95.3436 43.9308 94.7272 44.0622 94.1026 44.0622C93.1 44.0622 92.2124 43.8733 91.4399 43.4957C90.6839 43.118 90.0839 42.5925 89.6401 41.9193C89.2128 41.246 88.9991 40.4743 88.9991 39.604C88.9991 38.7665 89.2046 38.0276 89.6155 37.3872C90.0428 36.7303 90.6345 36.2213 91.3906 35.86C92.1467 35.4988 93.0096 35.3182 93.9793 35.3182ZM90.8482 39.604C90.8482 40.4086 91.1523 41.0654 91.7604 41.5744C92.3686 42.0835 93.1493 42.338 94.1026 42.338C95.1217 42.338 95.9517 42.0835 96.5927 41.5744C97.2502 41.0654 97.5789 40.4086 97.5789 39.604C97.5789 38.8486 97.2419 38.2328 96.5681 37.7566C95.9106 37.2804 95.0477 37.0423 93.9793 37.0423C93.0589 37.0423 92.3028 37.2804 91.7111 37.7566C91.1359 38.2328 90.8482 38.8486 90.8482 39.604Z"/>
</mask>
<path d="M5.28099 9.8074C6.05349 9.8074 6.76026 9.92234 7.40127 10.1522C8.05873 10.3657 8.51072 10.6449 8.75727 10.9897L8.88054 11.1621V7.61523H1.60747V5.89106H10.7296V18.2066H8.88054V17.0489L8.75727 17.1721C8.3628 17.5662 7.86149 17.8946 7.25335 18.1573C6.6452 18.4201 6.02884 18.5514 5.40426 18.5514C4.40164 18.5514 3.51408 18.3626 2.74158 17.9849C1.9855 17.6072 1.38558 17.0818 0.941798 16.4085C0.514453 15.7353 0.300781 14.9635 0.300781 14.0932C0.300781 13.2558 0.506235 12.5168 0.917143 11.8764C1.34449 11.2196 1.9362 10.7105 2.69227 10.3493C3.44834 9.98803 4.31124 9.8074 5.28099 9.8074ZM2.14987 14.0932C2.14987 14.8978 2.45394 15.5547 3.06208 16.0637C3.67023 16.5727 4.45095 16.8273 5.40426 16.8273C6.42331 16.8273 7.25335 16.5727 7.89436 16.0637C8.55181 15.5547 8.88054 14.8978 8.88054 14.0932C8.88054 13.3379 8.5436 12.7221 7.86971 12.2459C7.21225 11.7697 6.34935 11.5316 5.28099 11.5316C4.36055 11.5316 3.60448 11.7697 3.01277 12.2459C2.4375 12.7221 2.14987 13.3379 2.14987 14.0932Z" fill="white"/>
<path d="M27.0413 18.2066H14.6401V16.4824H19.6942V2.02398H15.8481V0.299805H21.5433V16.4824H27.0413V18.2066Z" fill="white"/>
<path d="M29.4971 11.9257C29.4971 10.5628 29.7272 9.38867 30.1874 8.40343C30.6641 7.41819 31.3297 6.66283 32.1844 6.13737C33.0555 5.59549 34.0746 5.32455 35.2416 5.32455C36.3592 5.32455 37.329 5.59549 38.1508 6.13737C38.9726 6.67925 39.6054 7.45924 40.0492 8.47732C40.493 9.47899 40.7149 10.6695 40.7149 12.0488V12.2459H31.3215C31.4037 13.6416 31.8146 14.75 32.5542 15.5711C33.2939 16.3921 34.2472 16.8026 35.4142 16.8026C36.4661 16.8026 37.2961 16.5399 37.9043 16.0144C38.5288 15.489 38.8904 14.75 38.9891 13.7976H40.7149C40.5505 15.3083 40.0081 16.4742 39.0877 17.2952C38.1837 18.1163 36.9592 18.5268 35.4142 18.5268C34.2143 18.5268 33.1706 18.2641 32.283 17.7386C31.3955 17.1967 30.7051 16.4332 30.2121 15.4479C29.7354 14.4463 29.4971 13.2722 29.4971 11.9257ZM35.2416 7.04872C34.1896 7.01588 33.3267 7.31145 32.6529 7.93544C31.9954 8.55943 31.6256 9.42151 31.5434 10.5217H38.7918C38.7261 9.4872 38.3727 8.65795 37.7317 8.03396C37.0907 7.40997 36.2606 7.08156 35.2416 7.04872Z" fill="white"/>
<path d="M44.7239 5.89106H46.9428L50.2958 10.4478L53.6982 5.89106H55.9171L51.4792 11.9996L56.065 18.2066H53.8461L50.3698 13.5021L46.9675 18.2066H44.502L49.1864 11.9257L44.7239 5.89106Z" fill="white"/>
<path d="M64.4132 9.8074C65.1857 9.8074 65.8925 9.92234 66.5335 10.1522C67.191 10.3657 67.643 10.6449 67.8895 10.9897L68.0128 11.1621V7.61523H60.7397V5.89106H69.8619V18.2066H68.0128V17.0489L67.8895 17.1721C67.495 17.5662 66.9937 17.8946 66.3856 18.1573C65.7774 18.4201 65.1611 18.5514 64.5365 18.5514C63.5339 18.5514 62.6463 18.3626 61.8738 17.9849C61.1177 17.6072 60.5178 17.0818 60.074 16.4085C59.6467 15.7353 59.433 14.9635 59.433 14.0932C59.433 13.2558 59.6385 12.5168 60.0494 11.8764C60.4767 11.2196 61.0684 10.7105 61.8245 10.3493C62.5806 9.98803 63.4435 9.8074 64.4132 9.8074ZM61.2821 14.0932C61.2821 14.8978 61.5862 15.5547 62.1943 16.0637C62.8025 16.5727 63.5832 16.8273 64.5365 16.8273C65.5555 16.8273 66.3856 16.5727 67.0266 16.0637C67.684 15.5547 68.0128 14.8978 68.0128 14.0932C68.0128 13.3379 67.6758 12.7221 67.0019 12.2459C66.3445 11.7697 65.4816 11.5316 64.4132 11.5316C63.4928 11.5316 62.7367 11.7697 62.145 12.2459C61.5697 12.7221 61.2821 13.3379 61.2821 14.0932Z" fill="white"/>
<path d="M74.6845 18.2066V5.89106H85.1134L85.138 18.2066H83.2889L83.2643 7.61523H76.5336V18.2066H74.6845Z" fill="white"/>
<path d="M99.8964 18.2066H98.0473V16.7041C97.5871 17.2788 97.0118 17.7304 96.3215 18.0588C95.6312 18.3708 94.8505 18.5268 93.9793 18.5268C92.2371 18.5268 90.8482 17.9521 89.8127 16.8026C88.7937 15.6532 88.2842 14.0932 88.2842 12.1227C88.2842 10.727 88.5143 9.52004 88.9745 8.50195C89.4347 7.48387 90.0921 6.70388 90.9468 6.162C91.8015 5.6037 92.8124 5.32455 93.9793 5.32455C95.7216 5.32455 97.0776 5.97316 98.0473 7.2704V2.02398H96.6667V0.299805H99.8964V18.2066ZM90.1332 12.1227C90.1332 13.5677 90.4784 14.7172 91.1687 15.5711C91.8755 16.4249 92.8288 16.8519 94.0286 16.8519C95.2614 16.8519 96.2393 16.4249 96.9625 15.5711C97.6857 14.7172 98.0473 13.5677 98.0473 12.1227C98.0473 10.5463 97.6857 9.29836 96.9625 8.3788C96.2393 7.45924 95.2614 6.99946 94.0286 6.99946C92.8288 6.99946 91.8755 7.45924 91.1687 8.3788C90.4784 9.29836 90.1332 10.5463 90.1332 12.1227Z" fill="white"/>
<path d="M103.412 11.9257C103.412 10.5628 103.642 9.38867 104.103 8.40343C104.579 7.41819 105.245 6.66283 106.1 6.13737C106.971 5.59549 107.99 5.32455 109.157 5.32455C110.275 5.32455 111.244 5.59549 112.066 6.13737C112.888 6.67925 113.521 7.45924 113.964 8.47732C114.408 9.47899 114.63 10.6695 114.63 12.0488V12.2459H105.237C105.319 13.6416 105.73 14.75 106.47 15.5711C107.209 16.3921 108.162 16.8026 109.329 16.8026C110.381 16.8026 111.211 16.5399 111.82 16.0144C112.444 15.489 112.806 14.75 112.904 13.7976H114.63C114.466 15.3083 113.923 16.4742 113.003 17.2952C112.099 18.1163 110.874 18.5268 109.329 18.5268C108.13 18.5268 107.086 18.2641 106.198 17.7386C105.311 17.1967 104.62 16.4332 104.127 15.4479C103.651 14.4463 103.412 13.2722 103.412 11.9257ZM109.157 7.04872C108.105 7.01588 107.242 7.31145 106.568 7.93544C105.911 8.55943 105.541 9.42151 105.459 10.5217H112.707C112.641 9.4872 112.288 8.65795 111.647 8.03396C111.006 7.40997 110.176 7.08156 109.157 7.04872Z" fill="white"/>
<path d="M120.513 18.2066V5.89106H130.301V7.73839H122.362V18.2066H120.513Z" fill="white"/>
<path d="M3.38259 40.934V43.7174H1.53351V25.8106H3.38259V38.4217L9.94068 31.4018H12.1596L7.05611 36.9438L12.5541 43.7174H10.2119L5.77408 38.3231L3.38259 40.934Z" fill="white"/>
<path d="M14.8619 37.4364C14.8619 36.1392 15.1085 34.9979 15.6016 34.0127C16.1111 33.0275 16.8097 32.2557 17.6972 31.6974C18.5848 31.1227 19.6038 30.8353 20.7544 30.8353C21.8885 30.8353 22.8911 31.1227 23.7622 31.6974C24.6333 32.2557 25.3155 33.0275 25.8085 34.0127C26.3016 34.9979 26.5482 36.1392 26.5482 37.4364C26.5482 38.7172 26.3016 39.8585 25.8085 40.8601C25.3319 41.8454 24.6662 42.6254 23.8115 43.2001C22.9568 43.7584 21.9707 44.0376 20.853 44.0376C19.6696 44.0376 18.6259 43.7584 17.7219 43.2001C16.8343 42.6254 16.1358 41.8454 15.6262 40.8601C15.1167 39.8585 14.8619 38.7172 14.8619 37.4364ZM20.853 42.3134C21.6091 42.3134 22.2747 42.1081 22.85 41.6976C23.4253 41.2707 23.8773 40.6959 24.206 39.9734C24.5347 39.2345 24.6991 38.3888 24.6991 37.4364C24.6991 36.484 24.5265 35.6466 24.1813 34.9241C23.8526 34.1851 23.3924 33.6104 22.8007 33.1999C22.209 32.7729 21.5269 32.5595 20.7544 32.5595C19.949 32.5595 19.234 32.7729 18.6094 33.1999C18.0013 33.6104 17.5246 34.1851 17.1795 34.9241C16.8507 35.6466 16.6946 36.484 16.711 37.4364C16.7275 38.3888 16.9083 39.2345 17.2534 39.9734C17.615 40.6959 18.1081 41.2707 18.7327 41.6976C19.3573 42.1081 20.064 42.3134 20.853 42.3134Z" fill="white"/>
<path d="M36.5236 43.7174H34.3294L29.2998 31.4018H31.3462L35.4388 41.402L39.5068 31.4018H41.5531L36.5236 43.7174Z" fill="white"/>
<path d="M49.6302 35.3182C50.4027 35.3182 51.1094 35.4331 51.7504 35.663C52.4079 35.8765 52.8599 36.1556 53.1064 36.5004L53.2297 36.6729V33.126H45.9566V31.4018H55.0788V43.7174H53.2297V42.5597L53.1064 42.6828C52.712 43.0769 52.2107 43.4054 51.6025 43.6681C50.9944 43.9308 50.378 44.0622 49.7534 44.0622C48.7508 44.0622 47.8633 43.8733 47.0907 43.4957C46.3347 43.118 45.7348 42.5925 45.291 41.9193C44.8636 41.246 44.65 40.4743 44.65 39.604C44.65 38.7665 44.8554 38.0276 45.2663 37.3872C45.6937 36.7303 46.2854 36.2213 47.0414 35.86C47.7975 35.4988 48.6604 35.3182 49.6302 35.3182ZM46.499 39.604C46.499 40.4086 46.8031 41.0654 47.4113 41.5744C48.0194 42.0835 48.8001 42.338 49.7534 42.338C50.7725 42.338 51.6025 42.0835 52.2435 41.5744C52.901 41.0654 53.2297 40.4086 53.2297 39.604C53.2297 38.8486 52.8928 38.2328 52.2189 37.7566C51.5614 37.2804 50.6985 37.0423 49.6302 37.0423C48.7097 37.0423 47.9537 37.2804 47.3619 37.7566C46.7867 38.2328 46.499 38.8486 46.499 39.604Z" fill="white"/>
<path d="M65.1529 42.3134C66.0404 42.3134 66.8047 42.0424 67.4457 41.5006C68.1032 40.9587 68.5387 40.2279 68.7524 39.3084H70.5522C70.2728 40.7534 69.6482 41.9029 68.6784 42.7567C67.7087 43.6106 66.5335 44.0376 65.1529 44.0376C63.953 44.0376 62.9093 43.7748 62.0217 43.2494C61.1342 42.7075 60.4438 41.9439 59.9508 40.9587C59.4741 39.957 59.2358 38.7829 59.2358 37.4364C59.2358 36.0735 59.4659 34.8994 59.9261 33.9142C60.4028 32.9289 61.0684 32.1736 61.9231 31.6481C62.7942 31.1062 63.8215 30.8353 65.0049 30.8353C66.4678 30.8353 67.7005 31.2869 68.7031 32.19C69.7057 33.0767 70.3221 34.2836 70.5522 35.8108H68.7524C68.588 34.8091 68.1607 34.0209 67.4704 33.4462C66.7965 32.855 65.9747 32.5595 65.0049 32.5595C63.7722 32.5595 62.8025 32.9946 62.0957 33.8649C61.4054 34.7352 61.0684 35.9257 61.0849 37.4364C61.1177 38.9307 61.4958 40.1212 62.219 41.0079C62.9586 41.8782 63.9366 42.3134 65.1529 42.3134Z" fill="white"/>
<path d="M77.2979 40.934V43.7174H75.4488V25.8106H77.2979V38.4217L83.856 31.4018H86.0749L80.9714 36.9438L86.4693 43.7174H84.1272L79.6894 38.3231L77.2979 40.934Z" fill="white"/>
<path d="M93.9793 35.3182C94.7518 35.3182 95.4586 35.4331 96.0996 35.663C96.7571 35.8765 97.2091 36.1556 97.4556 36.5004L97.5789 36.6729V33.126H90.3058V31.4018H99.428V43.7174H97.5789V42.5597L97.4556 42.6828C97.0611 43.0769 96.5598 43.4054 95.9517 43.6681C95.3436 43.9308 94.7272 44.0622 94.1026 44.0622C93.1 44.0622 92.2124 43.8733 91.4399 43.4957C90.6839 43.118 90.0839 42.5925 89.6401 41.9193C89.2128 41.246 88.9991 40.4743 88.9991 39.604C88.9991 38.7665 89.2046 38.0276 89.6155 37.3872C90.0428 36.7303 90.6345 36.2213 91.3906 35.86C92.1467 35.4988 93.0096 35.3182 93.9793 35.3182ZM90.8482 39.604C90.8482 40.4086 91.1523 41.0654 91.7604 41.5744C92.3686 42.0835 93.1493 42.338 94.1026 42.338C95.1217 42.338 95.9517 42.0835 96.5927 41.5744C97.2502 41.0654 97.5789 40.4086 97.5789 39.604C97.5789 38.8486 97.2419 38.2328 96.5681 37.7566C95.9106 37.2804 95.0477 37.0423 93.9793 37.0423C93.0589 37.0423 92.3028 37.2804 91.7111 37.7566C91.1359 38.2328 90.8482 38.8486 90.8482 39.604Z" fill="white"/>
<path d="M5.28099 9.8074C6.05349 9.8074 6.76026 9.92234 7.40127 10.1522C8.05873 10.3657 8.51072 10.6449 8.75727 10.9897L8.88054 11.1621V7.61523H1.60747V5.89106H10.7296V18.2066H8.88054V17.0489L8.75727 17.1721C8.3628 17.5662 7.86149 17.8946 7.25335 18.1573C6.6452 18.4201 6.02884 18.5514 5.40426 18.5514C4.40164 18.5514 3.51408 18.3626 2.74158 17.9849C1.9855 17.6072 1.38558 17.0818 0.941798 16.4085C0.514453 15.7353 0.300781 14.9635 0.300781 14.0932C0.300781 13.2558 0.506235 12.5168 0.917143 11.8764C1.34449 11.2196 1.9362 10.7105 2.69227 10.3493C3.44834 9.98803 4.31124 9.8074 5.28099 9.8074ZM2.14987 14.0932C2.14987 14.8978 2.45394 15.5547 3.06208 16.0637C3.67023 16.5727 4.45095 16.8273 5.40426 16.8273C6.42331 16.8273 7.25335 16.5727 7.89436 16.0637C8.55181 15.5547 8.88054 14.8978 8.88054 14.0932C8.88054 13.3379 8.5436 12.7221 7.86971 12.2459C7.21225 11.7697 6.34935 11.5316 5.28099 11.5316C4.36055 11.5316 3.60448 11.7697 3.01277 12.2459C2.4375 12.7221 2.14987 13.3379 2.14987 14.0932Z" stroke="white" stroke-width="0.6" mask="url(#path-1-outside-1_2097_3342)"/>
<path d="M27.0413 18.2066H14.6401V16.4824H19.6942V2.02398H15.8481V0.299805H21.5433V16.4824H27.0413V18.2066Z" stroke="white" stroke-width="0.6" mask="url(#path-1-outside-1_2097_3342)"/>
<path d="M29.4971 11.9257C29.4971 10.5628 29.7272 9.38867 30.1874 8.40343C30.6641 7.41819 31.3297 6.66283 32.1844 6.13737C33.0555 5.59549 34.0746 5.32455 35.2416 5.32455C36.3592 5.32455 37.329 5.59549 38.1508 6.13737C38.9726 6.67925 39.6054 7.45924 40.0492 8.47732C40.493 9.47899 40.7149 10.6695 40.7149 12.0488V12.2459H31.3215C31.4037 13.6416 31.8146 14.75 32.5542 15.5711C33.2939 16.3921 34.2472 16.8026 35.4142 16.8026C36.4661 16.8026 37.2961 16.5399 37.9043 16.0144C38.5288 15.489 38.8904 14.75 38.9891 13.7976H40.7149C40.5505 15.3083 40.0081 16.4742 39.0877 17.2952C38.1837 18.1163 36.9592 18.5268 35.4142 18.5268C34.2143 18.5268 33.1706 18.2641 32.283 17.7386C31.3955 17.1967 30.7051 16.4332 30.2121 15.4479C29.7354 14.4463 29.4971 13.2722 29.4971 11.9257ZM35.2416 7.04872C34.1896 7.01588 33.3267 7.31145 32.6529 7.93544C31.9954 8.55943 31.6256 9.42151 31.5434 10.5217H38.7918C38.7261 9.4872 38.3727 8.65795 37.7317 8.03396C37.0907 7.40997 36.2606 7.08156 35.2416 7.04872Z" stroke="white" stroke-width="0.6" mask="url(#path-1-outside-1_2097_3342)"/>
<path d="M44.7239 5.89106H46.9428L50.2958 10.4478L53.6982 5.89106H55.9171L51.4792 11.9996L56.065 18.2066H53.8461L50.3698 13.5021L46.9675 18.2066H44.502L49.1864 11.9257L44.7239 5.89106Z" stroke="white" stroke-width="0.6" mask="url(#path-1-outside-1_2097_3342)"/>
<path d="M64.4132 9.8074C65.1857 9.8074 65.8925 9.92234 66.5335 10.1522C67.191 10.3657 67.643 10.6449 67.8895 10.9897L68.0128 11.1621V7.61523H60.7397V5.89106H69.8619V18.2066H68.0128V17.0489L67.8895 17.1721C67.495 17.5662 66.9937 17.8946 66.3856 18.1573C65.7774 18.4201 65.1611 18.5514 64.5365 18.5514C63.5339 18.5514 62.6463 18.3626 61.8738 17.9849C61.1177 17.6072 60.5178 17.0818 60.074 16.4085C59.6467 15.7353 59.433 14.9635 59.433 14.0932C59.433 13.2558 59.6385 12.5168 60.0494 11.8764C60.4767 11.2196 61.0684 10.7105 61.8245 10.3493C62.5806 9.98803 63.4435 9.8074 64.4132 9.8074ZM61.2821 14.0932C61.2821 14.8978 61.5862 15.5547 62.1943 16.0637C62.8025 16.5727 63.5832 16.8273 64.5365 16.8273C65.5555 16.8273 66.3856 16.5727 67.0266 16.0637C67.684 15.5547 68.0128 14.8978 68.0128 14.0932C68.0128 13.3379 67.6758 12.7221 67.0019 12.2459C66.3445 11.7697 65.4816 11.5316 64.4132 11.5316C63.4928 11.5316 62.7367 11.7697 62.145 12.2459C61.5697 12.7221 61.2821 13.3379 61.2821 14.0932Z" stroke="white" stroke-width="0.6" mask="url(#path-1-outside-1_2097_3342)"/>
<path d="M74.6845 18.2066V5.89106H85.1134L85.138 18.2066H83.2889L83.2643 7.61523H76.5336V18.2066H74.6845Z" stroke="white" stroke-width="0.6" mask="url(#path-1-outside-1_2097_3342)"/>
<path d="M99.8964 18.2066H98.0473V16.7041C97.5871 17.2788 97.0118 17.7304 96.3215 18.0588C95.6312 18.3708 94.8505 18.5268 93.9793 18.5268C92.2371 18.5268 90.8482 17.9521 89.8127 16.8026C88.7937 15.6532 88.2842 14.0932 88.2842 12.1227C88.2842 10.727 88.5143 9.52004 88.9745 8.50195C89.4347 7.48387 90.0921 6.70388 90.9468 6.162C91.8015 5.6037 92.8124 5.32455 93.9793 5.32455C95.7216 5.32455 97.0776 5.97316 98.0473 7.2704V2.02398H96.6667V0.299805H99.8964V18.2066ZM90.1332 12.1227C90.1332 13.5677 90.4784 14.7172 91.1687 15.5711C91.8755 16.4249 92.8288 16.8519 94.0286 16.8519C95.2614 16.8519 96.2393 16.4249 96.9625 15.5711C97.6857 14.7172 98.0473 13.5677 98.0473 12.1227C98.0473 10.5463 97.6857 9.29836 96.9625 8.3788C96.2393 7.45924 95.2614 6.99946 94.0286 6.99946C92.8288 6.99946 91.8755 7.45924 91.1687 8.3788C90.4784 9.29836 90.1332 10.5463 90.1332 12.1227Z" stroke="white" stroke-width="0.6" mask="url(#path-1-outside-1_2097_3342)"/>
<path d="M103.412 11.9257C103.412 10.5628 103.642 9.38867 104.103 8.40343C104.579 7.41819 105.245 6.66283 106.1 6.13737C106.971 5.59549 107.99 5.32455 109.157 5.32455C110.275 5.32455 111.244 5.59549 112.066 6.13737C112.888 6.67925 113.521 7.45924 113.964 8.47732C114.408 9.47899 114.63 10.6695 114.63 12.0488V12.2459H105.237C105.319 13.6416 105.73 14.75 106.47 15.5711C107.209 16.3921 108.162 16.8026 109.329 16.8026C110.381 16.8026 111.211 16.5399 111.82 16.0144C112.444 15.489 112.806 14.75 112.904 13.7976H114.63C114.466 15.3083 113.923 16.4742 113.003 17.2952C112.099 18.1163 110.874 18.5268 109.329 18.5268C108.13 18.5268 107.086 18.2641 106.198 17.7386C105.311 17.1967 104.62 16.4332 104.127 15.4479C103.651 14.4463 103.412 13.2722 103.412 11.9257ZM109.157 7.04872C108.105 7.01588 107.242 7.31145 106.568 7.93544C105.911 8.55943 105.541 9.42151 105.459 10.5217H112.707C112.641 9.4872 112.288 8.65795 111.647 8.03396C111.006 7.40997 110.176 7.08156 109.157 7.04872Z" stroke="white" stroke-width="0.6" mask="url(#path-1-outside-1_2097_3342)"/>
<path d="M120.513 18.2066V5.89106H130.301V7.73839H122.362V18.2066H120.513Z" stroke="white" stroke-width="0.6" mask="url(#path-1-outside-1_2097_3342)"/>
<path d="M3.38259 40.934V43.7174H1.53351V25.8106H3.38259V38.4217L9.94068 31.4018H12.1596L7.05611 36.9438L12.5541 43.7174H10.2119L5.77408 38.3231L3.38259 40.934Z" stroke="white" stroke-width="0.6" mask="url(#path-1-outside-1_2097_3342)"/>
<path d="M14.8619 37.4364C14.8619 36.1392 15.1085 34.9979 15.6016 34.0127C16.1111 33.0275 16.8097 32.2557 17.6972 31.6974C18.5848 31.1227 19.6038 30.8353 20.7544 30.8353C21.8885 30.8353 22.8911 31.1227 23.7622 31.6974C24.6333 32.2557 25.3155 33.0275 25.8085 34.0127C26.3016 34.9979 26.5482 36.1392 26.5482 37.4364C26.5482 38.7172 26.3016 39.8585 25.8085 40.8601C25.3319 41.8454 24.6662 42.6254 23.8115 43.2001C22.9568 43.7584 21.9707 44.0376 20.853 44.0376C19.6696 44.0376 18.6259 43.7584 17.7219 43.2001C16.8343 42.6254 16.1358 41.8454 15.6262 40.8601C15.1167 39.8585 14.8619 38.7172 14.8619 37.4364ZM20.853 42.3134C21.6091 42.3134 22.2747 42.1081 22.85 41.6976C23.4253 41.2707 23.8773 40.6959 24.206 39.9734C24.5347 39.2345 24.6991 38.3888 24.6991 37.4364C24.6991 36.484 24.5265 35.6466 24.1813 34.9241C23.8526 34.1851 23.3924 33.6104 22.8007 33.1999C22.209 32.7729 21.5269 32.5595 20.7544 32.5595C19.949 32.5595 19.234 32.7729 18.6094 33.1999C18.0013 33.6104 17.5246 34.1851 17.1795 34.9241C16.8507 35.6466 16.6946 36.484 16.711 37.4364C16.7275 38.3888 16.9083 39.2345 17.2534 39.9734C17.615 40.6959 18.1081 41.2707 18.7327 41.6976C19.3573 42.1081 20.064 42.3134 20.853 42.3134Z" stroke="white" stroke-width="0.6" mask="url(#path-1-outside-1_2097_3342)"/>
<path d="M36.5236 43.7174H34.3294L29.2998 31.4018H31.3462L35.4388 41.402L39.5068 31.4018H41.5531L36.5236 43.7174Z" stroke="white" stroke-width="0.6" mask="url(#path-1-outside-1_2097_3342)"/>
<path d="M49.6302 35.3182C50.4027 35.3182 51.1094 35.4331 51.7504 35.663C52.4079 35.8765 52.8599 36.1556 53.1064 36.5004L53.2297 36.6729V33.126H45.9566V31.4018H55.0788V43.7174H53.2297V42.5597L53.1064 42.6828C52.712 43.0769 52.2107 43.4054 51.6025 43.6681C50.9944 43.9308 50.378 44.0622 49.7534 44.0622C48.7508 44.0622 47.8633 43.8733 47.0907 43.4957C46.3347 43.118 45.7348 42.5925 45.291 41.9193C44.8636 41.246 44.65 40.4743 44.65 39.604C44.65 38.7665 44.8554 38.0276 45.2663 37.3872C45.6937 36.7303 46.2854 36.2213 47.0414 35.86C47.7975 35.4988 48.6604 35.3182 49.6302 35.3182ZM46.499 39.604C46.499 40.4086 46.8031 41.0654 47.4113 41.5744C48.0194 42.0835 48.8001 42.338 49.7534 42.338C50.7725 42.338 51.6025 42.0835 52.2435 41.5744C52.901 41.0654 53.2297 40.4086 53.2297 39.604C53.2297 38.8486 52.8928 38.2328 52.2189 37.7566C51.5614 37.2804 50.6985 37.0423 49.6302 37.0423C48.7097 37.0423 47.9537 37.2804 47.3619 37.7566C46.7867 38.2328 46.499 38.8486 46.499 39.604Z" stroke="white" stroke-width="0.6" mask="url(#path-1-outside-1_2097_3342)"/>
<path d="M65.1529 42.3134C66.0404 42.3134 66.8047 42.0424 67.4457 41.5006C68.1032 40.9587 68.5387 40.2279 68.7524 39.3084H70.5522C70.2728 40.7534 69.6482 41.9029 68.6784 42.7567C67.7087 43.6106 66.5335 44.0376 65.1529 44.0376C63.953 44.0376 62.9093 43.7748 62.0217 43.2494C61.1342 42.7075 60.4438 41.9439 59.9508 40.9587C59.4741 39.957 59.2358 38.7829 59.2358 37.4364C59.2358 36.0735 59.4659 34.8994 59.9261 33.9142C60.4028 32.9289 61.0684 32.1736 61.9231 31.6481C62.7942 31.1062 63.8215 30.8353 65.0049 30.8353C66.4678 30.8353 67.7005 31.2869 68.7031 32.19C69.7057 33.0767 70.3221 34.2836 70.5522 35.8108H68.7524C68.588 34.8091 68.1607 34.0209 67.4704 33.4462C66.7965 32.855 65.9747 32.5595 65.0049 32.5595C63.7722 32.5595 62.8025 32.9946 62.0957 33.8649C61.4054 34.7352 61.0684 35.9257 61.0849 37.4364C61.1177 38.9307 61.4958 40.1212 62.219 41.0079C62.9586 41.8782 63.9366 42.3134 65.1529 42.3134Z" stroke="white" stroke-width="0.6" mask="url(#path-1-outside-1_2097_3342)"/>
<path d="M77.2979 40.934V43.7174H75.4488V25.8106H77.2979V38.4217L83.856 31.4018H86.0749L80.9714 36.9438L86.4693 43.7174H84.1272L79.6894 38.3231L77.2979 40.934Z" stroke="white" stroke-width="0.6" mask="url(#path-1-outside-1_2097_3342)"/>
<path d="M93.9793 35.3182C94.7518 35.3182 95.4586 35.4331 96.0996 35.663C96.7571 35.8765 97.2091 36.1556 97.4556 36.5004L97.5789 36.6729V33.126H90.3058V31.4018H99.428V43.7174H97.5789V42.5597L97.4556 42.6828C97.0611 43.0769 96.5598 43.4054 95.9517 43.6681C95.3436 43.9308 94.7272 44.0622 94.1026 44.0622C93.1 44.0622 92.2124 43.8733 91.4399 43.4957C90.6839 43.118 90.0839 42.5925 89.6401 41.9193C89.2128 41.246 88.9991 40.4743 88.9991 39.604C88.9991 38.7665 89.2046 38.0276 89.6155 37.3872C90.0428 36.7303 90.6345 36.2213 91.3906 35.86C92.1467 35.4988 93.0096 35.3182 93.9793 35.3182ZM90.8482 39.604C90.8482 40.4086 91.1523 41.0654 91.7604 41.5744C92.3686 42.0835 93.1493 42.338 94.1026 42.338C95.1217 42.338 95.9517 42.0835 96.5927 41.5744C97.2502 41.0654 97.5789 40.4086 97.5789 39.604C97.5789 38.8486 97.2419 38.2328 96.5681 37.7566C95.9106 37.2804 95.0477 37.0423 93.9793 37.0423C93.0589 37.0423 92.3028 37.2804 91.7111 37.7566C91.1359 38.2328 90.8482 38.8486 90.8482 39.604Z" stroke="white" stroke-width="0.6" mask="url(#path-1-outside-1_2097_3342)"/>
<path d="M68.376 24.0332L69.291 25.5254L69.3643 25.6436L69.251 25.7256L65.0811 28.7383L64.9932 28.8008L64.9053 28.7383L60.709 25.7256L60.5957 25.6445L60.6689 25.5254L61.585 24.0332L61.6689 23.8955L61.7998 23.9893L64.9922 26.2754L68.1602 23.9893L68.291 23.8955L68.376 24.0332Z" fill="#188C01" stroke="#188C01" stroke-width="0.3"/>
</svg>
