<svg width="750" height="500" viewBox="0 0 750 500" fill="none" xmlns="http://www.w3.org/2000/svg">
<path d="M248.712 207.51C247.332 209.61 246.402 211.92 245.902 214.31L242.102 214.67V222.02L245.902 222.38C246.392 224.76 247.322 227.07 248.712 229.18L246.292 232.11L251.492 237.31L254.422 234.89C256.522 236.27 258.832 237.2 261.222 237.7L261.582 241.5H268.932L269.292 237.7C271.672 237.2 273.982 236.28 276.092 234.89L279.022 237.31L284.222 232.11L281.802 229.18C283.182 227.08 284.112 224.77 284.612 222.38L288.412 222.02V214.67L284.612 214.31C284.122 211.93 283.192 209.62 281.802 207.51L284.222 204.58L279.022 199.38L276.092 201.8C273.992 200.42 271.672 199.49 269.292 198.99L268.932 195.19H261.582L261.222 198.99C258.842 199.48 256.532 200.41 254.422 201.8L251.492 199.38L246.292 204.58L248.712 207.51ZM272.282 211.3C276.172 215.19 276.172 221.49 272.282 225.37C268.392 229.26 262.092 229.26 258.202 225.37C254.312 221.48 254.312 215.18 258.202 211.29C262.092 207.4 268.392 207.4 272.272 211.29L272.282 211.3Z" fill="#F5F5F5"/>
<path d="M433.042 222.78C432.142 224.15 431.532 225.66 431.212 227.21L428.742 227.44V232.23L431.212 232.46C431.532 234.01 432.142 235.52 433.042 236.89L431.462 238.8L434.852 242.19L436.762 240.61C438.132 241.51 439.642 242.12 441.192 242.44L441.422 244.91H446.212L446.442 242.44C447.992 242.12 449.502 241.51 450.872 240.61L452.782 242.19L456.172 238.8L454.592 236.89C455.492 235.52 456.102 234.01 456.422 232.46L458.892 232.23V227.44L456.422 227.21C456.102 225.66 455.492 224.15 454.592 222.78L456.172 220.87L452.782 217.48L450.872 219.06C449.502 218.16 447.992 217.55 446.442 217.23L446.212 214.76H441.422L441.192 217.23C439.642 217.55 438.132 218.16 436.762 219.06L434.852 217.48L431.462 220.87L433.042 222.78ZM448.402 225.25C450.932 227.78 450.932 231.89 448.402 234.42C445.872 236.95 441.762 236.95 439.232 234.42C436.702 231.89 436.702 227.78 439.232 225.25C441.762 222.72 445.872 222.72 448.402 225.25Z" fill="#F5F5F5"/>
<path d="M462.782 258.71C461.852 260.12 461.232 261.67 460.902 263.27L458.352 263.51V268.44L460.902 268.68C461.232 270.28 461.862 271.83 462.782 273.24L461.152 275.21L464.642 278.7L466.612 277.07C468.022 278 469.572 278.62 471.172 278.95L471.412 281.5H476.342L476.582 278.95C478.182 278.62 479.732 277.99 481.142 277.07L483.112 278.7L486.602 275.21L484.972 273.24C485.902 271.83 486.522 270.28 486.852 268.68L489.402 268.44V263.51L486.852 263.27C486.522 261.67 485.892 260.12 484.972 258.71L486.602 256.74L483.112 253.25L481.142 254.88C479.732 253.95 478.182 253.33 476.582 253L476.342 250.45H471.412L471.172 253C469.572 253.33 468.022 253.96 466.612 254.88L464.642 253.25L461.152 256.74L462.782 258.71ZM478.602 261.26C481.212 263.87 481.212 268.1 478.602 270.71C475.992 273.32 471.762 273.32 469.152 270.71C466.542 268.1 466.542 263.87 469.152 261.26C471.762 258.65 475.992 258.65 478.602 261.26Z" fill="#E0E0E0"/>
<path d="M100.381 279.72C98.2012 283.04 96.7312 286.7 95.9512 290.46L89.9512 291.02V302.64L95.9512 303.21C96.7312 306.98 98.2012 310.63 100.381 313.95L96.5512 318.58L104.761 326.79L109.391 322.96C112.711 325.14 116.371 326.61 120.131 327.39L120.691 333.39H132.311L132.881 327.39C136.651 326.61 140.301 325.14 143.621 322.96L148.251 326.79L156.461 318.58L152.631 313.95C154.811 310.63 156.281 306.97 157.061 303.21L163.061 302.64V291.02L157.061 290.45C156.281 286.68 154.811 283.03 152.631 279.71L156.461 275.08L148.251 266.87L143.621 270.7C140.291 268.52 136.641 267.05 132.881 266.27L132.311 260.27H120.691L120.131 266.27C116.361 267.05 112.711 268.52 109.391 270.7L104.761 266.87L96.5512 275.08L100.381 279.71V279.72ZM137.631 285.72C143.771 291.86 143.771 301.82 137.631 307.96C131.491 314.1 121.531 314.1 115.391 307.96C109.251 301.82 109.251 291.86 115.391 285.72C121.531 279.58 131.491 279.58 137.631 285.72Z" fill="#F5F5F5"/>
<path d="M584.88 285.95C583.48 288.09 582.53 290.44 582.03 292.86L578.17 293.22V300.69L582.03 301.05C582.53 303.47 583.48 305.82 584.88 307.96L582.42 310.94L587.7 316.22L590.68 313.76C592.82 315.16 595.17 316.11 597.59 316.61L597.95 320.47H605.42L605.78 316.61C608.2 316.11 610.55 315.16 612.69 313.76L615.67 316.22L620.95 310.94L618.49 307.96C619.89 305.82 620.84 303.47 621.34 301.05L625.2 300.69V293.22L621.34 292.86C620.84 290.44 619.89 288.09 618.49 285.95L620.95 282.97L615.67 277.69L612.69 280.15C610.55 278.75 608.2 277.8 605.78 277.3L605.42 273.44H597.95L597.59 277.3C595.17 277.8 592.82 278.75 590.68 280.15L587.7 277.69L582.42 282.97L584.88 285.95ZM608.84 289.81C612.79 293.76 612.79 300.17 608.84 304.12C604.89 308.07 598.48 308.07 594.53 304.12C590.58 300.17 590.58 293.76 594.53 289.81C598.48 285.86 604.88 285.86 608.84 289.81Z" fill="#F5F5F5"/>
<path d="M90.0715 346.2C88.9615 347.89 88.2215 349.74 87.8215 351.65L84.7715 351.94V357.84L87.8215 358.13C88.2215 360.04 88.9615 361.9 90.0715 363.58L88.1215 365.93L92.2915 370.1L94.6415 368.15C96.3315 369.26 98.1815 370 100.091 370.4L100.381 373.45H106.281L106.571 370.4C108.481 370 110.341 369.26 112.021 368.15L114.371 370.1L118.541 365.93L116.591 363.58C117.701 361.89 118.441 360.04 118.841 358.13L121.891 357.84V351.94L118.841 351.65C118.441 349.74 117.701 347.88 116.591 346.2L118.541 343.85L114.371 339.68L112.021 341.63C110.331 340.52 108.481 339.78 106.571 339.38L106.281 336.33H100.381L100.091 339.38C98.1815 339.78 96.3215 340.52 94.6415 341.63L92.2915 339.68L88.1215 343.85L90.0715 346.2ZM108.981 349.24C112.101 352.36 112.101 357.41 108.981 360.53C105.861 363.65 100.801 363.65 97.6915 360.53C94.5815 357.41 94.5715 352.36 97.6915 349.24C100.811 346.12 105.861 346.12 108.981 349.24Z" fill="#E0E0E0"/>
<path d="M470.621 212.121C469.281 214.171 468.371 216.421 467.891 218.741L464.191 219.091V226.251L467.891 226.601C468.371 228.921 469.281 231.171 470.621 233.221L468.261 236.071L473.321 241.131L476.171 238.771C478.221 240.111 480.471 241.021 482.791 241.501L483.141 245.201H490.301L490.651 241.501C492.971 241.021 495.221 240.111 497.271 238.771L500.121 241.131L505.181 236.071L502.821 233.221C504.161 231.171 505.071 228.921 505.551 226.601L509.251 226.251V219.091L505.561 218.741C505.081 216.421 504.171 214.171 502.831 212.121L505.191 209.271L500.131 204.211L497.281 206.571C495.231 205.231 492.981 204.321 490.661 203.841L490.311 200.141H483.151L482.801 203.841C480.481 204.321 478.231 205.231 476.181 206.571L473.331 204.211L468.271 209.271L470.631 212.121H470.621ZM493.571 215.811C497.351 219.591 497.351 225.731 493.571 229.511C489.791 233.291 483.651 233.291 479.871 229.511C476.091 225.731 476.091 219.591 479.871 215.811C483.651 212.031 489.791 212.031 493.571 215.811Z" fill="#E0E0E0"/>
<path d="M165.608 131.534L71.3828 153.93L87.4146 221.381L181.64 198.985L165.608 131.534Z" fill="#E0E0E0"/>
<path d="M162.548 135.046L75.6875 155.691L90.4683 217.879L177.329 197.234L162.548 135.046Z" fill="#FAFAFA"/>
<path d="M90.4722 217.87L88.2422 208.49C91.4022 197.92 101.722 181.9 106.182 180.63C113.582 178.52 128.452 189.24 128.452 189.24C128.452 189.24 143.142 163.6 147.872 161.35C155.422 157.77 172.092 175.18 172.092 175.18L177.332 197.22L90.4722 217.87Z" fill="#EBEBEB"/>
<path d="M129.632 163.88C130.282 168.17 127.332 172.18 123.042 172.83C118.752 173.48 114.742 170.53 114.092 166.24C113.442 161.95 116.392 157.94 120.682 157.29C124.972 156.64 128.982 159.59 129.632 163.88Z" fill="#EBEBEB"/>
<path d="M616.599 88.8901L497.869 84.0176L494.381 169.016L613.111 173.888L616.599 88.8901Z" fill="#E0E0E0"/>
<path d="M611.827 92.0174L502.369 87.5254L499.153 165.889L608.611 170.381L611.827 92.0174Z" fill="#FAFAFA"/>
<path d="M499.151 165.91L499.641 154.09C506.891 142.66 524.401 127.17 530.091 127.15C539.541 127.12 553.531 144.72 553.531 144.72C553.531 144.72 579.401 119.32 585.741 118.24C595.851 116.52 609.741 142.63 609.741 142.63L608.601 170.4L499.141 165.9L499.151 165.91Z" fill="#EBEBEB"/>
<path d="M563.352 115.159C562.692 120.439 557.882 124.199 552.592 123.539C547.312 122.879 543.552 118.069 544.212 112.779C544.872 107.499 549.682 103.739 554.972 104.399C560.252 105.059 564.012 109.869 563.352 115.159Z" fill="#EBEBEB"/>
<path d="M681.51 229.801L616.812 217.752L608.187 264.066L672.884 276.115L681.51 229.801Z" fill="#E0E0E0"/>
<path d="M678.646 231.14L619.002 220.031L611.05 262.727L670.695 273.835L678.646 231.14Z" fill="#FAFAFA"/>
<path d="M611.031 262.77L612.231 256.33C617.101 250.63 627.931 243.53 631.051 243.97C636.231 244.7 642.511 255.45 642.511 255.45C642.511 255.45 658.701 243.57 662.261 243.48C667.941 243.33 673.491 258.75 673.491 258.75L670.671 273.88L611.031 262.77Z" fill="#EBEBEB"/>
<path d="M650.231 240.019C649.451 242.869 646.521 244.539 643.671 243.759C640.831 242.979 639.151 240.049 639.931 237.199C640.711 234.349 643.641 232.679 646.491 233.459C649.341 234.239 651.011 237.169 650.231 240.019Z" fill="#EBEBEB"/>
<path d="M351.119 71C351.269 71 351.389 71.12 351.379 71.27C351.379 71.36 351.329 71.45 351.249 71.5L328.109 83.69L327.009 84.28L315.159 90.51L274.389 91.88C274.239 91.88 274.119 91.76 274.129 91.61C274.129 91.52 274.179 91.43 274.259 91.38L309.849 72.64C310.179 72.46 310.539 72.37 310.919 72.36L323.719 71.92L324.969 71.88L351.119 71.01V71Z" fill="#E6E6E6"/>
<path d="M334.27 75.7396C333.46 74.4196 323.7 75.7896 312.07 78.8696C300.44 81.9496 291.29 85.5996 291.23 87.1496L296.01 105.18C296.1 105.52 296.44 105.71 296.78 105.63L338.62 94.5396C338.96 94.4596 339.16 94.1196 339.08 93.7796L334.3 75.7396H334.26H334.27Z" fill="#EBEBEB"/>
<path d="M330.749 89.9604L331.759 93.7703L331.459 93.8503L330.619 91.5603L331.009 93.9604L330.509 94.0903L329.659 91.8103L330.049 94.2104L329.549 94.3403L328.699 92.0603L329.099 94.4604L328.799 94.5404L327.789 90.7304C327.639 90.1304 327.859 89.5104 328.349 89.1404L323.779 71.9004L325.029 71.8604L329.529 88.8304C330.119 88.9304 330.599 89.3703 330.749 89.9503V89.9604Z" fill="#E0E0E0"/>
<path d="M509.671 419.03H495.041V419.45H509.671V419.03Z" fill="#EBEBEB"/>
<path d="M113.311 401.66H40.6406V402.08H113.311V401.66Z" fill="#EBEBEB"/>
<path d="M138.961 401.66H128.301V402.08H138.961V401.66Z" fill="#EBEBEB"/>
<path d="M331.2 408.771H173.59V409.191H331.2V408.771Z" fill="#EBEBEB"/>
<path d="M105.301 399.07L100.891 398.45C101.671 392.95 106.271 382.54 118.041 382.54C131.971 382.54 138.911 390.58 139.601 398.57L135.191 398.95C134.681 392.98 129.161 386.95 118.031 386.95C106.901 386.95 105.411 398.58 105.311 399.07H105.301Z" fill="#263238"/>
<path d="M156.91 395.19H85.2504C81.3292 395.19 78.1504 398.369 78.1504 402.29V439.35C78.1504 443.272 81.3292 446.45 85.2504 446.45H156.91C160.832 446.45 164.01 443.272 164.01 439.35V402.29C164.01 398.369 160.832 395.19 156.91 395.19Z" fill="#263238"/>
<path opacity="0.2" d="M156.91 395.19H85.2504C81.3292 395.19 78.1504 398.369 78.1504 402.29V439.35C78.1504 443.272 81.3292 446.45 85.2504 446.45H156.91C160.832 446.45 164.01 443.272 164.01 439.35V402.29C164.01 398.369 160.832 395.19 156.91 395.19Z" fill="white"/>
<path d="M139.63 447.24C78.9302 447.24 75.9902 405.61 75.9902 405.17L78.4602 400.35C78.5602 401.89 83.3402 442.8 139.68 442.8C162.87 442.8 182.88 442.8 184.91 438.39C186.69 434.49 178 424.48 164.06 408.44V402.23C181.82 422.68 191.88 433.68 188.93 440.17C185.81 446.98 172.4 447.24 139.64 447.24H139.63Z" fill="#263238"/>
<path d="M654.581 414.11H648.98V432.52H654.581V414.11Z" fill="#263238"/>
<path d="M651.71 417.07C643 417.07 634.43 414.92 626.75 410.8L629.4 405.87C652.52 418.22 681.27 409.5 693.62 386.38C699.63 375.13 700.86 361.93 697.03 349.76C695.53 344.94 693.25 340.39 690.3 336.3C686.07 330.42 680.55 325.59 674.16 322.16L676.8 317.23C679.74 318.81 682.54 320.66 685.14 322.76C688.82 325.73 692.08 329.18 694.84 333.02C698.15 337.6 700.69 342.68 702.37 348.07C711.18 376.02 695.67 405.82 667.72 414.63C662.54 416.26 657.14 417.09 651.71 417.09V417.07Z" fill="#263238"/>
<g opacity="0.3">
<path d="M651.71 417.07C643 417.07 634.43 414.92 626.75 410.8L629.4 405.87C652.52 418.22 681.27 409.5 693.62 386.38C699.63 375.13 700.86 361.93 697.03 349.76C695.53 344.94 693.25 340.39 690.3 336.3C686.07 330.42 680.55 325.59 674.16 322.16L676.8 317.23C679.74 318.81 682.54 320.66 685.14 322.76C688.82 325.73 692.08 329.18 694.84 333.02C698.15 337.6 700.69 342.68 702.37 348.07C711.18 376.02 695.67 405.82 667.72 414.63C662.54 416.26 657.14 417.09 651.71 417.09V417.07Z" fill="white"/>
</g>
<path d="M624.949 415.47C624.719 415.47 624.488 415.42 624.288 415.3C623.628 414.93 623.368 414.11 623.718 413.43L677.389 313.31C677.749 312.63 678.599 312.37 679.279 312.73C679.959 313.09 680.218 313.94 679.858 314.62L626.179 414.7C625.939 415.16 625.469 415.45 624.949 415.46V415.47Z" fill="#263238"/>
<g opacity="0.4">
<path d="M624.949 415.47C624.719 415.47 624.488 415.42 624.288 415.3C623.628 414.93 623.368 414.11 623.718 413.43L677.389 313.31C677.749 312.63 678.599 312.37 679.279 312.73C679.959 313.09 680.218 313.94 679.858 314.62L626.179 414.7C625.939 415.16 625.469 415.45 624.949 415.46V415.47Z" fill="white"/>
</g>
<path d="M641.55 431.16H662.01C663.38 431.16 664.49 432.27 664.49 433.64V438.21H639.07V433.64C639.07 432.27 640.18 431.16 641.54 431.16H641.55Z" fill="#263238"/>
<path d="M653.879 323.14C676.449 324.3 693.809 343.54 692.659 366.11C691.499 388.68 672.259 406.04 649.689 404.89C627.119 403.73 609.759 384.49 610.909 361.92C612.069 339.34 631.309 321.99 653.879 323.14Z" fill="#217DD2"/>
<path opacity="0.2" d="M664.569 325.17C665.159 337.48 661.209 350.77 652.559 362.19C642.979 374.83 629.629 382.53 616.319 384.47C605.059 364.86 611.829 339.83 631.429 328.57C641.499 322.79 653.539 321.55 664.569 325.17Z" fill="white"/>
<g opacity="0.3">
<path d="M641.55 431.16H662.01C663.38 431.16 664.49 432.27 664.49 433.64V438.21H639.07V433.64C639.07 432.27 640.18 431.16 641.54 431.16H641.55Z" fill="white"/>
</g>
<path d="M630.509 436.871H673.059C674.659 436.871 675.949 438.161 675.949 439.761V444.511H627.619V439.761C627.619 438.161 628.909 436.871 630.509 436.871Z" fill="#263238"/>
<g opacity="0.4">
<path d="M630.509 436.871H673.059C674.659 436.871 675.949 438.161 675.949 439.761V444.511H627.619V439.761C627.619 438.161 628.909 436.871 630.509 436.871Z" fill="white"/>
</g>
<path d="M631.05 169.609C639.2 180.679 636.84 196.259 625.78 204.409C617.24 210.709 606.02 210.709 597.59 205.299L590.39 207.309L591.25 199.459C591.17 199.349 591.07 199.249 590.99 199.139C582.84 188.069 585.2 172.489 596.26 164.339C607.33 156.189 622.91 158.549 631.06 169.609H631.05Z" fill="#217DD2"/>
<path opacity="0.7" d="M631.05 169.609C639.2 180.679 636.84 196.259 625.78 204.409C617.24 210.709 606.02 210.709 597.59 205.299L590.39 207.309L591.25 199.459C591.17 199.349 591.07 199.249 590.99 199.139C582.84 188.069 585.2 172.489 596.26 164.339C607.33 156.189 622.91 158.549 631.06 169.609H631.05Z" fill="white"/>
<path d="M632.659 167.19C632.579 167.19 632.499 167.15 632.449 167.08C628.079 160.66 620.339 156.59 612.579 156.59C612.369 156.59 612.159 156.59 611.939 156.59C611.819 156.6 611.689 156.48 611.679 156.35C611.679 156.21 611.779 156.1 611.919 156.09C620.049 155.85 628.279 160.05 632.859 166.79C632.939 166.9 632.909 167.06 632.789 167.14C632.749 167.17 632.699 167.18 632.649 167.18L632.659 167.19ZM604.689 157.41C605.809 156.98 607.029 156.79 608.219 156.84C608.359 156.85 608.479 156.74 608.479 156.6C608.479 156.46 608.379 156.35 608.239 156.34C606.969 156.28 605.689 156.49 604.509 156.95C604.379 157 604.319 157.14 604.369 157.27C604.409 157.37 604.499 157.43 604.599 157.43C604.629 157.43 604.659 157.43 604.689 157.41Z" fill="#217DD2"/>
<path opacity="0.7" d="M632.659 167.19C632.579 167.19 632.499 167.15 632.449 167.08C628.079 160.66 620.339 156.59 612.579 156.59C612.369 156.59 612.159 156.59 611.939 156.59C611.819 156.6 611.689 156.48 611.679 156.35C611.679 156.21 611.779 156.1 611.919 156.09C620.049 155.85 628.279 160.05 632.859 166.79C632.939 166.9 632.909 167.06 632.789 167.14C632.749 167.17 632.699 167.18 632.649 167.18L632.659 167.19ZM604.689 157.41C605.809 156.98 607.029 156.79 608.219 156.84C608.359 156.85 608.479 156.74 608.479 156.6C608.479 156.46 608.379 156.35 608.239 156.34C606.969 156.28 605.689 156.49 604.509 156.95C604.379 157 604.319 157.14 604.369 157.27C604.409 157.37 604.499 157.43 604.599 157.43C604.629 157.43 604.659 157.43 604.689 157.41Z" fill="white"/>
<path d="M605.389 183.6C605.389 185.45 603.889 186.94 602.049 186.94C600.209 186.94 598.709 185.44 598.709 183.6C598.709 181.76 600.209 180.26 602.049 180.26C603.889 180.26 605.389 181.76 605.389 183.6Z" fill="#217DD2"/>
<path d="M612.279 186.94C614.124 186.94 615.619 185.444 615.619 183.6C615.619 181.755 614.124 180.26 612.279 180.26C610.435 180.26 608.939 181.755 608.939 183.6C608.939 185.444 610.435 186.94 612.279 186.94Z" fill="#217DD2"/>
<path d="M622.51 186.94C624.355 186.94 625.85 185.444 625.85 183.6C625.85 181.755 624.355 180.26 622.51 180.26C620.665 180.26 619.17 181.755 619.17 183.6C619.17 185.444 620.665 186.94 622.51 186.94Z" fill="#217DD2"/>
<path d="M254.469 148.71C246.769 138.93 232.319 137.05 222.209 144.5C214.399 150.25 211.489 159.88 214.099 168.47L210.449 174.15L217.639 175.39C217.719 175.49 217.779 175.6 217.859 175.69C225.559 185.47 239.999 187.35 250.119 179.9C260.229 172.45 262.179 158.49 254.479 148.71H254.469Z" fill="#217DD2"/>
<path opacity="0.7" d="M254.469 148.71C246.769 138.93 232.319 137.05 222.209 144.5C214.399 150.25 211.489 159.88 214.099 168.47L210.449 174.15L217.639 175.39C217.719 175.49 217.779 175.6 217.859 175.69C225.559 185.47 239.999 187.35 250.119 179.9C260.229 172.45 262.179 158.49 254.479 148.71H254.469Z" fill="white"/>
<path d="M261.279 168.691C261.279 168.691 261.229 168.691 261.199 168.681C261.069 168.641 260.999 168.491 261.039 168.361C263.309 161.591 261.749 153.661 257.069 148.161C256.979 148.061 256.989 147.901 257.099 147.811C257.199 147.721 257.359 147.731 257.449 147.841C262.239 153.471 263.839 161.591 261.509 168.521C261.479 168.621 261.379 168.691 261.269 168.691H261.279ZM258.839 174.681C259.549 173.781 260.069 172.721 260.349 171.621C260.379 171.491 260.299 171.351 260.169 171.321C260.029 171.281 259.899 171.371 259.869 171.501C259.609 172.531 259.119 173.531 258.449 174.371C258.359 174.481 258.379 174.641 258.489 174.721C258.539 174.761 258.589 174.771 258.639 174.771C258.709 174.771 258.789 174.741 258.839 174.671V174.681Z" fill="#217DD2"/>
<path opacity="0.7" d="M261.279 168.691C261.279 168.691 261.229 168.691 261.199 168.681C261.069 168.641 260.999 168.491 261.039 168.361C263.309 161.591 261.749 153.661 257.069 148.161C256.979 148.061 256.989 147.901 257.099 147.811C257.199 147.721 257.359 147.731 257.449 147.841C262.239 153.471 263.839 161.591 261.509 168.521C261.479 168.621 261.379 168.691 261.269 168.691H261.279ZM258.839 174.681C259.549 173.781 260.069 172.721 260.349 171.621C260.379 171.491 260.299 171.351 260.169 171.321C260.029 171.281 259.899 171.371 259.869 171.501C259.609 172.531 259.119 173.531 258.449 174.371C258.359 174.481 258.379 174.641 258.489 174.721C258.539 174.761 258.589 174.771 258.639 174.771C258.709 174.771 258.789 174.741 258.839 174.671V174.681Z" fill="white"/>
<path d="M241.648 161.7C241.648 163.35 243.028 164.69 244.738 164.69C246.448 164.69 247.828 163.35 247.828 161.7C247.828 160.05 246.448 158.71 244.738 158.71C243.028 158.71 241.648 160.05 241.648 161.7Z" fill="#217DD2"/>
<path d="M232.189 161.7C232.189 163.35 233.569 164.69 235.279 164.69C236.989 164.69 238.369 163.35 238.369 161.7C238.369 160.05 236.989 158.71 235.279 158.71C233.569 158.71 232.189 160.05 232.189 161.7Z" fill="#217DD2"/>
<path d="M222.73 161.701C222.73 163.351 224.11 164.691 225.82 164.691C227.53 164.691 228.91 163.351 228.91 161.701C228.91 160.051 227.53 158.711 225.82 158.711C224.11 158.711 222.73 160.051 222.73 161.701Z" fill="#217DD2"/>
<path d="M425.931 54.6506C408.621 54.4506 394.421 68.3206 394.221 85.6306C394.111 95.0206 398.221 103.971 405.421 110.011C406.741 111.101 408.771 112.421 408.721 115.161C408.721 115.241 408.861 122.011 408.861 122.011H441.831C441.831 122.011 441.971 114.981 441.971 114.901C441.971 112.491 443.841 111.451 445.211 110.361C452.501 104.511 456.801 95.7106 456.911 86.3606C457.111 69.0506 443.241 54.8506 425.931 54.6506Z" fill="#217DD2"/>
<path opacity="0.4" d="M425.931 54.6506C408.621 54.4506 394.421 68.3206 394.221 85.6306C394.111 95.0206 398.221 103.971 405.421 110.011C406.741 111.101 408.771 112.421 408.721 115.161C408.721 115.241 408.861 122.011 408.861 122.011H441.831C441.831 122.011 441.971 114.981 441.971 114.901C441.971 112.491 443.841 111.451 445.211 110.361C452.501 104.511 456.801 95.7106 456.911 86.3606C457.111 69.0506 443.241 54.8506 425.931 54.6506Z" fill="white"/>
<path opacity="0.2" d="M441.512 68.1511C441.512 74.2511 434.372 79.2111 425.512 79.2111C416.652 79.2111 409.512 74.2511 409.512 68.1511C409.512 62.0511 416.652 57.0811 425.512 57.0811C434.372 57.0811 441.512 62.0411 441.512 68.1511Z" fill="white"/>
<path d="M401.46 98.0309C398.69 93.2809 397.6 87.6609 398.41 82.2209C399.21 76.7809 401.87 71.7109 405.9 67.9609L406.24 68.3309C402.3 72.0009 399.69 76.9609 398.9 82.2909C398.11 87.6209 399.17 93.1209 401.89 97.7809L401.46 98.0309Z" fill="white"/>
<path d="M434.671 115.31C433.071 111.09 431.741 106.76 430.681 102.33C429.061 103.75 427.291 104.48 425.581 104.39C424.201 104.32 422.811 103.74 421.391 102.63C421.181 106.92 420.461 111.18 419.261 115.3L418.301 115.02C419.561 110.73 420.271 106.28 420.431 101.81C420.201 101.59 419.971 101.37 419.741 101.12C416.231 97.4704 414.591 92.9404 415.351 89.0204C415.641 87.5304 416.541 86.0804 417.901 86.0804C419.141 86.1104 420.061 87.3304 420.481 89.5204C421.231 93.4304 421.551 97.4104 421.441 101.38C422.901 102.67 424.281 103.33 425.631 103.4C427.661 103.5 429.381 102.23 430.421 101.22C429.651 97.8504 429.051 94.4304 428.611 90.9704C428.451 89.7204 428.331 88.5004 428.611 87.3104C428.941 85.8604 429.881 84.7604 431.001 84.5204C432.931 84.1004 434.501 86.1704 435.041 88.4204C436.111 92.9004 434.761 98.0104 431.621 101.43C431.591 101.46 431.571 101.49 431.541 101.52C432.611 106.1 433.971 110.6 435.631 114.96L434.691 115.31H434.671ZM417.851 87.0704C417.121 87.0704 416.531 88.1404 416.321 89.2004C415.621 92.8104 417.161 97.0004 420.441 100.42C420.481 96.8404 420.161 93.2404 419.481 89.7004C419.361 89.0904 418.901 87.1004 417.861 87.0704H417.841H417.851ZM431.461 85.4604C431.371 85.4604 431.281 85.4604 431.191 85.4904C430.351 85.6704 429.771 86.6404 429.571 87.5204C429.331 88.5504 429.451 89.6704 429.591 90.8204C430.001 94.0104 430.551 97.1804 431.241 100.3C433.851 97.1604 434.981 92.5504 434.051 88.6304C433.661 87.0004 432.611 85.4504 431.461 85.4504V85.4604Z" fill="#263238"/>
<path d="M444 120.021H406.85C405.966 120.021 405.25 120.737 405.25 121.621V122.401C405.25 123.284 405.966 124.001 406.85 124.001H444C444.884 124.001 445.6 123.284 445.6 122.401V121.621C445.6 120.737 444.884 120.021 444 120.021Z" fill="#263238"/>
<path opacity="0.3" d="M444 120.021H406.85C405.966 120.021 405.25 120.737 405.25 121.621V122.401C405.25 123.284 405.966 124.001 406.85 124.001H444C444.884 124.001 445.6 123.284 445.6 122.401V121.621C445.6 120.737 444.884 120.021 444 120.021Z" fill="white"/>
<path d="M443.342 123.641H407.502C406.619 123.641 405.902 124.357 405.902 125.241V125.891C405.902 126.774 406.619 127.491 407.502 127.491H443.342C444.226 127.491 444.942 126.774 444.942 125.891V125.241C444.942 124.357 444.226 123.641 443.342 123.641Z" fill="#263238"/>
<path opacity="0.3" d="M443.342 123.641H407.502C406.619 123.641 405.902 124.357 405.902 125.241V125.891C405.902 126.774 406.619 127.491 407.502 127.491H443.342C444.226 127.491 444.942 126.774 444.942 125.891V125.241C444.942 124.357 444.226 123.641 443.342 123.641Z" fill="white"/>
<path d="M413.041 132.981C415.511 137.501 420.721 142.271 425.861 141.971C431.011 141.671 435.841 137.291 437.761 132.511L413.041 132.981Z" fill="#263238"/>
<path d="M440.951 130.58H409.881C408.998 130.58 408.281 131.296 408.281 132.18V132.83C408.281 133.714 408.998 134.43 409.881 134.43H440.951C441.835 134.43 442.551 133.714 442.551 132.83V132.18C442.551 131.296 441.835 130.58 440.951 130.58Z" fill="#263238"/>
<path opacity="0.3" d="M440.951 130.58H409.881C408.998 130.58 408.281 131.296 408.281 132.18V132.83C408.281 133.714 408.998 134.43 409.881 134.43H440.951C441.835 134.43 442.551 133.714 442.551 132.83V132.18C442.551 131.296 441.835 130.58 440.951 130.58Z" fill="white"/>
<path d="M442.82 127.051H408.03C407.146 127.051 406.43 127.767 406.43 128.651V129.301C406.43 130.184 407.146 130.901 408.03 130.901H442.82C443.703 130.901 444.42 130.184 444.42 129.301V128.651C444.42 127.767 443.703 127.051 442.82 127.051Z" fill="#263238"/>
<path opacity="0.3" d="M442.82 127.051H408.03C407.146 127.051 406.43 127.767 406.43 128.651V129.301C406.43 130.184 407.146 130.901 408.03 130.901H442.82C443.703 130.901 444.42 130.184 444.42 129.301V128.651C444.42 127.767 443.703 127.051 442.82 127.051Z" fill="white"/>
<path d="M408.16 43.2801C410.54 45.6601 412.93 48.0501 415.31 50.4301C415.65 50.7701 416.18 50.2401 415.84 49.9001C413.46 47.5201 411.07 45.1301 408.69 42.7501C408.35 42.4101 407.82 42.9401 408.16 43.2801Z" fill="#7AB1E4"/>
<path d="M426.801 47.6202V34.1002C426.801 33.6202 426.051 33.6202 426.051 34.1002V47.6202C426.051 48.1002 426.801 48.1002 426.801 47.6202Z" fill="#7AB1E4"/>
<path d="M436.712 51.0101C439.292 48.4301 441.862 45.8601 444.442 43.2801C444.782 42.9401 444.252 42.4101 443.912 42.7501C441.332 45.3301 438.762 47.9001 436.182 50.4801C435.842 50.8201 436.372 51.3501 436.712 51.0101Z" fill="#7AB1E4"/>
<path d="M592.42 398.32H157.43V444.89H592.42V398.32Z" fill="#217DD2"/>
<path d="M306.88 403.19H157.43V440.02H306.88V403.19Z" fill="white"/>
<path d="M157.43 412.271C202.89 411.781 253.88 411.781 299.34 412.271C253.88 412.761 202.89 412.761 157.43 412.271Z" fill="#263238"/>
<path d="M157.43 416.641C202.89 416.151 253.88 416.151 299.34 416.641C253.88 417.131 202.89 417.131 157.43 416.641Z" fill="#263238"/>
<path d="M157.43 421C202.89 420.51 253.88 420.51 299.34 421C253.88 421.49 202.89 421.49 157.43 421Z" fill="#263238"/>
<path d="M157.43 425.37C202.89 424.88 253.88 424.88 299.34 425.37C253.88 425.86 202.89 425.86 157.43 425.37Z" fill="#263238"/>
<path d="M157.43 429.741C202.89 429.251 253.88 429.251 299.34 429.741C253.88 430.231 202.89 430.231 157.43 429.741Z" fill="#263238"/>
<path d="M157.43 434.111C202.89 433.621 253.88 433.621 299.34 434.111C253.88 434.601 202.89 434.601 157.43 434.111Z" fill="#263238"/>
<path d="M157.43 407.901C202.89 407.411 253.88 407.411 299.34 407.901C253.88 408.391 202.89 408.391 157.43 407.901Z" fill="#263238"/>
<path opacity="0.3" d="M358.41 398.32H345.07V444.89H358.41V398.32Z" fill="white"/>
<path opacity="0.3" d="M561.879 398.32H548.539V444.89H561.879V398.32Z" fill="white"/>
<path opacity="0.2" d="M315.35 398.32H157.43V444.89H315.35V398.32Z" fill="black"/>
<path d="M475.85 300.04H223.09V333.21H475.85V300.04Z" fill="#217DD2"/>
<path d="M329.56 303.51H223.09V329.75H329.56V303.51Z" fill="white"/>
<path d="M223.09 309.97C255.47 309.48 291.81 309.48 324.19 309.97C291.81 310.46 255.47 310.46 223.09 309.97Z" fill="#263238"/>
<path d="M223.09 313.079C255.47 312.589 291.81 312.589 324.19 313.079C291.81 313.569 255.47 313.569 223.09 313.079Z" fill="#263238"/>
<path d="M223.09 316.2C255.47 315.71 291.81 315.71 324.19 316.2C291.81 316.69 255.47 316.69 223.09 316.2Z" fill="#263238"/>
<path d="M223.09 319.31C255.47 318.82 291.81 318.82 324.19 319.31C291.81 319.8 255.47 319.8 223.09 319.31Z" fill="#263238"/>
<path d="M223.09 322.419C255.47 321.929 291.81 321.929 324.19 322.419C291.81 322.909 255.47 322.909 223.09 322.419Z" fill="#263238"/>
<path d="M223.09 325.53C255.47 325.04 291.81 325.04 324.19 325.53C291.81 326.02 255.47 326.02 223.09 325.53Z" fill="#263238"/>
<path d="M223.09 306.86C255.47 306.37 291.81 306.37 324.19 306.86C291.81 307.35 255.47 307.35 223.09 306.86Z" fill="#263238"/>
<path opacity="0.3" d="M465.58 300.04H456.07V333.21H465.58V300.04Z" fill="black"/>
<path opacity="0.3" d="M364.49 300.04H354.98V333.21H364.49V300.04Z" fill="black"/>
<path opacity="0.2" d="M335.6 300.04H223.09V333.21H335.6V300.04Z" fill="black"/>
<path opacity="0.3" d="M446.469 311.75H372.939V321.46H446.469V311.75Z" fill="black"/>
<path d="M485.659 378.81H130.879V398.33H485.659V378.81Z" fill="#263238"/>
<path d="M279.949 381.33H130.879V395.81H279.949V381.33Z" fill="white"/>
<path d="M131.898 384.2C177.358 383.71 228.348 383.71 273.808 384.2C228.348 384.69 177.358 384.69 131.898 384.2Z" fill="#263238"/>
<path d="M131.898 388.57C177.358 388.08 228.348 388.08 273.808 388.57C228.348 389.06 177.358 389.06 131.898 388.57Z" fill="#263238"/>
<path d="M131.898 392.93C177.358 392.44 228.348 392.44 273.808 392.93C228.348 393.42 177.358 393.42 131.898 392.93Z" fill="#263238"/>
<path opacity="0.3" d="M322.309 378.81H318.559V398.33H322.309V378.81Z" fill="white"/>
<path opacity="0.3" d="M329.289 378.81H325.539V398.33H329.289V378.81Z" fill="white"/>
<path opacity="0.3" d="M461.779 378.81H458.029V398.33H461.779V378.81Z" fill="white"/>
<path opacity="0.3" d="M468.76 378.81H465.01V398.33H468.76V378.81Z" fill="white"/>
<path opacity="0.2" d="M283.569 378.8H130.859V398.32H283.569V378.8Z" fill="black"/>
<path d="M554.53 333.04H199.75V352.56H554.53V333.04Z" fill="#263238"/>
<path d="M348.82 335.561H199.75V350.041H348.82V335.561Z" fill="white"/>
<path d="M200.77 338.43C246.23 337.94 297.22 337.94 342.68 338.43C297.22 338.92 246.23 338.92 200.77 338.43Z" fill="#263238"/>
<path d="M200.77 342.8C246.23 342.31 297.22 342.31 342.68 342.8C297.22 343.29 246.23 343.29 200.77 342.8Z" fill="#263238"/>
<path d="M200.77 347.17C246.23 346.68 297.22 346.68 342.68 347.17C297.22 347.66 246.23 347.66 200.77 347.17Z" fill="#263238"/>
<path opacity="0.3" d="M391.18 333.04H387.43V352.56H391.18V333.04Z" fill="white"/>
<path opacity="0.3" d="M398.16 333.04H394.41V352.56H398.16V333.04Z" fill="white"/>
<path opacity="0.3" d="M530.66 333.04H526.91V352.56H530.66V333.04Z" fill="white"/>
<path opacity="0.3" d="M537.641 333.04H533.891V352.56H537.641V333.04Z" fill="white"/>
<path opacity="0.2" d="M352.44 333.03H199.73V352.55H352.44V333.03Z" fill="black"/>
<path d="M145.529 379L500.309 379V352.37L145.529 352.37V379Z" fill="#217DD2"/>
<path opacity="0.4" d="M145.529 379L500.309 379V352.37L145.529 352.37V379Z" fill="white"/>
<path d="M351.248 376.48H500.318V355.43H351.248V376.48Z" fill="white"/>
<path d="M499.299 364.87C453.839 365.36 402.849 365.36 357.389 364.87C402.849 364.38 453.839 364.38 499.299 364.87Z" fill="#263238"/>
<path d="M499.299 369.241C453.839 369.731 402.849 369.731 357.389 369.241C402.849 368.751 453.839 368.751 499.299 369.241Z" fill="#263238"/>
<path d="M499.299 373.61C453.839 374.1 402.849 374.1 357.389 373.61C402.849 373.12 453.839 373.12 499.299 373.61Z" fill="#263238"/>
<path d="M499.299 360.34C453.839 360.83 402.849 360.83 357.389 360.34C402.849 359.85 453.839 359.85 499.299 360.34Z" fill="#263238"/>
<path opacity="0.2" d="M347.63 378.98H500.34V352.35H347.63V378.98Z" fill="black"/>
<path opacity="0.4" d="M317.22 360.34H177.25V369.24H317.22V360.34Z" fill="white"/>
<path d="M557.829 353.241C557.829 353.241 453.709 332.061 449.429 353.751C443.319 384.701 518.529 403.181 558.229 400.751C597.929 398.311 557.829 353.251 557.829 353.251V353.241Z" fill="#263238"/>
<path opacity="0.2" d="M557.829 353.241C557.829 353.241 453.709 332.061 449.429 353.751C443.319 384.701 518.529 403.181 558.229 400.751C597.929 398.311 557.829 353.251 557.829 353.251V353.241Z" fill="black"/>
<path opacity="0.2" d="M483.548 359.39L533.018 388.82L526.808 398.22C526.808 398.22 530.368 403.18 536.408 387.45L505.778 368.48C505.778 368.48 515.158 367.26 514.878 365.8C514.408 363.4 493.618 359.41 484.128 357.62C483.638 357.46 483.108 357.73 482.948 358.22C482.788 358.71 483.058 359.24 483.548 359.4V359.39Z" fill="black"/>
<path opacity="0.2" d="M534.68 385.291L526.66 399.191C537.1 400.701 547.68 401.221 558.23 400.741C561.7 400.621 565.12 399.891 568.32 398.601L571.12 393.101L564.37 380.471L534.68 385.291Z" fill="black"/>
<path d="M518.438 380.34L540.448 393.4L536.888 404L511.188 393.35L518.438 380.34Z" fill="#EBB373"/>
<path d="M552.437 396.56L550.537 404.16C550.537 404.16 548.957 404.54 548.507 406.14C548.257 407.04 548.987 409.48 548.987 409.48L543.927 430.42C543.927 430.42 542.487 430.08 541.927 429.69C541.237 429.22 540.677 428.74 540.227 428.25C538.637 426.52 538.397 423.96 538.287 422.06C538.097 418.87 535.987 409.62 535.987 409.62C535.987 409.62 535.217 407.21 532.587 405.15C531.127 404 530.417 402.51 530.527 401.58C530.737 399.67 532.087 398.92 533.867 399.08L535.937 399.27C537.377 398.13 537.777 396.26 536.787 394.49C536.787 394.49 535.437 390 537.357 390.71C538.457 391.11 543.287 393.1 547.147 394.55C548.047 394.89 548.897 395.21 549.647 395.49C551.307 396.12 552.447 396.55 552.447 396.55L552.437 396.56Z" fill="#263238"/>
<path d="M536.917 414.57C536.857 414.46 536.877 414.31 536.977 414.22C537.407 413.8 537.957 413.49 538.567 413.34C538.897 413.26 539.057 413.78 538.727 413.86C538.177 413.99 537.697 414.26 537.317 414.63C537.187 414.75 536.997 414.73 536.907 414.58L536.917 414.57Z" fill="#217DD2"/>
<path d="M536.437 412.74C536.377 412.63 536.407 412.48 536.497 412.39C536.927 411.97 537.477 411.66 538.087 411.51C538.417 411.43 538.577 411.95 538.247 412.03C537.697 412.16 537.217 412.43 536.837 412.8C536.707 412.92 536.517 412.9 536.427 412.75L536.437 412.74Z" fill="#217DD2"/>
<path d="M536.026 410.88C535.966 410.77 535.986 410.62 536.086 410.53C536.516 410.11 537.066 409.8 537.676 409.65C538.006 409.57 538.166 410.09 537.836 410.17C537.286 410.3 536.806 410.57 536.426 410.94C536.296 411.06 536.106 411.04 536.016 410.89L536.026 410.88Z" fill="#217DD2"/>
<path opacity="0.2" d="M549.638 395.5C551.298 396.13 552.438 396.56 552.438 396.56L550.538 404.16C550.538 404.16 548.958 404.54 548.508 406.14C548.258 407.04 548.988 409.48 548.988 409.48L543.928 430.42C543.928 430.42 542.488 430.08 541.928 429.69C541.608 429.48 541.328 429.26 541.068 429.04L549.238 395.34C549.378 395.39 549.528 395.45 549.658 395.5H549.638Z" fill="white"/>
<path d="M533.098 412.46C532.568 412.46 532.058 412.32 531.658 412.05C531.338 411.84 531.018 411.45 531.098 411.02C531.178 410.6 531.568 410.36 531.898 410.23C532.548 409.97 533.318 409.9 534.178 410.03C534.928 410.14 535.658 410.39 536.368 410.62L536.588 410.7L536.408 410.84C535.988 411.16 534.558 412.22 533.798 412.38C533.568 412.43 533.338 412.46 533.108 412.46H533.098ZM533.348 410.21C532.848 410.21 532.388 410.29 531.978 410.45C531.768 410.53 531.398 410.73 531.338 411.05C531.278 411.36 531.538 411.66 531.788 411.83C532.308 412.18 533.018 412.29 533.728 412.13C534.358 411.99 535.548 411.15 536.048 410.77C535.418 410.56 534.778 410.36 534.128 410.26C533.858 410.22 533.598 410.2 533.338 410.2L533.348 410.21Z" fill="#217DD2"/>
<path d="M536.457 410.9L536.267 410.76C535.667 410.31 535.057 409.85 534.537 409.3C533.937 408.67 533.557 408 533.397 407.31C533.317 406.97 533.287 406.51 533.597 406.21C533.907 405.9 534.407 405.94 534.767 406.08C535.407 406.33 535.957 406.9 536.257 407.64C536.557 408.37 536.497 410.14 536.477 410.67V410.91L536.457 410.9ZM534.207 406.22C534.037 406.22 533.877 406.26 533.757 406.38C533.527 406.61 533.577 407.02 533.627 407.25C533.777 407.89 534.137 408.52 534.697 409.12C535.147 409.6 535.687 410.01 536.207 410.41C536.237 409.4 536.207 408.22 535.997 407.73C535.717 407.06 535.227 406.54 534.647 406.31C534.507 406.26 534.347 406.22 534.197 406.22H534.207Z" fill="#217DD2"/>
<path d="M513.17 288.71C513.17 288.71 510.38 322.44 509.43 324.27C506.2 330.47 483.9 341.59 483.9 341.59L472.3 339.52L464.24 346.66L469.81 350.77L476.13 348.17C479.64 348.69 483.18 348.89 486.72 348.78C492.67 348.6 522.35 341.18 526.9 333.04C531.45 324.9 531.39 287.05 531.39 287.05L513.16 288.71H513.17Z" fill="#EBB373"/>
<path d="M532.31 301.369C532.31 301.369 540.3 271.579 529.02 263.709C517.74 255.839 510.16 296.689 510.16 296.689L532.31 301.369Z" fill="#217DD2"/>
<path opacity="0.5" d="M532.31 301.369C532.31 301.369 540.3 271.579 529.02 263.709C517.74 255.839 510.16 296.689 510.16 296.689L532.31 301.369Z" fill="white"/>
<path d="M526.912 355.579L525.842 316.439L525.102 262.829L548.072 257.129L564.162 256.979L591.372 265.449L592.292 278.579C592.292 278.579 591.452 339.029 591.652 340.849C591.902 343.079 598.802 356.889 598.802 356.889C570.072 364.329 526.502 357.579 526.892 355.569L526.912 355.579Z" fill="#217DD2"/>
<path opacity="0.2" d="M525.681 299.969L525.291 276.629L521.191 299.019L525.681 299.969Z" fill="black"/>
<path opacity="0.2" d="M574.741 302.209C574.021 302.089 571.101 301.229 571.101 301.229L577.741 278.479L567.461 303.469L574.151 305.909L574.731 302.209H574.741Z" fill="black"/>
<path d="M577.289 283.62C577.289 283.62 572.779 321.11 569.639 324.69C564.339 330.75 537.679 347.19 537.679 347.19L523.999 342.84C523.039 342.56 521.999 342.76 521.239 343.37L512.189 350.71L513.099 351.43C513.489 351.74 514.049 351.79 514.489 351.55L515.909 350.79L514.349 352.41L514.869 352.82C515.389 353.23 516.099 353.37 516.739 353.17L520.849 351.94L517.109 354.59C517.979 355.28 519.179 355.5 520.259 355.16L526.259 353.26C530.419 354.08 534.639 354.56 538.879 354.69C546.019 354.92 579.339 342.16 585.359 333.37C591.379 324.57 596.799 288.62 596.799 288.62L577.289 283.61V283.62Z" fill="#EBB373"/>
<path d="M595.94 307.92C595.94 307.92 603.33 273.85 592.05 265.97C580.77 258.1 571.1 301.22 571.1 301.22L595.94 307.92Z" fill="#217DD2"/>
<path opacity="0.5" d="M595.94 307.92C595.94 307.92 603.33 273.85 592.05 265.97C580.77 258.1 571.1 301.22 571.1 301.22L595.94 307.92Z" fill="white"/>
<path d="M506.86 353.59L527.68 352.98L549.77 352.33C549.81 353.98 548.02 355.36 545.77 355.42L523.7 356.07L511.07 356.44H511.01L475.87 357.48C473.64 357.53 471.81 356.26 471.77 354.63L506.86 353.6V353.59Z" fill="#263238"/>
<path d="M475.231 357.32L514.431 356.16C515.111 356.14 515.641 355.68 515.621 355.13C515.621 355.03 515.591 354.93 515.551 354.83L496.931 315.36C496.461 314.23 495.121 313.49 493.631 313.53L454.401 314.69C453.741 314.71 453.211 315.16 453.231 315.69C453.231 315.8 453.261 315.91 453.311 316.02L471.931 355.49C472.411 356.61 473.741 357.35 475.231 357.32Z" fill="#263238"/>
<path opacity="0.7" d="M454.401 314.69L493.631 313.53C495.121 313.49 496.461 314.23 496.931 315.36L514.851 353.34L527.691 352.96L549.781 352.31C549.821 353.96 548.031 355.34 545.781 355.4L523.711 356.05L511.081 356.42H511.021L475.881 357.46C475.171 357.48 474.521 357.35 473.931 357.13C473.011 356.85 472.261 356.26 471.931 355.48L453.311 316.01C453.261 315.91 453.231 315.8 453.231 315.68C453.211 315.15 453.741 314.7 454.401 314.68V314.69Z" fill="white"/>
<path d="M478.59 335.29C479.49 337.18 481.25 338.45 482.52 338.14C483.79 337.83 484.08 336.08 483.2 334.18C482.32 332.28 480.55 331.04 479.27 331.35C478 331.66 477.66 333.35 478.58 335.29H478.59Z" fill="white"/>
<g opacity="0.3">
<path d="M496.931 315.37L514.851 353.35L513.031 353.4L493.631 313.53C495.121 313.49 496.461 314.23 496.931 315.36V315.37Z" fill="black"/>
</g>
<path d="M564.85 259.83C564.85 259.83 560.69 251.59 563.38 237.95C561.73 237.18 563.91 233.77 563.84 232.4L546.63 245.24C547.43 249.46 546.62 257.81 546.01 261.36L552.65 267.39L564.84 259.83H564.85Z" fill="#EBB373"/>
<path opacity="0.2" d="M547.089 247.771L557.069 246.971C555.389 249.931 554.199 252.531 546.899 252.831C546.899 252.831 546.839 249.181 547.089 247.761V247.771Z" fill="black"/>
<path d="M540.211 207.14C537.141 210.76 535.811 221.2 542.801 220.86C549.801 220.53 545.481 200.92 540.211 207.14Z" fill="#263238"/>
<path d="M569.001 226.56C565.131 237.54 563.171 243.82 555.891 247.89C525.431 260.25 528.741 208.08 552.301 205.09C564.321 203.89 572.871 215.57 569.001 226.56Z" fill="#EBB373"/>
<path d="M578.022 212.63C576.442 201.92 559.042 202.46 553.832 204.38C553.052 204.67 560.892 211.87 560.392 211.5L564.272 214.22C569.742 216.99 559.872 225.81 564.582 235.37C574.992 234.02 578.822 220.44 578.022 212.63Z" fill="#263238"/>
<path d="M570.76 237.14C567.75 242.75 556.83 244.23 559.67 235.57C561.9 227.05 575.13 227.1 570.76 237.14Z" fill="#EBB373"/>
<path d="M552.331 225.27C551.581 227.98 548.831 227.14 549.631 224.47C550.381 221.76 553.131 222.6 552.331 225.27Z" fill="#263238"/>
<path d="M540.731 222.251C539.981 224.961 537.231 224.121 538.031 221.451C538.781 218.741 541.531 219.581 540.731 222.251Z" fill="#263238"/>
<path d="M544.63 222.66C544.63 222.66 539.39 227.31 537.57 229.3C538.75 231.19 541.68 231.31 541.68 231.31L544.63 222.66Z" fill="#E4873E"/>
<path d="M556.411 220.64C556.221 220.66 556.021 220.58 555.891 220.41C554.421 218.4 552.371 218.47 552.351 218.47C550.131 217 554.751 216.68 556.791 219.76C557.051 220.09 556.821 220.6 556.411 220.64Z" fill="#263238"/>
<path opacity="0.2" d="M563.031 235.46C563.031 235.46 562.981 235.46 562.951 235.45C562.821 235.41 562.751 235.27 562.791 235.14C563.321 233.48 565.281 231.86 566.911 231.74C567.671 231.69 568.671 231.9 569.311 233.21C569.371 233.33 569.311 233.48 569.201 233.54C569.081 233.6 568.931 233.55 568.871 233.43C568.451 232.58 567.811 232.18 566.951 232.24C565.531 232.34 563.741 233.83 563.271 235.29C563.241 235.4 563.141 235.46 563.031 235.46Z" fill="black"/>
<path d="M537.22 216.021C536.84 215.831 536.83 215.231 537.22 215.031C539.91 213.561 542.16 214.781 542.27 214.821C542.9 215.151 542.38 216.151 541.75 215.811C541.45 215.331 539.28 215.381 537.23 216.021H537.22Z" fill="#263238"/>
<path d="M573.531 229.77C573.531 229.77 565.811 218.74 556.381 213.6C545.941 207.91 538.301 209.6 538.301 209.6C538.301 209.6 536.511 207.85 537.661 206.86C538.811 205.87 539.881 206.74 539.881 206.74C539.881 206.74 551.081 194.81 564.441 198.62C577.811 202.43 582.261 210.69 581.721 211.29C578.971 214.34 577.391 209.61 577.391 209.61C577.391 209.61 580.641 213.94 576.891 222.8L575.781 226.27C575.781 226.27 576.701 230.32 573.521 229.78L573.531 229.77Z" fill="#263238"/>
<path opacity="0.7" d="M573.531 229.77C573.531 229.77 565.811 218.74 556.381 213.6C545.941 207.91 538.301 209.6 538.301 209.6C538.301 209.6 536.511 207.85 537.661 206.86C538.811 205.87 539.881 206.74 539.881 206.74C539.881 206.74 551.081 194.81 564.441 198.62C577.811 202.43 582.261 210.69 581.721 211.29C578.971 214.34 577.391 209.61 577.391 209.61C577.391 209.61 580.641 213.94 576.891 222.8L575.781 226.27C575.781 226.27 576.701 230.32 573.521 229.78L573.531 229.77Z" fill="white"/>
<path d="M556.16 213.11C554.73 212.63 553.67 211.2 553.63 209.69C553.6 208.7 553.96 207.75 554.22 206.79C554.47 205.83 554.61 204.77 554.16 203.88C553.77 203.13 552.96 202.61 552.11 202.58C551.26 202.55 550.42 203.01 549.98 203.73C550.3 203.13 550.081 202.37 549.641 201.86C549.201 201.35 548.571 201.04 547.961 200.75C546.871 200.22 545.64 199.67 544.47 200.02C543.3 200.37 542.57 201.52 542.16 202.67C541.64 204.15 541.501 205.81 542.031 207.28C542.741 209.26 544.57 210.66 546.54 211.38C548.51 212.1 550.64 212.22 552.74 212.34" fill="#263238"/>
<path opacity="0.2" d="M577.821 210.38C577.821 210.38 576.301 205.31 570.031 202.77L577.821 210.38Z" fill="black"/>
<path opacity="0.3" d="M575.05 226.049C571.28 218.649 563.4 211.18 555.43 207.46L555.54 207.229C563.55 210.969 571.48 218.479 575.28 225.929L575.06 226.039L575.05 226.049Z" fill="black"/>
<path d="M542.571 235.48C543.391 236.92 544.101 238.43 544.711 239.97C544.991 239.91 545.291 239.86 545.571 239.78C549.451 238.91 550.971 237.23 551.451 235.62C551.671 234.83 551.711 234 551.551 233.19C551.471 232.73 551.331 232.29 551.131 231.87C549.351 233.56 545.801 234.65 543.881 235.15C543.041 235.33 542.561 235.47 542.561 235.47L542.571 235.48Z" fill="#263238"/>
<path d="M543.84 235.12L544.51 236.43C548.15 235.6 550.61 234.55 551.51 233.16C551.43 232.7 551.29 232.26 551.09 231.84C549.3 233.55 545.76 234.62 543.84 235.12Z" fill="white"/>
<path d="M545.521 239.75C549.401 238.88 550.921 237.2 551.401 235.59C549.931 235.95 548.541 236.56 547.291 237.4C546.471 237.98 545.851 238.8 545.521 239.74V239.75Z" fill="#C15854"/>
<path d="M497.342 398.25L472.212 403.06L467.852 392.76L494.152 383.7L497.342 398.25Z" fill="#EBB373"/>
<path d="M461.14 408.64L457.52 401.69C457.52 401.69 458.45 400.35 457.73 398.86C457.32 398.02 455.16 396.68 455.16 396.68L445.07 377.64C445.07 377.64 446.37 376.94 447.05 376.86C447.87 376.75 448.61 376.74 449.28 376.81C451.61 377.05 453.49 378.81 454.84 380.16C457.09 382.42 464.81 387.95 464.81 387.95C464.81 387.95 466.98 389.24 470.31 389.04C472.17 388.93 473.68 389.58 474.22 390.35C475.33 391.92 474.82 393.38 473.38 394.44L471.7 395.67C471.38 397.48 472.32 399.15 474.23 399.81C474.23 399.81 478.22 402.27 476.32 403.02C475.23 403.44 470.3 405.16 466.44 406.63C465.54 406.97 464.69 407.3 463.94 407.58C462.28 408.21 461.15 408.64 461.15 408.64H461.14Z" fill="#263238"/>
<path d="M460.821 384.87C460.941 384.92 461.021 385.04 461.011 385.17C460.971 385.77 460.771 386.37 460.401 386.89C460.211 387.16 459.741 386.89 459.931 386.61C460.251 386.15 460.431 385.63 460.471 385.1C460.481 384.92 460.651 384.81 460.811 384.87H460.821Z" fill="#217DD2"/>
<path d="M462.391 385.92C462.511 385.97 462.591 386.09 462.581 386.22C462.541 386.82 462.341 387.42 461.971 387.94C461.781 388.21 461.311 387.94 461.501 387.66C461.821 387.2 462.001 386.68 462.041 386.15C462.051 385.97 462.221 385.86 462.381 385.92H462.391Z" fill="#217DD2"/>
<path d="M463.93 387.05C464.05 387.09 464.13 387.22 464.12 387.35C464.08 387.95 463.88 388.55 463.51 389.07C463.32 389.34 462.85 389.07 463.04 388.79C463.36 388.33 463.54 387.81 463.58 387.28C463.59 387.1 463.76 386.99 463.92 387.05H463.93Z" fill="#217DD2"/>
<path opacity="0.2" d="M457.73 398.86C457.32 398.02 455.16 396.68 455.16 396.68L445.07 377.64C445.07 377.64 446.37 376.94 447.05 376.86C447.43 376.81 447.79 376.79 448.13 376.78L464.36 407.42C464.22 407.47 464.07 407.53 463.94 407.58C462.28 408.21 461.14 408.64 461.14 408.64L457.52 401.69C457.52 401.69 458.45 400.35 457.73 398.86Z" fill="white"/>
<path d="M463.639 387.549L463.679 387.319C463.779 386.799 464.149 385.069 464.609 384.429C465.079 383.779 465.739 383.359 466.429 383.269C466.809 383.219 467.309 383.299 467.529 383.669C467.699 383.949 467.679 384.349 467.459 384.789C467.139 385.419 466.609 385.979 465.879 386.449C465.239 386.869 464.529 387.159 463.849 387.449L463.629 387.539L463.639 387.549ZM466.649 383.509C466.589 383.509 466.529 383.509 466.469 383.519C465.849 383.599 465.249 383.989 464.819 384.579C464.499 385.019 464.189 386.149 463.979 387.139C464.589 386.879 465.199 386.609 465.759 386.249C466.449 385.799 466.949 385.279 467.249 384.689C467.349 384.479 467.499 384.089 467.329 383.809C467.199 383.589 466.919 383.509 466.659 383.509H466.649Z" fill="#217DD2"/>
<path d="M467.24 389.94C466.8 389.94 466.35 389.83 465.91 389.62C465.21 389.28 464.07 387.91 463.74 387.5L463.59 387.32L463.82 387.3C464.57 387.24 465.33 387.17 466.09 387.24C466.96 387.32 467.68 387.57 468.26 387.98C468.66 388.26 468.87 388.6 468.84 388.94C468.81 389.38 468.41 389.68 468.05 389.81C467.79 389.9 467.51 389.95 467.23 389.95L467.24 389.94ZM464.09 387.52C464.74 388.3 465.54 389.15 466.02 389.39C466.67 389.71 467.39 389.77 467.97 389.56C468.26 389.45 468.58 389.23 468.6 388.91C468.62 388.58 468.31 388.31 468.12 388.17C467.58 387.79 466.9 387.55 466.07 387.48C465.41 387.42 464.74 387.46 464.08 387.52H464.09Z" fill="#217DD2"/>
<path d="M591.89 383.94C597.08 375.11 608.7 351.24 583.58 347.4C558.47 343.56 476.18 385.68 476.18 385.68L481.94 401.45L559.26 386.91C559.26 386.91 549.05 401.41 561.92 400.39C580.62 397.98 584.99 393.36 591.89 383.94Z" fill="#263238"/>
<path opacity="0.2" d="M557.431 387.39L578.541 380.06C578.541 380.06 560.981 391.52 554.461 393.02L557.421 387.39H557.431Z" fill="black"/>
<path d="M403.49 176.021L411.05 167.271L418.75 169.991L413.5 180.23L403.49 176.021Z" fill="#EEC1BB"/>
<path d="M409.911 166.54C409.911 166.54 409.251 162.58 411.221 159.9C413.181 157.22 414.041 154.56 415.631 152.67C417.231 150.78 417.261 154.12 416.921 155.9C416.581 157.68 416.211 159.7 417.591 159.74C418.971 159.78 429.421 154.17 431.331 154.45C433.241 154.72 431.831 156.16 431.831 156.16C431.831 156.16 434.411 154.87 435.201 155.75C435.411 155.98 435.511 156.84 434.431 157.62C432.001 159.36 426.701 162.75 426.701 162.75C427.001 162.55 433.831 158.83 434.931 158.41C436.361 157.86 437.321 158.33 437.611 159.17C438.031 160.37 429.711 165.26 429.511 165.71C429.511 165.71 434.201 162.73 435.631 163.52C437.061 164.31 434.211 166.35 431.361 167.66C428.741 168.87 423.921 171.92 421.141 172.89C417.711 174.08 415.151 174.12 412.801 171.66C410.451 169.2 409.911 166.55 409.911 166.55V166.54Z" fill="#EEC1BB"/>
<path opacity="0.3" d="M425.562 159.98C425.562 159.98 425.482 159.96 425.462 159.92C425.422 159.86 425.442 159.78 425.502 159.75C427.432 158.48 429.442 157.29 431.472 156.21C431.532 156.18 431.612 156.21 431.642 156.26C431.672 156.32 431.642 156.4 431.592 156.43C429.572 157.51 427.562 158.7 425.642 159.96C425.622 159.97 425.602 159.98 425.572 159.98H425.562Z" fill="black"/>
<path opacity="0.3" d="M427.78 167.1C427.72 167.1 427.67 167.06 427.66 167C427 164.13 425.46 161.43 423.33 159.4C423.28 159.35 423.28 159.27 423.33 159.22C423.38 159.17 423.46 159.17 423.51 159.22C425.68 161.28 427.25 164.03 427.92 166.95C427.94 167.02 427.89 167.08 427.83 167.1C427.83 167.1 427.81 167.1 427.8 167.1H427.78Z" fill="black"/>
<path opacity="0.3" d="M415.132 167.72C415.132 167.72 415.052 167.7 415.022 167.66C414.992 167.6 415.012 167.52 415.072 167.49C416.092 166.9 416.902 165.92 417.312 164.81C417.722 163.7 417.722 162.43 417.332 161.32C417.312 161.25 417.342 161.18 417.412 161.16C417.482 161.14 417.552 161.17 417.572 161.24C417.982 162.41 417.982 163.74 417.552 164.9C417.132 166.06 416.272 167.09 415.202 167.71C415.182 167.72 415.162 167.73 415.142 167.73L415.132 167.72Z" fill="black"/>
<path d="M436.45 318.21L440.36 306.5L412.07 290.72L405.93 308.48L436.45 318.21Z" fill="#EEC1BB"/>
<path d="M436.871 302.419L434.791 306.279C434.321 307.149 434.331 308.199 434.761 309.099C436.601 312.959 434.561 314.019 430.391 314.899C429.381 316.339 430.931 317.709 431.331 318.089L440.281 326.619C441.021 327.339 442.211 327.329 442.931 326.579C443.061 326.449 443.171 326.299 443.251 326.129C445.771 321.439 446.961 319.219 450.101 313.379L459.701 295.529C462.321 290.659 457.951 287.019 456.421 288.779C449.581 296.719 443.501 301.679 439.381 303.059C438.641 303.329 438.581 302.609 436.861 302.409L436.871 302.419Z" fill="#263238"/>
<path d="M444.361 295.639C444.291 295.079 443.951 294.579 443.451 294.309C443.201 294.129 442.871 294.109 442.601 294.259C441.091 295.009 440.751 301.049 440.731 301.739C440.721 301.809 440.741 301.879 440.791 301.939C440.881 302.039 441.031 302.049 441.131 301.959C442.051 300.919 442.861 299.799 443.541 298.589C444.121 297.719 444.411 296.689 444.361 295.649V295.639ZM442.801 294.749C442.911 294.679 443.061 294.699 443.161 294.779C443.511 294.989 443.751 295.349 443.821 295.749C444.051 297.289 442.271 299.749 441.241 301.029C441.431 298.549 441.971 295.169 442.801 294.749Z" fill="#217DD2"/>
<path d="M441.27 301.81C441.44 300.03 440.69 295.72 439.35 295.2C439.07 295.08 438.65 295.1 438.21 295.71C436.48 298.2 440.63 301.88 440.83 301.99C440.9 302.06 441 302.08 441.09 302.05C441.13 302.01 441.16 301.96 441.17 301.9L441.27 301.81ZM438.55 296.01C438.86 295.55 439.04 295.64 439.1 295.67C439.94 295.94 440.74 299.22 440.72 301.24C439.79 300.32 437.53 297.85 438.44 296.18L438.55 296.01Z" fill="#217DD2"/>
<path d="M441.65 305.999C441.56 305.999 441.48 305.949 441.43 305.869C440.64 304.479 440.5 302.749 441.06 301.239C441.11 301.109 441.25 301.039 441.38 301.089C441.51 301.139 441.57 301.279 441.53 301.409C441.02 302.779 441.15 304.349 441.86 305.619C441.93 305.739 441.89 305.889 441.77 305.959C441.73 305.979 441.69 305.989 441.65 305.989V305.999Z" fill="#217DD2"/>
<path d="M444.742 304.57C444.652 304.57 444.572 304.52 444.522 304.44C443.732 303.05 443.592 301.32 444.152 299.81C444.202 299.68 444.342 299.62 444.472 299.66C444.602 299.71 444.662 299.85 444.622 299.98C444.112 301.35 444.232 302.92 444.952 304.19C445.022 304.31 444.982 304.46 444.862 304.53C444.822 304.55 444.782 304.56 444.742 304.56V304.57Z" fill="#217DD2"/>
<path d="M447.871 302.399C447.781 302.399 447.701 302.349 447.651 302.269C446.861 300.879 446.721 299.149 447.281 297.639C447.331 297.509 447.471 297.439 447.601 297.489C447.731 297.539 447.791 297.679 447.751 297.809C447.241 299.179 447.371 300.749 448.081 302.019C448.151 302.139 448.111 302.289 447.991 302.359C447.951 302.379 447.911 302.389 447.871 302.389V302.399Z" fill="#217DD2"/>
<path opacity="0.3" d="M427.021 299.06L430.491 301L425.111 314.59L421.051 313.3L427.021 299.06Z" fill="black"/>
<path d="M348.4 239.68L362.51 248.31C380.63 249.21 441.87 249.71 442.05 271.5C448.06 297.18 392.61 294.73 355.74 295.09C355.49 295.09 355.28 295.24 355.13 295.48C354.8 295.99 351.23 297.82 346.66 298.55C341.03 299.44 328.16 300.23 319.89 298.92C305.62 296.66 301.51 283.11 304.24 264.05C305.36 256.22 309.69 249.86 311 240.1L348.4 239.69V239.68Z" fill="#263238"/>
<path opacity="0.2" d="M309.73 268.659L309.82 269.549C309.82 269.549 356.46 261.829 384.87 280.499C384.87 280.499 415.66 272.949 421.92 267.199C387.82 285.139 357.28 264.369 357.28 264.369L342.24 257.649C329.95 252.159 317.57 256.349 309.74 268.659H309.73Z" fill="black"/>
<path d="M362.531 298.869L367.921 309.969L399.181 301.479L391.161 284.479L362.531 298.869Z" fill="#EEC1BB"/>
<path d="M374.819 309.73L372.239 306.18C371.659 305.38 370.709 304.93 369.719 304.93C365.439 304.92 365.379 302.61 366.379 298.48C365.519 296.95 363.619 297.75 363.099 297.95L351.529 302.32C350.559 302.68 350.059 303.75 350.409 304.73C350.469 304.9 350.559 305.07 350.669 305.21C353.799 309.52 355.289 311.55 359.189 316.91L371.119 333.3C374.369 337.77 379.549 335.42 378.619 333.27C374.429 323.66 372.599 316.03 373.139 311.72C373.219 310.94 373.889 311.2 374.819 309.73Z" fill="#263238"/>
<path d="M377.668 319.421C378.208 319.601 378.798 319.511 379.268 319.181C379.538 319.031 379.698 318.741 379.678 318.441C379.658 316.761 374.358 313.831 373.758 313.511C373.698 313.471 373.618 313.461 373.548 313.481C373.418 313.521 373.348 313.651 373.378 313.781C373.908 315.061 374.578 316.271 375.368 317.411C375.898 318.311 376.708 319.011 377.668 319.421ZM379.138 318.401C379.138 318.531 379.078 318.651 378.958 318.711C378.608 318.931 378.188 319.001 377.798 318.891C376.308 318.431 374.868 315.761 374.158 314.281C376.308 315.531 379.128 317.481 379.148 318.411L379.138 318.401Z" fill="#217DD2"/>
<path d="M373.449 313.96C374.969 314.89 379.189 316.08 380.239 315.09C380.469 314.89 380.629 314.51 380.269 313.85C378.779 311.22 373.659 313.35 373.469 313.49C373.379 313.52 373.309 313.6 373.299 313.7C373.319 313.76 373.349 313.8 373.399 313.84L373.439 313.97L373.449 313.96ZM379.849 314.03C380.129 314.51 379.969 314.63 379.909 314.67C379.299 315.31 376.009 314.61 374.189 313.72C375.429 313.28 378.619 312.32 379.739 313.86L379.849 314.03Z" fill="#217DD2"/>
<path d="M373.868 314.441C373.798 314.441 373.738 314.41 373.688 314.36C372.678 313.31 371.208 312.741 369.758 312.841C369.618 312.861 369.498 312.74 369.488 312.61C369.488 312.47 369.578 312.351 369.718 312.341C371.318 312.221 372.938 312.86 374.048 314.02C374.148 314.12 374.138 314.281 374.048 314.371C373.998 314.421 373.938 314.441 373.878 314.441H373.868Z" fill="#217DD2"/>
<path d="M373.818 317.851C373.748 317.851 373.688 317.821 373.638 317.771C372.628 316.721 371.158 316.151 369.708 316.251C369.588 316.271 369.448 316.161 369.438 316.021C369.428 315.881 369.538 315.761 369.668 315.751C371.268 315.641 372.888 316.271 373.998 317.431C374.098 317.531 374.088 317.691 373.998 317.781C373.948 317.831 373.888 317.851 373.828 317.851H373.818Z" fill="#217DD2"/>
<path d="M374.419 321.601C374.349 321.601 374.289 321.571 374.239 321.521C373.229 320.471 371.759 319.901 370.309 320.001C370.189 320.021 370.049 319.911 370.039 319.771C370.039 319.631 370.129 319.511 370.269 319.501C371.869 319.381 373.489 320.021 374.599 321.181C374.699 321.281 374.689 321.441 374.599 321.531C374.549 321.581 374.489 321.601 374.429 321.601H374.419Z" fill="#217DD2"/>
<path d="M428.01 298.059C428.01 298.059 356.22 257.869 331.56 257.109C306.9 256.349 304.11 274.949 313.18 289.279C322.25 303.599 345.01 296.659 345.01 296.659C345.01 296.659 327.01 292.099 329.24 287.219C331.47 282.339 338.12 289.909 338.12 289.909C338.12 289.909 381.74 307.819 420.66 314.169L428.02 298.059H428.01Z" fill="#263238"/>
<path opacity="0.2" d="M391.02 278.159L414.13 291.499L416.57 291.239L394.69 277.459L391.02 278.159Z" fill="black"/>
<path opacity="0.2" d="M354.349 296.05C354.349 296.05 331.059 286.81 331.319 286.81C331.579 286.81 345.999 297.62 350.719 297.57L354.349 296.05Z" fill="black"/>
<path d="M359.291 170.25C359.291 170.25 362.101 169.6 372.401 181.61C379.391 189.76 390.011 195.76 390.011 195.76C390.921 193.8 406.971 170.25 406.971 170.25L417.181 176.05C417.181 176.05 402.191 214.81 392.441 216.34C382.691 217.86 359.971 198.27 359.971 198.27L359.281 170.26L359.291 170.25Z" fill="#217DD2"/>
<path d="M303.251 184.5C307.691 197.84 307.901 227.98 306.331 244.63H361.261C369.921 211.41 362.421 187.79 361.681 180.01C360.761 170.54 359.301 170.18 359.301 170.18C359.301 170.18 349.031 169.18 340.091 169.25C333.171 169.51 326.271 170.26 319.461 171.49C314.391 172.34 309.371 173.47 304.421 174.87C302.301 175.47 301.071 177.68 301.671 179.81C301.691 179.88 301.711 179.94 301.731 180.01C302.261 181.5 302.771 183.03 303.251 184.51V184.5Z" fill="#217DD2"/>
<path opacity="0.2" d="M306.32 244.63C307.63 229.12 317.69 211.23 316.11 195.75C320.78 202.39 322.33 215.42 324.23 229.97C324.85 234.71 342.05 239.5 342.86 244.4L306.32 244.63Z" fill="black"/>
<path d="M315.009 173.26C312.449 176.92 343.939 182.81 343.939 182.81C343.939 182.81 362.369 170.85 340.849 168.99C336.459 168.6 319.059 167.51 315.009 173.26Z" fill="#CD877B"/>
<path d="M344.97 189.59C344.97 189.59 361.94 175.59 353.16 167.2C344.38 158.82 303.04 155.07 306.54 174.16C306.54 174.16 311.86 172.59 317.23 177.71C328.55 188.54 344.98 189.59 344.98 189.59H344.97Z" fill="#217DD2"/>
<path opacity="0.2" d="M343.55 185.56C343.55 185.56 353.16 178.1 349.77 171.37C346.39 164.65 326.4 157.28 312.07 166.55C315.5 168.31 318.7 170.51 321.56 173.09C327.24 177.95 343.54 185.55 343.54 185.55L343.55 185.56Z" fill="black"/>
<path opacity="0.2" d="M339.9 186.51C339.9 187.04 339.48 187.48 338.95 187.48C338.42 187.48 337.98 187.06 337.98 186.53C337.98 186 338.4 185.56 338.93 185.56C338.93 185.56 338.95 185.56 338.96 185.56C339.48 185.56 339.9 185.99 339.91 186.51H339.9Z" fill="black"/>
<path opacity="0.2" d="M349.479 183.75C349.479 184.27 349.069 184.7 348.549 184.71H348.539C348.009 184.77 347.529 184.4 347.469 183.87C347.409 183.34 347.779 182.86 348.309 182.8C348.389 182.8 348.459 182.8 348.539 182.8C349.059 182.8 349.489 183.22 349.489 183.75H349.479Z" fill="black"/>
<path d="M358.4 193.36C358.4 193.89 357.98 194.33 357.45 194.33C356.92 194.33 356.48 193.91 356.48 193.38C356.48 192.85 356.9 192.41 357.43 192.41H357.44C357.97 192.41 358.39 192.83 358.4 193.36Z" fill="#263238"/>
<path d="M337.73 198.26C337.73 198.78 337.31 199.21 336.78 199.21C336.26 199.21 335.83 198.79 335.83 198.26C335.83 197.73 336.25 197.31 336.78 197.31C337.3 197.31 337.73 197.73 337.73 198.26Z" fill="#263238"/>
<path d="M357.22 193.76C357.22 193.76 353.5 193.26 352.86 188.51C352.78 186.21 350.9 184.39 348.6 184.4C348.41 184.4 348.24 184.26 348.24 184.07C348.22 183.89 348.36 183.72 348.55 183.71H348.58C351.22 183.71 353.41 185.77 353.56 188.41C354.12 192.59 357.28 193.06 357.3 193.07C357.49 193.09 357.62 193.26 357.61 193.45C357.58 193.64 357.41 193.77 357.22 193.76Z" fill="#263238"/>
<path d="M336.781 198.259C336.591 198.259 336.441 198.109 336.431 197.929C336.351 195.489 337.251 193.109 338.921 191.329C339.581 190.749 339.961 189.929 339.991 189.059C339.921 188.189 339.541 187.359 338.931 186.739C338.771 186.629 338.741 186.409 338.851 186.249C338.961 186.089 339.181 186.059 339.341 186.169C339.371 186.189 339.391 186.209 339.411 186.239C340.161 186.979 340.621 187.969 340.691 189.019C340.671 190.079 340.211 191.089 339.421 191.799C337.901 193.439 337.071 195.619 337.121 197.859C337.121 198.049 336.991 198.209 336.801 198.239L336.771 198.269L336.781 198.259Z" fill="#263238"/>
<path d="M373.701 270.23L376.461 270.73C376.461 270.73 375.691 268.25 385.481 265C395.271 261.75 405.011 259.99 405.011 259.99C405.011 259.99 387.321 259.1 386.861 259.1C386.401 259.1 370.031 264.91 370.031 264.91L373.701 270.22V270.23Z" fill="#217DD2"/>
<path d="M366.7 252.17C367.19 252.17 405.02 259.99 405.02 259.99C405.02 259.99 378.72 259.03 373.71 270.23L343.09 257.66C343.09 257.66 351.67 251.95 366.7 252.18V252.17Z" fill="#EBEBEB"/>
<path d="M430.491 252.17V253.82C430.491 253.82 413.501 251.85 405.011 260L404.551 256.09L415.811 250.92L430.491 252.17Z" fill="#217DD2"/>
<path d="M396.121 244.53C396.121 244.53 375.601 239.1 368.051 252.43L405.011 260C405.011 260 406.721 249.84 430.491 252.17L396.121 244.53Z" fill="#EBEBEB"/>
<path d="M302.79 175.72C301.92 176.03 296.29 180.74 296.56 191.78C296.96 207.96 300.94 241.48 302.79 244.63C304.64 247.78 353.61 261.5 354.34 262.3C355.07 263.1 357.61 253.75 357.61 253.75L319.9 229.83C319.9 229.83 317.67 196.13 316.78 191.08C315.89 186.03 313.32 171.94 302.79 175.72Z" fill="#217DD2"/>
<path d="M357.18 255.279L359.29 256.229C359.29 256.229 369.27 255.439 371.8 257.959C374.33 260.479 375.75 271.989 375.75 271.989L354.34 262.299L357.18 255.279Z" fill="#EEC1BB"/>
<path d="M322.64 174.34C322.64 174.34 327.19 177.35 333.61 181.25C334.95 182.06 341.77 185.07 343.26 185.56L346.02 183.19C346.16 182.77 346.24 182.32 346.28 181.86C346.56 178.76 345.55 174.64 342.83 173.13C339.76 171.43 338.15 169.8 338.16 166.8C338.14 165.1 338.46 163.3 338.88 161.52L335.44 160.16L322.43 150.77C324.85 157.45 327.83 169.28 322.64 174.33V174.34Z" fill="#EEC1BB"/>
<path opacity="0.2" d="M338.17 167.459C334.8 166.149 330.92 163.559 330.72 159.879C330.65 158.329 330.73 156.839 330.95 155.859L338.54 163.059C338.25 164.469 338.21 165.379 338.17 167.449V167.459Z" fill="black"/>
<path d="M318.159 138.459C321.109 149.729 322.119 154.549 329.029 159.569C339.419 167.119 352.579 161.809 353.039 150.069C353.459 139.509 348.559 122.849 336.519 119.909C324.659 117.009 315.199 127.189 318.159 138.459Z" fill="#EEC1BB"/>
<path d="M334.208 139.649C334.468 140.849 335.288 141.739 336.038 141.629C336.798 141.519 337.198 140.459 336.938 139.259C336.678 138.059 335.858 137.169 335.108 137.279C334.348 137.389 333.948 138.449 334.208 139.649Z" fill="#263238"/>
<path d="M345.819 137.65C346.069 138.81 346.889 139.67 347.639 139.56C348.389 139.45 348.799 138.42 348.549 137.25C348.299 136.09 347.479 135.23 346.729 135.34C345.979 135.45 345.569 136.48 345.819 137.65Z" fill="#263238"/>
<path d="M330.508 135.899C330.658 135.899 330.798 135.829 330.898 135.699C332.388 133.769 334.468 134.019 334.498 134.019C334.808 134.059 335.078 133.839 335.098 133.529C335.118 133.219 334.878 132.939 334.558 132.889C334.448 132.879 331.838 132.569 329.988 134.959C329.808 135.199 329.858 135.559 330.108 135.759C330.228 135.859 330.378 135.899 330.518 135.889L330.508 135.899Z" fill="#263238"/>
<path d="M347.729 131.429C347.839 131.369 347.919 131.269 347.949 131.139C348.009 130.859 347.829 130.559 347.539 130.449C344.679 129.409 342.929 130.859 342.849 130.919C342.639 131.099 342.639 131.429 342.849 131.669C343.059 131.909 343.389 131.959 343.599 131.779C343.669 131.719 345.049 130.629 347.319 131.449C347.469 131.499 347.609 131.489 347.729 131.429Z" fill="#263238"/>
<path d="M341.719 137.759C341.719 137.759 344.219 141.749 346.689 144.079C347.119 144.489 347.019 145.209 346.499 145.499C345.169 146.259 343.439 146.059 343.439 146.059L341.719 137.759Z" fill="#D4827D"/>
<path d="M334.688 137.4L337.207 136.34C337.207 136.34 336.097 138.54 334.688 137.4Z" fill="#263238"/>
<path d="M346.338 135.459L348.858 134.399C348.858 134.399 347.748 136.599 346.338 135.459Z" fill="#263238"/>
<path d="M323.069 153.45C284.699 129.69 327.589 113.55 327.589 113.55C344.819 101.48 345.419 119.83 345.419 119.83C354.049 128.84 341.829 136.72 341.829 136.72C346.979 129.31 339.009 124.89 339.009 124.89C340.229 134.74 330.629 138.6 330.629 138.6C334.389 129.72 331.989 125.12 331.989 125.12C329.239 140.95 321.319 144.13 321.319 144.13L323.069 153.45Z" fill="#263238"/>
<path d="M316.248 148.369C317.988 150.489 320.428 151.599 322.528 151.769C325.688 152.029 326.438 146.889 324.898 144.029C323.508 141.449 320.238 140.139 317.388 141.229C314.578 142.299 314.258 145.949 316.248 148.369Z" fill="#EEC1BB"/>
<path opacity="0.2" d="M323.82 146.8C323.71 146.8 323.61 146.72 323.58 146.61C323.35 145.71 322.88 144.87 322.21 144.2C321.78 143.76 321.08 143.22 320.22 143.13C319.44 143.05 318.66 143.41 318.36 144C318.3 144.12 318.15 144.17 318.02 144.11C317.9 144.05 317.85 143.9 317.91 143.77C318.31 143 319.28 142.52 320.27 142.63C321.28 142.74 322.08 143.35 322.57 143.85C323.3 144.59 323.81 145.5 324.06 146.49C324.09 146.62 324.01 146.76 323.88 146.79C323.86 146.79 323.84 146.79 323.82 146.79V146.8Z" fill="black"/>
<path d="M343.241 150.209C342.381 151.319 341.591 152.499 340.901 153.729C340.671 153.649 340.431 153.559 340.201 153.469C337.051 152.269 335.971 150.669 335.761 149.259C335.671 148.569 335.741 147.859 335.971 147.199C336.091 146.829 336.261 146.469 336.481 146.139C337.771 147.779 340.621 149.119 342.171 149.779C342.851 150.029 343.241 150.209 343.241 150.209Z" fill="#263238"/>
<path d="M342.221 149.759L341.501 150.779C338.541 149.639 336.611 148.459 336.021 147.179C336.141 146.809 336.311 146.449 336.531 146.119C337.831 147.769 340.671 149.099 342.221 149.759Z" fill="white"/>
<path d="M340.241 153.449C337.091 152.249 336.011 150.649 335.801 149.239C336.991 149.719 338.091 150.399 339.041 151.259C339.661 151.849 340.081 152.609 340.241 153.439V153.449Z" fill="#C15854"/>
<path d="M259.229 389.44L272.078 412.94L283.298 409.6L273.108 382.33L259.229 389.44Z" fill="#895555"/>
<path d="M274.949 425.599L282.969 423.889C282.969 423.889 283.429 422.249 285.119 421.839C286.069 421.609 288.589 422.459 288.589 422.459L310.689 417.929C310.689 417.929 310.379 416.409 309.999 415.809C309.539 415.069 309.049 414.469 308.549 413.969C306.799 412.249 304.129 411.899 302.139 411.709C298.809 411.389 289.209 408.849 289.209 408.849C289.209 408.849 286.719 407.959 284.659 405.129C283.509 403.559 281.979 402.759 280.999 402.839C278.999 402.989 278.159 404.369 278.259 406.239L278.379 408.409C277.129 409.879 275.159 410.219 273.349 409.129C273.349 409.129 268.699 407.549 269.369 409.579C269.749 410.739 271.649 415.869 273.029 419.959C273.349 420.909 273.659 421.819 273.919 422.609C274.509 424.369 274.919 425.579 274.919 425.579L274.949 425.599Z" fill="#263238"/>
<path d="M294.36 410.03C294.24 409.96 294.09 409.98 293.99 410.08C293.53 410.52 293.19 411.07 293.01 411.72C292.92 412.06 293.46 412.25 293.55 411.91C293.71 411.34 294.01 410.85 294.41 410.47C294.54 410.34 294.53 410.14 294.37 410.04L294.36 410.03Z" fill="#217DD2"/>
<path d="M292.469 409.459C292.349 409.389 292.199 409.409 292.099 409.509C291.639 409.949 291.299 410.499 291.119 411.149C291.029 411.489 291.569 411.679 291.659 411.339C291.819 410.769 292.119 410.279 292.519 409.899C292.649 409.769 292.639 409.569 292.479 409.469L292.469 409.459Z" fill="#217DD2"/>
<path d="M290.528 408.969C290.408 408.899 290.258 408.919 290.158 409.019C289.698 409.459 289.358 410.009 289.178 410.659C289.088 410.999 289.628 411.189 289.718 410.849C289.878 410.279 290.178 409.789 290.578 409.409C290.708 409.279 290.698 409.079 290.538 408.979L290.528 408.969Z" fill="#217DD2"/>
<path opacity="0.2" d="M285.119 421.84C286.069 421.61 288.589 422.46 288.589 422.46L310.689 417.93C310.689 417.93 310.379 416.41 309.999 415.81C309.789 415.47 309.569 415.17 309.349 414.88L273.789 422.18C273.839 422.32 273.889 422.48 273.939 422.62C274.529 424.38 274.939 425.59 274.939 425.59L282.959 423.88C282.959 423.88 283.419 422.24 285.109 421.83L285.119 421.84Z" fill="white"/>
<path d="M290.329 409.53L290.259 409.3C290.039 408.55 289.809 407.78 289.719 406.99C289.619 406.09 289.719 405.29 290.009 404.61C290.219 404.14 290.519 403.86 290.859 403.81C291.309 403.75 291.699 404.09 291.909 404.43C292.289 405.05 292.389 405.86 292.179 406.67C291.979 407.46 290.819 408.92 290.469 409.34L290.319 409.52L290.329 409.53ZM290.969 404.06C290.969 404.06 290.919 404.06 290.899 404.06C290.549 404.11 290.339 404.49 290.239 404.71C289.959 405.34 289.869 406.1 289.969 406.96C290.049 407.65 290.239 408.34 290.439 409C291.099 408.17 291.809 407.16 291.949 406.61C292.139 405.87 292.049 405.12 291.709 404.57C291.549 404.31 291.279 404.06 290.979 404.06H290.969Z" fill="#217DD2"/>
<path d="M290.078 409.41C289.368 409.41 287.798 409.37 287.128 409.07C286.368 408.73 285.798 408.14 285.558 407.46C285.428 407.08 285.398 406.56 285.728 406.25C285.978 406.01 286.388 405.95 286.888 406.08C287.598 406.27 288.278 406.69 288.928 407.34C289.488 407.91 289.948 408.57 290.388 409.21L290.518 409.4H290.278C290.218 409.4 290.148 409.4 290.068 409.4L290.078 409.41ZM286.398 406.26C286.218 406.26 286.038 406.3 285.898 406.43C285.648 406.66 285.678 407.07 285.788 407.38C286.008 408 286.528 408.53 287.228 408.85C287.748 409.08 288.978 409.17 290.038 409.17C289.638 408.6 289.228 408.02 288.738 407.53C288.128 406.92 287.478 406.51 286.818 406.34C286.708 406.31 286.558 406.28 286.398 406.28V406.26Z" fill="#217DD2"/>
<path d="M206.108 406.67L200.238 432.81L210.868 437.71L221.218 410.5L206.108 406.67Z" fill="#895555"/>
<path d="M194.029 444.209L201.179 448.229C201.179 448.229 202.609 447.299 204.149 448.109C205.019 448.559 206.349 450.869 206.349 450.869L225.929 462.059C225.929 462.059 226.699 460.719 226.819 460.009C226.959 459.149 226.999 458.379 226.949 457.679C226.769 455.229 224.999 453.199 223.629 451.749C221.339 449.319 215.809 441.059 215.809 441.059C215.809 441.059 214.529 438.739 214.849 435.259C215.029 433.319 214.399 431.719 213.609 431.119C211.999 429.909 210.459 430.389 209.309 431.869L207.969 433.579C206.059 433.859 204.349 432.819 203.719 430.799C203.719 430.799 201.269 426.539 200.429 428.509C199.949 429.629 197.989 434.739 196.319 438.729C195.929 439.659 195.559 440.539 195.239 441.309C194.519 443.019 194.029 444.199 194.029 444.199V444.209Z" fill="#263238"/>
<path d="M218.889 445.329C218.849 445.199 218.719 445.119 218.579 445.119C217.949 445.149 217.319 445.339 216.759 445.699C216.469 445.889 216.749 446.389 217.039 446.199C217.539 445.879 218.089 445.709 218.639 445.679C218.829 445.679 218.949 445.509 218.889 445.329Z" fill="#217DD2"/>
<path d="M217.838 443.659C217.798 443.529 217.668 443.449 217.528 443.449C216.898 443.479 216.268 443.669 215.708 444.029C215.418 444.219 215.698 444.719 215.988 444.529C216.488 444.209 217.028 444.039 217.588 444.009C217.778 444.009 217.898 443.839 217.838 443.659Z" fill="#217DD2"/>
<path d="M216.719 442.009C216.679 441.879 216.549 441.799 216.409 441.799C215.779 441.829 215.149 442.019 214.589 442.379C214.299 442.569 214.579 443.069 214.869 442.879C215.369 442.559 215.909 442.389 216.469 442.359C216.659 442.359 216.779 442.189 216.719 442.009Z" fill="#217DD2"/>
<path opacity="0.2" d="M204.15 448.11C205.02 448.56 206.35 450.87 206.35 450.87L225.93 462.06C225.93 462.06 226.7 460.72 226.82 460.01C226.88 459.61 226.92 459.24 226.94 458.88L195.41 440.88C195.35 441.02 195.29 441.18 195.23 441.31C194.51 443.02 194.02 444.2 194.02 444.2L201.17 448.22C201.17 448.22 202.6 447.29 204.14 448.1L204.15 448.11Z" fill="white"/>
<path d="M216.189 442.29L216.289 442.08C216.619 441.37 216.949 440.64 217.409 439.99C217.929 439.24 218.529 438.71 219.199 438.4C219.659 438.19 220.079 438.17 220.369 438.36C220.749 438.61 220.819 439.13 220.749 439.52C220.629 440.23 220.169 440.91 219.479 441.38C218.799 441.84 216.969 442.17 216.429 442.26L216.199 442.3L216.189 442.29ZM219.879 438.47C219.659 438.47 219.439 438.55 219.299 438.62C218.669 438.91 218.109 439.42 217.609 440.13C217.209 440.7 216.899 441.34 216.609 441.97C217.659 441.78 218.859 441.49 219.329 441.17C219.959 440.74 220.389 440.12 220.499 439.48C220.549 439.16 220.509 438.75 220.229 438.57C220.129 438.5 220.009 438.48 219.889 438.48L219.879 438.47Z" fill="#217DD2"/>
<path d="M216.42 442.33L216.24 442.18C215.82 441.82 214.43 440.59 214.09 439.84C213.75 439.08 213.7 438.26 213.97 437.59C214.12 437.22 214.44 436.81 214.9 436.8H214.93C215.27 436.8 215.61 437.03 215.88 437.44C216.29 438.05 216.52 438.82 216.58 439.73C216.63 440.53 216.54 441.33 216.44 442.1L216.41 442.33H216.42ZM214.93 437.04H214.91C214.57 437.05 214.32 437.38 214.2 437.68C213.96 438.29 214 439.04 214.31 439.73C214.54 440.25 215.42 441.12 216.21 441.83C216.29 441.14 216.36 440.43 216.32 439.74C216.27 438.88 216.05 438.15 215.67 437.57C215.54 437.37 215.27 437.04 214.93 437.04Z" fill="#217DD2"/>
<path d="M216.37 235.911C216.37 235.911 220.08 268.931 221.07 270.701C224.42 276.691 246.63 286.961 246.63 286.961L257.95 284.591L266.06 291.361L260.71 295.551L254.43 293.181C251.01 293.791 247.53 294.101 244.05 294.091C238.2 294.091 210 286.941 205.3 279.081C200.59 271.221 198.43 234.811 198.43 234.811L216.37 235.911Z" fill="#895555"/>
<path d="M197.959 248.89C197.959 248.89 189.259 219.89 200.099 211.84C210.939 203.79 219.559 243.66 219.559 243.66L197.959 248.89Z" fill="#217DD2"/>
<path d="M204.82 301.93L204.74 263.5L203.91 210.88L182.29 207.79L163.87 207.62L138.95 215.37L138.43 228.28C138.43 228.28 141 287.57 140.86 289.36C140.68 291.55 140.13 307.82 140.13 307.82C168.54 314.29 205.27 303.9 204.82 301.94V301.93Z" fill="#217DD2"/>
<path opacity="0.2" d="M204.42 247.33L203.26 222.54L208.8 246.27L204.42 247.33Z" fill="black"/>
<path opacity="0.2" d="M156.349 250.94C157.049 250.8 160.589 249.64 160.589 249.64L152.719 227.74L163.529 251.96L157.029 254.55L156.349 250.93V250.94Z" fill="black"/>
<path d="M153.299 232.779C153.299 232.779 158.809 269.439 161.989 272.859C167.369 278.649 193.999 294.009 193.999 294.009L207.289 289.349C208.219 289.039 209.249 289.209 210.009 289.789L219.099 296.729L218.229 297.459C217.859 297.779 217.309 297.839 216.869 297.619L215.459 296.919L217.039 298.469L216.539 298.889C216.039 299.309 215.349 299.459 214.709 299.289L210.649 298.199L214.399 300.699C213.559 301.409 212.399 301.649 211.329 301.349L205.379 299.659C201.319 300.589 197.189 301.179 193.029 301.429C186.029 301.859 152.969 290.309 146.799 281.849C140.639 273.389 134.279 238.269 134.279 238.269L153.279 232.789L153.299 232.779Z" fill="#895555"/>
<path d="M135.709 257.16C135.709 257.16 127.469 223.94 138.309 215.89C149.149 207.84 159.889 249.87 159.889 249.87L135.709 257.16Z" fill="#217DD2"/>
<path d="M224.439 299.391H182.299C182.309 301.011 184.109 302.311 186.309 302.301H254.959C257.149 302.281 258.909 300.981 258.899 299.391H224.439Z" fill="#263238"/>
<path d="M255.589 302.141H217.089C216.429 302.141 215.889 301.701 215.899 301.171C215.899 301.071 215.919 300.971 215.959 300.881L233.089 261.611C233.519 260.491 234.809 259.721 236.269 259.721H274.789C275.439 259.721 275.969 260.141 275.969 260.671C275.969 260.781 275.949 260.891 275.899 260.991L258.769 300.261C258.329 301.381 257.049 302.141 255.589 302.151V302.141Z" fill="#263238"/>
<path opacity="0.7" d="M274.789 259.71H236.269C234.809 259.71 233.519 260.48 233.089 261.6L216.609 299.39H182.299C182.309 301.01 184.109 302.31 186.309 302.3H254.959C255.649 302.3 256.289 302.15 256.859 301.92C257.759 301.62 258.469 301.02 258.779 300.24L275.909 260.97C275.959 260.87 275.979 260.76 275.979 260.65C275.979 260.13 275.449 259.7 274.799 259.7L274.789 259.71Z" fill="white"/>
<path d="M251.649 280.62C250.819 282.5 249.129 283.8 247.869 283.53C246.609 283.26 246.279 281.55 247.079 279.66C247.889 277.77 249.589 276.51 250.849 276.77C252.109 277.03 252.479 278.68 251.639 280.62H251.649Z" fill="white"/>
<g opacity="0.3">
<path d="M233.08 261.61L216.6 299.4H218.38L236.26 259.72C234.8 259.72 233.51 260.49 233.08 261.61Z" fill="black"/>
</g>
<path d="M193.55 162.02L194.77 162.73C196.19 162.76 197.53 163.83 197.86 165.22C198.19 166.6 197.49 168.17 196.24 168.85C196.05 168.95 195.83 169.06 195.77 169.26C195.66 169.59 196.01 169.86 196.26 170.09C197.54 171.2 197.38 173.39 196.23 174.63C195.08 175.87 193.25 176.27 191.57 176.13C191.13 171.37 193.96 166.77 193.55 162.02Z" fill="#263238"/>
<path d="M157.339 175.41C155.529 175.5 153.719 174.38 152.989 172.72C152.789 172.26 152.659 171.75 152.739 171.26C152.969 169.92 154.499 169.31 155.809 168.94C154.349 168.58 153.369 167.13 153.089 165.66C152.959 164.99 152.949 164.27 153.169 163.62C153.539 162.52 154.519 161.72 155.589 161.29C156.659 160.86 157.829 160.74 158.979 160.63L165.609 181.67C164.129 182 162.589 182.2 161.099 181.95C159.599 181.7 158.139 180.93 157.309 179.67C156.479 178.4 156.399 176.6 157.339 175.41Z" fill="#263238"/>
<path d="M161.049 208.5C167.169 203.28 166.879 188.8 165.779 180.93L183.229 196.05C182.809 196.94 182.449 197.86 182.159 198.8C181.569 200.48 181.419 202.28 181.729 204.03C182.039 205.48 183.659 209.51 183.659 209.51C183.659 209.51 184.529 214.02 172.669 213.8C167.449 214.27 161.069 208.5 161.069 208.5H161.049Z" fill="#895555"/>
<path opacity="0.2" d="M168.909 188.939C167.869 198.129 177.069 202.579 181.729 204.049C181.419 202.299 181.569 200.499 182.159 198.819L168.909 188.939Z" fill="black"/>
<path d="M162.789 174.06C164.939 184.92 165.929 191.08 172.379 195.92C182.069 203.19 195.019 196.56 196.259 185.25C197.369 175.07 193.659 159.03 182.039 156.2C170.589 153.41 160.639 163.21 162.789 174.07V174.06Z" fill="#895555"/>
<path d="M159.609 161.08C160.349 154.85 175.899 152.79 180.659 155.31C181.369 155.69 172.759 161.37 173.289 161.1L169.149 163.12C168.459 163.06 167.249 163.99 166.839 166.09C166.839 166.09 169.579 182.81 165.329 188.3C161.149 186.94 160.029 180.32 158.259 176.52C155.619 170.86 152.239 162.5 159.619 161.09L159.609 161.08Z" fill="#263238"/>
<path d="M159.56 183.76C160.84 186.46 163.28 188.32 165.66 189.12C169.24 190.31 170.02 186.58 169.24 183.17C168.54 180.1 167.1 176.44 163.41 176.73C159.77 177.01 158.1 180.68 159.56 183.77V183.76Z" fill="#895555"/>
<path d="M177.949 174.61C178.099 175.73 178.829 176.55 179.589 176.45C180.339 176.35 180.829 175.35 180.679 174.23C180.529 173.11 179.799 172.29 179.039 172.39C178.289 172.49 177.799 173.49 177.949 174.61Z" fill="#263238"/>
<path d="M189.289 173.961C189.439 175.081 190.169 175.901 190.929 175.801C191.689 175.701 192.169 174.701 192.019 173.581C191.869 172.461 191.139 171.641 190.379 171.741C189.629 171.841 189.139 172.841 189.289 173.961Z" fill="#263238"/>
<path d="M186.918 173.771C186.918 173.771 191.308 178.87 192.788 180.98C191.368 182.59 188.518 182.301 188.518 182.301L186.918 173.771Z" fill="#6D3939"/>
<path d="M175.82 170.231C176 170.281 176.21 170.231 176.35 170.091C178.06 168.401 180.03 168.751 180.05 168.751C180.34 168.811 180.63 168.621 180.69 168.331C180.75 168.041 180.56 167.771 180.27 167.711C180.17 167.691 177.7 167.251 175.57 169.351C175.36 169.561 175.36 169.891 175.57 170.101C175.64 170.171 175.72 170.211 175.81 170.231H175.82Z" fill="#263238"/>
<path opacity="0.2" d="M167.31 183.271C167.2 183.271 167.1 183.191 167.07 183.081C166.84 182.191 166.38 181.381 165.73 180.721C165.31 180.291 164.62 179.761 163.78 179.671C163.02 179.591 162.25 179.951 161.96 180.521C161.9 180.641 161.75 180.691 161.62 180.631C161.5 180.571 161.45 180.421 161.51 180.291C161.9 179.531 162.86 179.071 163.83 179.171C164.83 179.281 165.61 179.881 166.09 180.371C166.8 181.091 167.31 181.991 167.56 182.961C167.59 183.091 167.51 183.231 167.38 183.261C167.36 183.261 167.34 183.261 167.32 183.261L167.31 183.271Z" fill="black"/>
<path d="M195.038 168.55C195.138 168.52 195.228 168.45 195.288 168.37C195.468 168.14 195.428 167.8 195.188 167.63C192.798 165.87 190.448 166.71 190.338 166.73C190.058 166.83 189.908 167.14 190.008 167.41C190.108 167.68 190.418 167.82 190.698 167.73C190.798 167.69 192.618 167.07 194.538 168.48C194.688 168.59 194.878 168.61 195.048 168.55H195.038Z" fill="#263238"/>
<path d="M155.959 156.12C156.529 153.48 159.849 152.54 162.479 152.77C161.999 149.68 165.949 147.43 168.569 147.22C171.309 147 172.409 147.95 172.409 147.95C172.199 148.02 173.059 146.32 173.629 145.62C175.729 143.04 179.389 141.93 182.529 142.9C185.669 143.88 188.109 146.89 188.469 150.23C189.969 148.37 192.999 148.09 194.799 149.66C196.599 151.23 196.819 154.34 195.259 156.15C197.269 156.05 199.179 157.91 199.179 159.97C199.179 162.04 197.259 163.88 195.249 163.76C195.389 166.07 195.469 168.96 195.609 171.27L191.489 163.19C189.799 162.81 189.409 162.12 188.879 160.44C187.939 162.74 186.039 162.77 183.609 162.95C181.179 163.13 178.699 161.81 177.439 159.67C176.449 162.07 174.269 164.05 171.729 164.27C169.189 164.49 166.499 162.6 166.209 160C164.969 162.38 161.899 163.56 159.429 162.62C156.959 161.68 155.389 158.73 155.959 156.09V156.12Z" fill="#263238"/>
<path d="M188.099 186.02C187.159 187.23 186.319 188.5 185.569 189.83C185.319 189.74 185.059 189.65 184.809 189.55C181.399 188.25 180.239 186.52 179.999 185C179.899 184.25 179.979 183.49 180.219 182.77C180.349 182.36 180.539 181.98 180.769 181.62C182.169 183.39 185.249 184.85 186.929 185.56C187.669 185.83 188.079 186.03 188.079 186.03L188.099 186.02Z" fill="#263238"/>
<path d="M186.978 185.53L186.198 186.63C182.998 185.4 180.898 184.11 180.258 182.74C180.388 182.33 180.578 181.95 180.808 181.59C182.218 183.38 185.288 184.82 186.968 185.53H186.978Z" fill="white"/>
<path d="M184.849 189.52C181.439 188.22 180.279 186.49 180.039 184.97C181.329 185.49 182.509 186.23 183.539 187.16C184.209 187.79 184.659 188.62 184.839 189.52H184.849Z" fill="#C15854"/>
<path d="M247.559 339.32C247.139 343.51 246.229 349.24 245.139 353.3C242.169 364.78 238.779 375.82 234.509 387.23C226.259 409.76 219.599 430.67 219.599 430.67L198.649 424.39C198.649 424.39 212.499 359.2 221.839 352.53H164.559C163.489 352.53 162.419 352.46 161.359 352.31C171.229 351.03 186.599 344.95 200.869 338.87C213.469 333.48 225.259 328.1 231.649 326.07C239.469 329.41 248.169 332.75 247.569 339.32H247.559Z" fill="#263238"/>
<path opacity="0.6" d="M231.659 326.13C225.259 328.21 213.469 333.55 200.879 338.93C186.609 345.01 171.239 351.09 161.369 352.37C144.749 350.15 138.499 330.35 155.879 307.51C167.159 307.51 178.499 318.28 178.499 318.28C178.499 318.28 212.609 318.11 231.659 326.13Z" fill="black"/>
<path d="M278.299 396.28L264.449 404.67C264.449 404.67 252.889 380.4 241.839 353.02C242.929 348.95 243.699 344.81 244.119 340.62C244.719 334.05 239.499 329.42 231.679 326.15C225.279 328.23 213.489 333.57 200.899 338.95C186.629 345.03 171.259 351.11 161.389 352.39C160.259 352.54 159.119 352.62 157.969 352.64C139.009 352.64 132.469 336.02 140.119 307.82C151.399 307.82 170.719 306.6 170.719 306.6C170.719 306.6 207.999 297.64 234.819 300.69C247.879 302.23 258.449 312.02 260.979 324.93C267.889 359.16 278.289 396.28 278.289 396.28H278.299Z" fill="#263238"/>
<path d="M280.489 397.3L264.449 404.67C264.449 404.67 252.889 380.4 241.839 353.02C242.929 348.95 243.699 344.81 244.119 340.62C244.719 334.05 239.499 329.42 231.679 326.15C225.279 328.23 213.489 333.57 200.899 338.95C186.629 345.03 171.259 351.11 161.389 352.39C160.259 352.54 159.119 352.62 157.969 352.64C139.009 352.64 132.469 336.02 140.119 307.82C151.399 307.82 170.719 306.6 170.719 306.6C170.719 306.6 207.999 297.64 234.819 300.69C247.879 302.23 258.449 312.02 260.979 324.93C267.889 359.16 280.479 397.3 280.479 397.3H280.489Z" fill="#263238"/>
<path opacity="0.2" d="M247.559 339.32C247.139 343.51 246.229 349.24 245.139 353.3C242.169 364.78 238.779 375.82 234.509 387.23C226.259 409.76 219.599 430.67 219.599 430.67L198.649 424.39C198.649 424.39 212.499 359.2 221.839 352.53H164.559C163.489 352.53 162.419 352.46 161.359 352.31C171.229 351.03 186.599 344.95 200.869 338.87C213.469 333.48 225.259 328.1 231.649 326.07C239.469 329.41 248.169 332.75 247.569 339.32H247.559Z" fill="black"/>
<path d="M183.658 270.4C186.469 270.4 188.748 263.134 188.748 254.17C188.748 245.207 186.469 237.94 183.658 237.94C180.847 237.94 178.568 245.207 178.568 254.17C178.568 263.134 180.847 270.4 183.658 270.4Z" fill="white"/>
</svg>
