<svg width="421" height="239" viewBox="0 0 421 239" fill="none" xmlns="http://www.w3.org/2000/svg">
<path d="M34.368 211.896L20.352 186.456H16.416V211.896H0V144.504H27.552C32.864 144.504 37.376 145.432 41.088 147.288C44.864 149.144 47.68 151.704 49.536 154.968C51.392 158.168 52.32 161.752 52.32 165.72C52.32 170.2 51.04 174.2 48.48 177.72C45.984 181.24 42.272 183.736 37.344 185.208L52.896 211.896H34.368ZM16.416 174.84H26.592C29.6 174.84 31.84 174.104 33.312 172.632C34.848 171.16 35.616 169.08 35.616 166.392C35.616 163.832 34.848 161.816 33.312 160.344C31.84 158.872 29.6 158.136 26.592 158.136H16.416V174.84Z" fill="white"/>
<path d="M70.881 152.76C68.001 152.76 65.633 151.928 63.777 150.264C61.985 148.536 61.089 146.424 61.089 143.928C61.089 141.368 61.985 139.256 63.777 137.592C65.633 135.864 68.001 135 70.881 135C73.697 135 76.001 135.864 77.793 137.592C79.649 139.256 80.577 141.368 80.577 143.928C80.577 146.424 79.649 148.536 77.793 150.264C76.001 151.928 73.697 152.76 70.881 152.76ZM79.041 158.328V211.896H62.625V158.328H79.041Z" fill="white"/>
<path d="M112.729 212.664C108.057 212.664 103.898 211.864 100.25 210.264C96.6015 208.664 93.7215 206.488 91.6095 203.736C89.4975 200.92 88.3135 197.784 88.0575 194.328H104.282C104.474 196.184 105.338 197.688 106.874 198.84C108.41 199.992 110.297 200.568 112.537 200.568C114.585 200.568 116.153 200.184 117.242 199.416C118.393 198.584 118.969 197.528 118.969 196.248C118.969 194.712 118.17 193.592 116.57 192.888C114.97 192.12 112.378 191.288 108.794 190.392C104.954 189.496 101.753 188.568 99.1935 187.608C96.6335 186.584 94.4255 185.016 92.5695 182.904C90.7135 180.728 89.7855 177.816 89.7855 174.168C89.7855 171.096 90.6175 168.312 92.2815 165.816C94.0095 163.256 96.5055 161.24 99.7695 159.768C103.098 158.296 107.033 157.56 111.577 157.56C118.298 157.56 123.578 159.224 127.418 162.552C131.322 165.88 133.561 170.296 134.137 175.8H118.969C118.713 173.944 117.882 172.472 116.474 171.384C115.13 170.296 113.338 169.752 111.098 169.752C109.178 169.752 107.706 170.136 106.682 170.904C105.658 171.608 105.146 172.6 105.146 173.88C105.146 175.416 105.946 176.568 107.546 177.336C109.21 178.104 111.77 178.872 115.226 179.64C119.194 180.664 122.426 181.688 124.922 182.712C127.418 183.672 129.594 185.272 131.45 187.512C133.37 189.688 134.362 192.632 134.426 196.344C134.426 199.48 133.53 202.296 131.738 204.792C130.01 207.224 127.482 209.144 124.154 210.552C120.89 211.96 117.082 212.664 112.729 212.664Z" fill="white"/>
<path d="M194.965 184.248C194.965 185.784 194.869 187.384 194.677 189.048H157.525C157.781 192.376 158.837 194.936 160.693 196.728C162.613 198.456 164.949 199.32 167.701 199.32C171.797 199.32 174.645 197.592 176.245 194.136H193.717C192.821 197.656 191.189 200.824 188.821 203.64C186.517 206.456 183.605 208.664 180.085 210.264C176.565 211.864 172.629 212.664 168.277 212.664C163.029 212.664 158.357 211.544 154.261 209.304C150.165 207.064 146.965 203.864 144.661 199.704C142.357 195.544 141.205 190.68 141.205 185.112C141.205 179.544 142.325 174.68 144.565 170.52C146.869 166.36 150.069 163.16 154.165 160.92C158.261 158.68 162.965 157.56 168.277 157.56C173.461 157.56 178.069 158.648 182.101 160.824C186.133 163 189.269 166.104 191.509 170.136C193.813 174.168 194.965 178.872 194.965 184.248ZM178.165 179.928C178.165 177.112 177.205 174.872 175.285 173.208C173.365 171.544 170.965 170.712 168.085 170.712C165.333 170.712 162.997 171.512 161.077 173.112C159.221 174.712 158.069 176.984 157.621 179.928H178.165Z" fill="white"/>
<path d="M261.993 144.504V211.896H245.577V184.152H220.041V211.896H203.625V144.504H220.041V170.904H245.577V144.504H261.993Z" fill="white"/>
<path d="M282.1 152.76C279.22 152.76 276.852 151.928 274.996 150.264C273.204 148.536 272.308 146.424 272.308 143.928C272.308 141.368 273.204 139.256 274.996 137.592C276.852 135.864 279.22 135 282.1 135C284.916 135 287.22 135.864 289.012 137.592C290.868 139.256 291.796 141.368 291.796 143.928C291.796 146.424 290.868 148.536 289.012 150.264C287.22 151.928 284.916 152.76 282.1 152.76ZM290.26 158.328V211.896H273.844V158.328H290.26Z" fill="white"/>
<path d="M322.508 157.56C326.284 157.56 329.58 158.328 332.396 159.864C335.276 161.4 337.484 163.416 339.02 165.912V158.328H355.436V211.8C355.436 216.728 354.444 221.176 352.46 225.144C350.54 229.176 347.564 232.376 343.532 234.744C339.564 237.112 334.604 238.296 328.652 238.296C320.716 238.296 314.284 236.408 309.356 232.632C304.428 228.92 301.612 223.864 300.908 217.464H317.132C317.644 219.512 318.86 221.112 320.78 222.264C322.7 223.48 325.068 224.088 327.884 224.088C331.276 224.088 333.964 223.096 335.948 221.112C337.996 219.192 339.02 216.088 339.02 211.8V204.216C337.42 206.712 335.212 208.76 332.396 210.36C329.58 211.896 326.284 212.664 322.508 212.664C318.092 212.664 314.092 211.544 310.508 209.304C306.924 207 304.076 203.768 301.964 199.608C299.916 195.384 298.892 190.52 298.892 185.016C298.892 179.512 299.916 174.68 301.964 170.52C304.076 166.36 306.924 163.16 310.508 160.92C314.092 158.68 318.092 157.56 322.508 157.56ZM339.02 185.112C339.02 181.016 337.868 177.784 335.564 175.416C333.324 173.048 330.572 171.864 327.308 171.864C324.044 171.864 321.26 173.048 318.956 175.416C316.716 177.72 315.596 180.92 315.596 185.016C315.596 189.112 316.716 192.376 318.956 194.808C321.26 197.176 324.044 198.36 327.308 198.36C330.572 198.36 333.324 197.176 335.564 194.808C337.868 192.44 339.02 189.208 339.02 185.112Z" fill="white"/>
<path d="M400.241 157.752C406.385 157.752 411.313 159.8 415.025 163.896C418.737 167.928 420.592 173.496 420.592 180.6V211.896H404.272V182.808C404.272 179.224 403.344 176.44 401.488 174.456C399.632 172.472 397.136 171.48 394 171.48C390.864 171.48 388.369 172.472 386.513 174.456C384.657 176.44 383.729 179.224 383.729 182.808V211.896H367.312V140.856H383.729V165.528C385.393 163.16 387.664 161.272 390.544 159.864C393.424 158.456 396.657 157.752 400.241 157.752Z" fill="white"/>
<path d="M202.5 66.5L196 51L194.5 43.5L197.5 31L202.5 21L211 13.5L218.5 22L224 36.5L225 52.5L217 68L209.5 74.5L202.5 66.5Z" fill="url(#paint0_linear_1912_3433)" stroke="black"/>
<circle cx="235" cy="44" r="40" stroke="white" stroke-width="8"/>
<circle cx="185" cy="44" r="40" stroke="white" stroke-width="8"/>
<defs>
<linearGradient id="paint0_linear_1912_3433" x1="209.75" y1="13.5" x2="209.75" y2="74.5" gradientUnits="userSpaceOnUse">
<stop stop-color="white" stop-opacity="0"/>
<stop offset="1" stop-color="white"/>
</linearGradient>
</defs>
</svg>
