<svg width="576" height="104" viewBox="0 0 576 104" fill="none" xmlns="http://www.w3.org/2000/svg">
<path d="M189.368 76.896L175.352 51.456H171.416V76.896H155V9.504H182.552C187.864 9.504 192.376 10.432 196.088 12.288C199.864 14.144 202.68 16.704 204.536 19.968C206.392 23.168 207.32 26.752 207.32 30.72C207.32 35.2 206.04 39.2 203.48 42.72C200.984 46.24 197.272 48.736 192.344 50.208L207.896 76.896H189.368ZM171.416 39.84H181.592C184.6 39.84 186.84 39.104 188.312 37.632C189.848 36.16 190.616 34.08 190.616 31.392C190.616 28.832 189.848 26.816 188.312 25.344C186.84 23.872 184.6 23.136 181.592 23.136H171.416V39.84Z" fill="white"/>
<path d="M225.881 17.76C223.001 17.76 220.633 16.928 218.777 15.264C216.985 13.536 216.089 11.424 216.089 8.92801C216.089 6.368 216.985 4.256 218.777 2.592C220.633 0.864 223.001 0 225.881 0C228.697 0 231.001 0.864 232.793 2.592C234.649 4.256 235.577 6.368 235.577 8.92801C235.577 11.424 234.649 13.536 232.793 15.264C231.001 16.928 228.697 17.76 225.881 17.76ZM234.041 23.328V76.896H217.625V23.328H234.041Z" fill="white"/>
<path d="M267.729 77.664C263.058 77.664 258.898 76.864 255.25 75.264C251.602 73.664 248.721 71.488 246.609 68.736C244.497 65.92 243.313 62.784 243.058 59.328H259.282C259.474 61.184 260.338 62.688 261.874 63.84C263.41 64.992 265.298 65.568 267.537 65.568C269.585 65.568 271.154 65.184 272.242 64.416C273.394 63.584 273.969 62.528 273.969 61.248C273.969 59.712 273.17 58.592 271.57 57.888C269.97 57.12 267.378 56.288 263.794 55.392C259.954 54.496 256.753 53.568 254.193 52.608C251.633 51.584 249.426 50.016 247.57 47.904C245.714 45.728 244.785 42.816 244.785 39.168C244.785 36.096 245.618 33.312 247.282 30.816C249.009 28.256 251.506 26.24 254.77 24.768C258.098 23.296 262.034 22.56 266.577 22.56C273.298 22.56 278.577 24.224 282.418 27.552C286.322 30.88 288.561 35.296 289.137 40.8H273.969C273.714 38.944 272.882 37.472 271.474 36.384C270.13 35.296 268.338 34.752 266.098 34.752C264.178 34.752 262.706 35.136 261.682 35.904C260.658 36.608 260.146 37.6 260.146 38.88C260.146 40.416 260.946 41.568 262.546 42.336C264.21 43.104 266.77 43.872 270.226 44.64C274.193 45.664 277.425 46.688 279.922 47.712C282.418 48.672 284.594 50.272 286.45 52.512C288.37 54.688 289.362 57.632 289.426 61.344C289.426 64.48 288.53 67.296 286.738 69.792C285.01 72.224 282.482 74.144 279.154 75.552C275.89 76.96 272.081 77.664 267.729 77.664Z" fill="white"/>
<path d="M349.965 49.248C349.965 50.784 349.869 52.384 349.677 54.048H312.525C312.781 57.376 313.837 59.936 315.693 61.728C317.613 63.456 319.949 64.32 322.701 64.32C326.797 64.32 329.645 62.592 331.245 59.136H348.717C347.821 62.656 346.189 65.824 343.821 68.64C341.517 71.456 338.605 73.664 335.085 75.264C331.565 76.864 327.629 77.664 323.277 77.664C318.029 77.664 313.357 76.544 309.261 74.304C305.165 72.064 301.965 68.864 299.661 64.704C297.357 60.544 296.205 55.68 296.205 50.112C296.205 44.544 297.325 39.68 299.565 35.52C301.869 31.36 305.069 28.16 309.165 25.92C313.261 23.68 317.965 22.56 323.277 22.56C328.461 22.56 333.069 23.648 337.101 25.824C341.133 28 344.269 31.104 346.509 35.136C348.813 39.168 349.965 43.872 349.965 49.248ZM333.165 44.928C333.165 42.112 332.205 39.872 330.285 38.208C328.365 36.544 325.965 35.712 323.085 35.712C320.333 35.712 317.997 36.512 316.077 38.112C314.221 39.712 313.069 41.984 312.621 44.928H333.165Z" fill="white"/>
<path d="M416.993 9.504V76.896H400.577V49.152H375.041V76.896H358.625V9.504H375.041V35.904H400.577V9.504H416.993Z" fill="white"/>
<path d="M437.1 17.76C434.22 17.76 431.852 16.928 429.996 15.264C428.204 13.536 427.308 11.424 427.308 8.92801C427.308 6.368 428.204 4.256 429.996 2.592C431.852 0.864 434.22 0 437.1 0C439.916 0 442.22 0.864 444.012 2.592C445.868 4.256 446.796 6.368 446.796 8.92801C446.796 11.424 445.868 13.536 444.012 15.264C442.22 16.928 439.916 17.76 437.1 17.76ZM445.26 23.328V76.896H428.844V23.328H445.26Z" fill="white"/>
<path d="M477.508 22.56C481.284 22.56 484.58 23.328 487.396 24.864C490.276 26.4 492.484 28.416 494.02 30.912V23.328H510.436V76.8C510.436 81.728 509.444 86.176 507.46 90.144C505.54 94.176 502.564 97.376 498.532 99.744C494.564 102.112 489.604 103.296 483.652 103.296C475.716 103.296 469.284 101.408 464.356 97.632C459.428 93.92 456.612 88.864 455.908 82.464H472.132C472.644 84.512 473.86 86.112 475.78 87.264C477.7 88.48 480.068 89.088 482.884 89.088C486.276 89.088 488.964 88.096 490.948 86.112C492.996 84.192 494.02 81.088 494.02 76.8V69.216C492.42 71.712 490.212 73.76 487.396 75.36C484.58 76.896 481.284 77.664 477.508 77.664C473.092 77.664 469.092 76.544 465.508 74.304C461.924 72 459.076 68.768 456.964 64.608C454.916 60.384 453.892 55.52 453.892 50.016C453.892 44.512 454.916 39.68 456.964 35.52C459.076 31.36 461.924 28.16 465.508 25.92C469.092 23.68 473.092 22.56 477.508 22.56ZM494.02 50.112C494.02 46.016 492.868 42.784 490.564 40.416C488.324 38.048 485.572 36.864 482.308 36.864C479.044 36.864 476.26 38.048 473.956 40.416C471.716 42.72 470.596 45.92 470.596 50.016C470.596 54.112 471.716 57.376 473.956 59.808C476.26 62.176 479.044 63.36 482.308 63.36C485.572 63.36 488.324 62.176 490.564 59.808C492.868 57.44 494.02 54.208 494.02 50.112Z" fill="white"/>
<path d="M555.241 22.752C561.385 22.752 566.312 24.8 570.025 28.896C573.737 32.928 575.592 38.496 575.592 45.6V76.896H559.272V47.808C559.272 44.224 558.344 41.44 556.488 39.456C554.633 37.472 552.136 36.48 549 36.48C545.865 36.48 543.368 37.472 541.513 39.456C539.657 41.44 538.729 44.224 538.729 47.808V76.896H522.312V5.856H538.729V30.528C540.393 28.16 542.664 26.272 545.544 24.864C548.424 23.456 551.656 22.752 555.241 22.752Z" fill="white"/>
<path d="M61.5 68.5L55 53L53.5 45.5L56.5 33L61.5 23L70 15.5L77.5 24L83 38.5L84 54.5L76 70L68.5 76.5L61.5 68.5Z" fill="url(#paint0_linear_1904_3422)" stroke="black"/>
<circle cx="94" cy="46" r="40" stroke="white" stroke-width="8"/>
<circle cx="44" cy="46" r="40" stroke="white" stroke-width="8"/>
<defs>
<linearGradient id="paint0_linear_1904_3422" x1="68.75" y1="15.5" x2="68.75" y2="76.5" gradientUnits="userSpaceOnUse">
<stop stop-color="#006ACC" stop-opacity="0"/>
<stop offset="1" stop-color="white"/>
</linearGradient>
</defs>
</svg>
