<svg width="566" height="103" viewBox="0 0 566 103" fill="none" xmlns="http://www.w3.org/2000/svg">
<path d="M186.527 76.4148L172.777 51.4571H168.915V76.4148H152.811V10.3004H179.84C185.052 10.3004 189.478 11.2108 193.12 13.0316C196.824 14.8524 199.587 17.3639 201.407 20.566C203.228 23.7054 204.139 27.2214 204.139 31.1142C204.139 35.5093 202.883 39.4334 200.371 42.8867C197.923 46.34 194.281 48.7887 189.447 50.2328L204.704 76.4148H186.527ZM168.915 40.0613H178.898C181.849 40.0613 184.047 39.3393 185.491 37.8952C186.998 36.4511 187.751 34.4105 187.751 31.7735C187.751 29.262 186.998 27.2842 185.491 25.8401C184.047 24.396 181.849 23.674 178.898 23.674H168.915V40.0613Z" fill="#006ACC"/>
<path d="M222.348 18.3999C219.522 18.3999 217.199 17.5837 215.379 15.9512C213.62 14.256 212.741 12.184 212.741 9.73532C212.741 7.22385 213.62 5.15188 215.379 3.51943C217.199 1.82418 219.522 0.976562 222.348 0.976562C225.11 0.976562 227.371 1.82418 229.129 3.51943C230.95 5.15188 231.86 7.22385 231.86 9.73532C231.86 12.184 230.95 14.256 229.129 15.9512C227.371 17.5837 225.11 18.3999 222.348 18.3999ZM230.353 23.8623V76.4148H214.248V23.8623H230.353Z" fill="#006ACC"/>
<path d="M263.403 77.1683C258.82 77.1683 254.738 76.3834 251.16 74.8138C247.581 73.2441 244.755 71.1093 242.683 68.4095C240.611 65.6469 239.45 62.5703 239.199 59.1799H255.115C255.304 61.0007 256.151 62.4762 257.658 63.6063C259.165 64.7365 261.017 65.3016 263.215 65.3016C265.224 65.3016 266.762 64.9249 267.829 64.1714C268.96 63.3552 269.525 62.3192 269.525 61.0635C269.525 59.5566 268.74 58.4578 267.17 57.7672C265.601 57.0137 263.058 56.1975 259.542 55.3185C255.774 54.4395 252.635 53.5291 250.124 52.5873C247.612 51.5827 245.446 50.0444 243.625 47.9724C241.804 45.8377 240.894 42.9809 240.894 39.402C240.894 36.3883 241.71 33.6571 243.343 31.2084C245.038 28.6969 247.487 26.7191 250.689 25.275C253.954 23.8309 257.815 23.1089 262.273 23.1089C268.865 23.1089 274.045 24.7413 277.813 28.0063C281.643 31.2712 283.84 35.6034 284.405 41.0031H269.525C269.274 39.1823 268.457 37.7382 267.076 36.6708C265.758 35.6034 263.999 35.0698 261.802 35.0698C259.918 35.0698 258.474 35.4465 257.47 36.1999C256.465 36.8906 255.963 37.8638 255.963 39.1195C255.963 40.6264 256.748 41.7565 258.317 42.51C259.95 43.2634 262.461 44.0169 265.852 44.7703C269.744 45.7749 272.915 46.7795 275.364 47.7841C277.813 48.7259 279.947 50.2955 281.768 52.4931C283.652 54.6278 284.625 57.516 284.688 61.1576C284.688 64.2342 283.809 66.9968 282.051 69.4455C280.355 71.8314 277.875 73.715 274.61 75.0963C271.408 76.4776 267.672 77.1683 263.403 77.1683Z" fill="#006ACC"/>
<path d="M344.079 49.291C344.079 50.7978 343.985 52.3675 343.797 54H307.349C307.6 57.2649 308.636 59.7763 310.457 61.5344C312.341 63.2296 314.632 64.0772 317.332 64.0772C321.35 64.0772 324.145 62.382 325.714 58.9915H342.855C341.976 62.4448 340.375 65.5527 338.052 68.3153C335.791 71.078 332.935 73.2441 329.481 74.8138C326.028 76.3834 322.167 77.1683 317.897 77.1683C312.749 77.1683 308.165 76.0695 304.147 73.872C300.129 71.6744 296.989 68.5351 294.729 64.4539C292.469 60.3728 291.338 55.601 291.338 50.1386C291.338 44.6761 292.437 39.9043 294.635 35.8232C296.895 31.7421 300.034 28.6027 304.053 26.4052C308.071 24.2077 312.686 23.1089 317.897 23.1089C322.983 23.1089 327.504 24.1763 331.459 26.311C335.415 28.4458 338.491 31.4909 340.689 35.4465C342.949 39.402 344.079 44.0169 344.079 49.291ZM327.598 45.0529C327.598 42.2902 326.656 40.0927 324.772 38.4602C322.889 36.8278 320.534 36.0116 317.709 36.0116C315.009 36.0116 312.717 36.7964 310.834 38.3661C309.013 39.9357 307.883 42.1647 307.443 45.0529H327.598Z" fill="#006ACC"/>
<path d="M409.837 10.3004V76.4148H393.732V49.1968H368.68V76.4148H352.575V10.3004H368.68V36.1999H393.732V10.3004H409.837Z" fill="#006ACC"/>
<path d="M429.562 18.3999C426.737 18.3999 424.414 17.5837 422.593 15.9512C420.835 14.256 419.956 12.184 419.956 9.73532C419.956 7.22385 420.835 5.15188 422.593 3.51943C424.414 1.82418 426.737 0.976562 429.562 0.976562C432.325 0.976562 434.585 1.82418 436.343 3.51943C438.164 5.15188 439.075 7.22385 439.075 9.73532C439.075 12.184 438.164 14.256 436.343 15.9512C434.585 17.5837 432.325 18.3999 429.562 18.3999ZM437.568 23.8623V76.4148H421.463V23.8623H437.568Z" fill="#006ACC"/>
<path d="M469.205 23.1089C472.909 23.1089 476.143 23.8623 478.905 25.3692C481.731 26.8761 483.897 28.8539 485.404 31.3026V23.8623H501.509V76.3206C501.509 81.1552 500.536 85.5189 498.589 89.4117C496.706 93.3672 493.786 96.5066 489.83 98.8297C485.938 101.153 481.072 102.314 475.232 102.314C467.447 102.314 461.137 100.462 456.302 96.7577C451.468 93.1161 448.705 88.1559 448.014 81.8773H463.931C464.433 83.8864 465.626 85.4561 467.51 86.5863C469.393 87.7792 471.716 88.3757 474.479 88.3757C477.807 88.3757 480.444 87.4025 482.39 85.4561C484.399 83.5725 485.404 80.5273 485.404 76.3206V68.8804C483.834 71.3291 481.668 73.3383 478.905 74.9079C476.143 76.4148 472.909 77.1683 469.205 77.1683C464.873 77.1683 460.948 76.0695 457.432 73.872C453.916 71.6116 451.122 68.4409 449.05 64.3598C447.041 60.2158 446.037 55.4441 446.037 50.0444C446.037 44.6447 447.041 39.9043 449.05 35.8232C451.122 31.7421 453.916 28.6027 457.432 26.4052C460.948 24.2077 464.873 23.1089 469.205 23.1089ZM485.404 50.1386C485.404 46.1202 484.274 42.9495 482.013 40.6264C479.816 38.3033 477.116 37.1417 473.914 37.1417C470.712 37.1417 467.981 38.3033 465.72 40.6264C463.523 42.8867 462.424 46.026 462.424 50.0444C462.424 54.0627 463.523 57.2649 465.72 59.6508C467.981 61.9739 470.712 63.1354 473.914 63.1354C477.116 63.1354 479.816 61.9739 482.013 59.6508C484.274 57.3277 485.404 54.1569 485.404 50.1386Z" fill="#006ACC"/>
<path d="M545.464 23.2972C551.491 23.2972 556.326 25.3064 559.967 29.3248C563.609 33.2803 565.43 38.7428 565.43 45.7121V76.4148H549.419V47.8783C549.419 44.3622 548.509 41.631 546.688 39.6846C544.867 37.7382 542.418 36.765 539.342 36.765C536.265 36.765 533.817 37.7382 531.996 39.6846C530.175 41.631 529.265 44.3622 529.265 47.8783V76.4148H513.16V6.72155H529.265V30.9258C530.897 28.6027 533.126 26.7505 535.951 25.3692C538.777 23.9879 541.948 23.2972 545.464 23.2972Z" fill="#006ACC"/>
<path d="M61.0847 68.1779L54.7079 52.9717L53.2363 45.6139L56.1795 33.3509L61.0847 23.5404L69.4235 16.1826L76.7814 24.5215L82.1771 38.7466L83.1581 54.4433L75.3098 69.6494L67.952 76.0262L61.0847 68.1779Z" fill="url(#paint0_linear_1911_3422)" stroke="black"/>
<circle cx="92.9663" cy="46.104" r="39.2417" stroke="#006ACC" stroke-width="8"/>
<circle cx="43.9155" cy="46.104" r="39.2417" stroke="#006ACC" stroke-width="8"/>
<defs>
<linearGradient id="paint0_linear_1911_3422" x1="68.1972" y1="16.1826" x2="68.1972" y2="76.0262" gradientUnits="userSpaceOnUse">
<stop offset="0.274038" stop-color="#006ACC" stop-opacity="0"/>
<stop offset="1" stop-color="#006ACC"/>
</linearGradient>
</defs>
</svg>
