<svg width="421" height="104" viewBox="0 0 421 104" fill="none" xmlns="http://www.w3.org/2000/svg">
<path d="M34.368 76.896L20.352 51.456H16.416V76.896H0V9.504H27.552C32.864 9.504 37.376 10.432 41.088 12.288C44.864 14.144 47.68 16.704 49.536 19.968C51.392 23.168 52.32 26.752 52.32 30.72C52.32 35.2 51.04 39.2 48.48 42.72C45.984 46.24 42.272 48.736 37.344 50.208L52.896 76.896H34.368ZM16.416 39.84H26.592C29.6 39.84 31.84 39.104 33.312 37.632C34.848 36.16 35.616 34.08 35.616 31.392C35.616 28.832 34.848 26.816 33.312 25.344C31.84 23.872 29.6 23.136 26.592 23.136H16.416V39.84Z" fill="white"/>
<path d="M70.881 17.76C68.001 17.76 65.633 16.928 63.777 15.264C61.985 13.536 61.089 11.424 61.089 8.92801C61.089 6.368 61.985 4.256 63.777 2.592C65.633 0.864 68.001 0 70.881 0C73.697 0 76.001 0.864 77.793 2.592C79.649 4.256 80.577 6.368 80.577 8.92801C80.577 11.424 79.649 13.536 77.793 15.264C76.001 16.928 73.697 17.76 70.881 17.76ZM79.041 23.328V76.896H62.625V23.328H79.041Z" fill="white"/>
<path d="M112.729 77.664C108.057 77.664 103.898 76.864 100.25 75.264C96.6015 73.664 93.7215 71.488 91.6095 68.736C89.4975 65.92 88.3135 62.784 88.0575 59.328H104.282C104.474 61.184 105.338 62.688 106.874 63.84C108.41 64.992 110.297 65.568 112.537 65.568C114.585 65.568 116.153 65.184 117.242 64.416C118.393 63.584 118.969 62.528 118.969 61.248C118.969 59.712 118.17 58.592 116.57 57.888C114.97 57.12 112.378 56.288 108.794 55.392C104.954 54.496 101.753 53.568 99.1935 52.608C96.6335 51.584 94.4255 50.016 92.5695 47.904C90.7135 45.728 89.7855 42.816 89.7855 39.168C89.7855 36.096 90.6175 33.312 92.2815 30.816C94.0095 28.256 96.5055 26.24 99.7695 24.768C103.098 23.296 107.033 22.56 111.577 22.56C118.298 22.56 123.578 24.224 127.418 27.552C131.322 30.88 133.561 35.296 134.137 40.8H118.969C118.713 38.944 117.882 37.472 116.474 36.384C115.13 35.296 113.338 34.752 111.098 34.752C109.178 34.752 107.706 35.136 106.682 35.904C105.658 36.608 105.146 37.6 105.146 38.88C105.146 40.416 105.946 41.568 107.546 42.336C109.21 43.104 111.77 43.872 115.226 44.64C119.194 45.664 122.426 46.688 124.922 47.712C127.418 48.672 129.594 50.272 131.45 52.512C133.37 54.688 134.362 57.632 134.426 61.344C134.426 64.48 133.53 67.296 131.738 69.792C130.01 72.224 127.482 74.144 124.154 75.552C120.89 76.96 117.082 77.664 112.729 77.664Z" fill="white"/>
<path d="M194.965 49.248C194.965 50.784 194.869 52.384 194.677 54.048H157.525C157.781 57.376 158.837 59.936 160.693 61.728C162.613 63.456 164.949 64.32 167.701 64.32C171.797 64.32 174.645 62.592 176.245 59.136H193.717C192.821 62.656 191.189 65.824 188.821 68.64C186.517 71.456 183.605 73.664 180.085 75.264C176.565 76.864 172.629 77.664 168.277 77.664C163.029 77.664 158.357 76.544 154.261 74.304C150.165 72.064 146.965 68.864 144.661 64.704C142.357 60.544 141.205 55.68 141.205 50.112C141.205 44.544 142.325 39.68 144.565 35.52C146.869 31.36 150.069 28.16 154.165 25.92C158.261 23.68 162.965 22.56 168.277 22.56C173.461 22.56 178.069 23.648 182.101 25.824C186.133 28 189.269 31.104 191.509 35.136C193.813 39.168 194.965 43.872 194.965 49.248ZM178.165 44.928C178.165 42.112 177.205 39.872 175.285 38.208C173.365 36.544 170.965 35.712 168.085 35.712C165.333 35.712 162.997 36.512 161.077 38.112C159.221 39.712 158.069 41.984 157.621 44.928H178.165Z" fill="white"/>
<path d="M261.993 9.504V76.896H245.577V49.152H220.041V76.896H203.625V9.504H220.041V35.904H245.577V9.504H261.993Z" fill="white"/>
<path d="M282.1 17.76C279.22 17.76 276.852 16.928 274.996 15.264C273.204 13.536 272.308 11.424 272.308 8.92801C272.308 6.368 273.204 4.256 274.996 2.592C276.852 0.864 279.22 0 282.1 0C284.916 0 287.22 0.864 289.012 2.592C290.868 4.256 291.796 6.368 291.796 8.92801C291.796 11.424 290.868 13.536 289.012 15.264C287.22 16.928 284.916 17.76 282.1 17.76ZM290.26 23.328V76.896H273.844V23.328H290.26Z" fill="white"/>
<path d="M322.508 22.56C326.284 22.56 329.58 23.328 332.396 24.864C335.276 26.4 337.484 28.416 339.02 30.912V23.328H355.436V76.8C355.436 81.728 354.444 86.176 352.46 90.144C350.54 94.176 347.564 97.376 343.532 99.744C339.564 102.112 334.604 103.296 328.652 103.296C320.716 103.296 314.284 101.408 309.356 97.632C304.428 93.92 301.612 88.864 300.908 82.464H317.132C317.644 84.512 318.86 86.112 320.78 87.264C322.7 88.48 325.068 89.088 327.884 89.088C331.276 89.088 333.964 88.096 335.948 86.112C337.996 84.192 339.02 81.088 339.02 76.8V69.216C337.42 71.712 335.212 73.76 332.396 75.36C329.58 76.896 326.284 77.664 322.508 77.664C318.092 77.664 314.092 76.544 310.508 74.304C306.924 72 304.076 68.768 301.964 64.608C299.916 60.384 298.892 55.52 298.892 50.016C298.892 44.512 299.916 39.68 301.964 35.52C304.076 31.36 306.924 28.16 310.508 25.92C314.092 23.68 318.092 22.56 322.508 22.56ZM339.02 50.112C339.02 46.016 337.868 42.784 335.564 40.416C333.324 38.048 330.572 36.864 327.308 36.864C324.044 36.864 321.26 38.048 318.956 40.416C316.716 42.72 315.596 45.92 315.596 50.016C315.596 54.112 316.716 57.376 318.956 59.808C321.26 62.176 324.044 63.36 327.308 63.36C330.572 63.36 333.324 62.176 335.564 59.808C337.868 57.44 339.02 54.208 339.02 50.112Z" fill="white"/>
<path d="M400.241 22.752C406.385 22.752 411.313 24.8 415.025 28.896C418.737 32.928 420.592 38.496 420.592 45.6V76.896H404.272V47.808C404.272 44.224 403.344 41.44 401.488 39.456C399.632 37.472 397.136 36.48 394 36.48C390.864 36.48 388.369 37.472 386.513 39.456C384.657 41.44 383.729 44.224 383.729 47.808V76.896H367.312V5.856H383.729V30.528C385.393 28.16 387.664 26.272 390.544 24.864C393.424 23.456 396.657 22.752 400.241 22.752Z" fill="white"/>
</svg>
