<svg width="135" height="62" viewBox="0 0 135 62" fill="none" xmlns="http://www.w3.org/2000/svg">
<circle cx="31" cy="31" r="31" fill="#5BAB48"/>
<path d="M28.575 41.3C27.1917 41.3 25.9083 41.075 24.725 40.625C23.5583 40.175 22.5417 39.5417 21.675 38.725C20.825 37.9083 20.1583 36.95 19.675 35.85C19.2083 34.75 18.975 33.55 18.975 32.25C18.975 30.95 19.2083 29.75 19.675 28.65C20.1583 27.55 20.8333 26.5917 21.7 25.775C22.5667 24.9583 23.5833 24.325 24.75 23.875C25.9167 23.425 27.1833 23.2 28.55 23.2C29.9333 23.2 31.2 23.425 32.35 23.875C33.5167 24.325 34.525 24.9583 35.375 25.775C36.2417 26.5917 36.9167 27.55 37.4 28.65C37.8833 29.7333 38.125 30.9333 38.125 32.25C38.125 33.55 37.8833 34.7583 37.4 35.875C36.9167 36.975 36.2417 37.9333 35.375 38.75C34.525 39.55 33.5167 40.175 32.35 40.625C31.2 41.075 29.9417 41.3 28.575 41.3ZM28.55 37.85C29.3333 37.85 30.05 37.7167 30.7 37.45C31.3667 37.1833 31.95 36.8 32.45 36.3C32.95 35.8 33.3333 35.2083 33.6 34.525C33.8833 33.8417 34.025 33.0833 34.025 32.25C34.025 31.4167 33.8833 30.6583 33.6 29.975C33.3333 29.2917 32.95 28.7 32.45 28.2C31.9667 27.7 31.3917 27.3167 30.725 27.05C30.0583 26.7833 29.3333 26.65 28.55 26.65C27.7667 26.65 27.0417 26.7833 26.375 27.05C25.725 27.3167 25.15 27.7 24.65 28.2C24.15 28.7 23.7583 29.2917 23.475 29.975C23.2083 30.6583 23.075 31.4167 23.075 32.25C23.075 33.0667 23.2083 33.825 23.475 34.525C23.7583 35.2083 24.1417 35.8 24.625 36.3C25.125 36.8 25.7083 37.1833 26.375 37.45C27.0417 37.7167 27.7667 37.85 28.55 37.85ZM48.4538 41.192C47.3178 41.192 46.3418 40.952 45.5258 40.472C44.7098 39.992 44.0858 39.264 43.6538 38.288C43.2218 37.296 43.0058 36.048 43.0058 34.544C43.0058 33.024 43.2298 31.776 43.6778 30.8C44.1418 29.824 44.7818 29.096 45.5978 28.616C46.4138 28.136 47.3658 27.896 48.4538 27.896C49.6698 27.896 50.7578 28.168 51.7178 28.712C52.6938 29.256 53.4618 30.024 54.0218 31.016C54.5978 32.008 54.8858 33.184 54.8858 34.544C54.8858 35.888 54.5978 37.056 54.0218 38.048C53.4618 39.04 52.6938 39.816 51.7178 40.376C50.7578 40.92 49.6698 41.192 48.4538 41.192ZM40.8218 41V23.192H44.5658V30.704L44.3258 34.52L44.3978 38.36V41H40.8218ZM47.8058 38.12C48.4298 38.12 48.9818 37.976 49.4618 37.688C49.9578 37.4 50.3498 36.992 50.6378 36.464C50.9418 35.92 51.0938 35.28 51.0938 34.544C51.0938 33.792 50.9418 33.152 50.6378 32.624C50.3498 32.096 49.9578 31.688 49.4618 31.4C48.9818 31.112 48.4298 30.968 47.8058 30.968C47.1818 30.968 46.6218 31.112 46.1258 31.4C45.6298 31.688 45.2378 32.096 44.9498 32.624C44.6618 33.152 44.5178 33.792 44.5178 34.544C44.5178 35.28 44.6618 35.92 44.9498 36.464C45.2378 36.992 45.6298 37.4 46.1258 37.688C46.6218 37.976 47.1818 38.12 47.8058 38.12ZM56.34 41V38.744L63.972 29.72L64.62 30.968H56.508V28.088H67.644V30.344L60.012 39.368L59.34 38.12H67.86V41H56.34ZM76.2392 41.192C74.8632 41.192 73.6392 40.904 72.5672 40.328C71.5112 39.752 70.6712 38.968 70.0472 37.976C69.4392 36.968 69.1352 35.824 69.1352 34.544C69.1352 33.248 69.4392 32.104 70.0472 31.112C70.6712 30.104 71.5112 29.32 72.5672 28.76C73.6392 28.184 74.8632 27.896 76.2392 27.896C77.5992 27.896 78.8152 28.184 79.8872 28.76C80.9592 29.32 81.7992 30.096 82.4072 31.088C83.0152 32.08 83.3192 33.232 83.3192 34.544C83.3192 35.824 83.0152 36.968 82.4072 37.976C81.7992 38.968 80.9592 39.752 79.8872 40.328C78.8152 40.904 77.5992 41.192 76.2392 41.192ZM76.2392 38.12C76.8632 38.12 77.4232 37.976 77.9192 37.688C78.4152 37.4 78.8072 36.992 79.0952 36.464C79.3832 35.92 79.5272 35.28 79.5272 34.544C79.5272 33.792 79.3832 33.152 79.0952 32.624C78.8072 32.096 78.4152 31.688 77.9192 31.4C77.4232 31.112 76.8632 30.968 76.2392 30.968C75.6152 30.968 75.0552 31.112 74.5592 31.4C74.0632 31.688 73.6632 32.096 73.3592 32.624C73.0712 33.152 72.9272 33.792 72.9272 34.544C72.9272 35.28 73.0712 35.92 73.3592 36.464C73.6632 36.992 74.0632 37.4 74.5592 37.688C75.0552 37.976 75.6152 38.12 76.2392 38.12ZM85.8218 41V28.088H89.3978V31.736L88.8938 30.68C89.2778 29.768 89.8938 29.08 90.7418 28.616C91.5898 28.136 92.6218 27.896 93.8378 27.896V31.352C93.6778 31.336 93.5338 31.328 93.4058 31.328C93.2778 31.312 93.1418 31.304 92.9978 31.304C91.9738 31.304 91.1418 31.6 90.5018 32.192C89.8778 32.768 89.5658 33.672 89.5658 34.904V41H85.8218ZM102.378 41.192C100.906 41.192 99.6102 40.904 98.4902 40.328C97.3862 39.752 96.5302 38.968 95.9222 37.976C95.3142 36.968 95.0102 35.824 95.0102 34.544C95.0102 33.248 95.3062 32.104 95.8982 31.112C96.5062 30.104 97.3302 29.32 98.3702 28.76C99.4102 28.184 100.586 27.896 101.898 27.896C103.162 27.896 104.298 28.168 105.306 28.712C106.33 29.24 107.138 30.008 107.73 31.016C108.322 32.008 108.618 33.2 108.618 34.592C108.618 34.736 108.61 34.904 108.594 35.096C108.578 35.272 108.562 35.44 108.546 35.6H98.0582V33.416H106.578L105.138 34.064C105.138 33.392 105.002 32.808 104.73 32.312C104.458 31.816 104.082 31.432 103.602 31.16C103.122 30.872 102.562 30.728 101.922 30.728C101.282 30.728 100.714 30.872 100.218 31.16C99.7382 31.432 99.3622 31.824 99.0902 32.336C98.8182 32.832 98.6822 33.424 98.6822 34.112V34.688C98.6822 35.392 98.8342 36.016 99.1382 36.56C99.4582 37.088 99.8982 37.496 100.458 37.784C101.034 38.056 101.706 38.192 102.474 38.192C103.162 38.192 103.762 38.088 104.274 37.88C104.802 37.672 105.282 37.36 105.714 36.944L107.706 39.104C107.114 39.776 106.37 40.296 105.474 40.664C104.578 41.016 103.546 41.192 102.378 41.192ZM127.647 27.896C128.671 27.896 129.575 28.104 130.359 28.52C131.159 28.92 131.783 29.544 132.231 30.392C132.695 31.224 132.927 32.296 132.927 33.608V41H129.183V34.184C129.183 33.144 128.967 32.376 128.535 31.88C128.103 31.384 127.495 31.136 126.711 31.136C126.167 31.136 125.679 31.264 125.247 31.52C124.815 31.76 124.479 32.128 124.239 32.624C123.999 33.12 123.879 33.752 123.879 34.52V41H120.135V34.184C120.135 33.144 119.919 32.376 119.487 31.88C119.071 31.384 118.471 31.136 117.687 31.136C117.143 31.136 116.655 31.264 116.223 31.52C115.791 31.76 115.455 32.128 115.215 32.624C114.975 33.12 114.855 33.752 114.855 34.52V41H111.111V28.088H114.687V31.616L114.015 30.584C114.463 29.704 115.095 29.04 115.911 28.592C116.743 28.128 117.687 27.896 118.743 27.896C119.927 27.896 120.959 28.2 121.839 28.808C122.735 29.4 123.327 30.312 123.615 31.544L122.295 31.184C122.727 30.176 123.415 29.376 124.359 28.784C125.319 28.192 126.415 27.896 127.647 27.896Z" fill="white"/>
</svg>
