<svg width="113" height="58" viewBox="0 0 113 58" fill="none" xmlns="http://www.w3.org/2000/svg">
<path d="M20.2503 3.00898L13.5825 22.2938H6.69523L0 3.00898H5.76229L10.1526 16.9324L14.5155 3.00898H20.2503Z" fill="#C8C8C8"/>
<path d="M27.3865 5.52559C26.4353 5.52559 25.667 5.27028 25.0816 4.75966C24.5145 4.23081 24.231 3.57431 24.231 2.79015C24.231 1.98775 24.5145 1.32213 25.0816 0.793278C25.667 0.264426 26.4353 0 27.3865 0C28.3195 0 29.0695 0.264426 29.6366 0.793278C30.2219 1.32213 30.5146 1.98775 30.5146 2.79015C30.5146 3.57431 30.2219 4.23081 29.6366 4.75966C29.0695 5.27028 28.3195 5.52559 27.3865 5.52559ZM30.0481 6.94802V22.2938H24.67V6.94802H30.0481Z" fill="#C8C8C8"/>
<path d="M41.2329 9.6561C41.8366 8.78076 42.5683 8.08778 43.4281 7.57717C44.2879 7.06655 45.2117 6.81124 46.1995 6.81124V12.5283H44.6903C43.5196 12.5283 42.6506 12.7563 42.0836 13.2122C41.5165 13.6681 41.2329 14.4614 41.2329 15.592V22.2938H35.8548V6.94802H41.2329V9.6561Z" fill="#C8C8C8"/>
<path d="M59.9539 17.7256V22.2938H57.6216C53.6886 22.2938 51.7221 20.3517 51.7221 16.4673V11.4068H49.8288V6.94802H51.7221V3.22782H57.1277V6.94802H59.9265V11.4068H57.1277V16.5494C57.1277 16.9688 57.2191 17.2697 57.4021 17.4521C57.6033 17.6345 57.9326 17.7256 58.3899 17.7256H59.9539Z" fill="#C8C8C8"/>
<path d="M67.8812 5.52559C66.9299 5.52559 66.1616 5.27028 65.5762 4.75966C65.0092 4.23081 64.7256 3.57431 64.7256 2.79015C64.7256 1.98775 65.0092 1.32213 65.5762 0.793278C66.1616 0.264426 66.9299 0 67.8812 0C68.8141 0 69.5641 0.264426 70.1312 0.793278C70.7166 1.32213 71.0093 1.98775 71.0093 2.79015C71.0093 3.57431 70.7166 4.23081 70.1312 4.75966C69.5641 5.27028 68.8141 5.52559 67.8812 5.52559ZM70.5428 6.94802V22.2938H65.1647V6.94802H70.5428Z" fill="#C8C8C8"/>
<path d="M82.0294 6.75654C83.0721 6.75654 83.9776 6.96625 84.7459 7.38569C85.5325 7.80512 86.1362 8.37044 86.5569 9.08166V6.94802H91.9351V22.1297C91.9351 23.5704 91.6607 24.8651 91.1119 26.014C90.5631 27.1811 89.7033 28.1112 88.5326 28.8042C87.3801 29.4972 85.9167 29.8436 84.1423 29.8436C81.7642 29.8436 79.8617 29.2874 78.4348 28.175C77.008 27.0626 76.1939 25.549 75.9927 23.6342H81.2885C81.3983 24.1266 81.6727 24.5095 82.1117 24.7831C82.5508 25.0566 83.1178 25.1934 83.813 25.1934C85.6423 25.1934 86.5569 24.1722 86.5569 22.1297V20.1602C86.1362 20.8714 85.5325 21.4367 84.7459 21.8562C83.9776 22.2756 83.0721 22.4853 82.0294 22.4853C80.8038 22.4853 79.6879 22.1662 78.6818 21.5279C77.694 20.8896 76.9074 19.9778 76.322 18.7925C75.7549 17.5889 75.4714 16.1938 75.4714 14.6072C75.4714 13.0207 75.7549 11.6347 76.322 10.4494C76.9074 9.26402 77.694 8.35221 78.6818 7.71394C79.6879 7.07567 80.8038 6.75654 82.0294 6.75654ZM86.5569 14.6072C86.5569 13.6225 86.2825 12.8474 85.7337 12.2821C85.2032 11.7168 84.5447 11.4341 83.7581 11.4341C82.9532 11.4341 82.2855 11.7168 81.755 12.2821C81.2245 12.8292 80.9593 13.6043 80.9593 14.6072C80.9593 15.592 81.2245 16.3762 81.755 16.9597C82.2855 17.525 82.9532 17.8077 83.7581 17.8077C84.5447 17.8077 85.2032 17.525 85.7337 16.9597C86.2825 16.3944 86.5569 15.6102 86.5569 14.6072Z" fill="#C8C8C8"/>
<path d="M104.905 22.4853C103.369 22.4853 101.988 22.1662 100.762 21.5279C99.5547 20.8896 98.6034 19.9778 97.9083 18.7925C97.2132 17.6071 96.8656 16.212 96.8656 14.6072C96.8656 13.0207 97.2132 11.6347 97.9083 10.4494C98.6217 9.26402 99.5821 8.35221 100.789 7.71394C102.015 7.07567 103.396 6.75654 104.933 6.75654C106.469 6.75654 107.841 7.07567 109.049 7.71394C110.274 8.35221 111.235 9.26402 111.93 10.4494C112.643 11.6347 113 13.0207 113 14.6072C113 16.1938 112.643 17.5889 111.93 18.7925C111.235 19.9778 110.274 20.8896 109.049 21.5279C107.823 22.1662 106.442 22.4853 104.905 22.4853Z" fill="#C8C8C8"/>
<path d="M9.4987 30.9209C11.5292 30.9209 13.3036 31.3312 14.822 32.1518C16.3586 32.9542 17.5385 34.0849 18.3616 35.5438C19.1848 37.0027 19.5964 38.6713 19.5964 40.5496C19.5964 42.4097 19.1757 44.0692 18.3342 45.5281C17.511 46.987 16.3311 48.1359 14.7945 48.9748C13.2762 49.7954 11.5109 50.2057 9.4987 50.2057H1.84309V30.9209H9.4987Z" fill="white"/>
<path d="M27.4812 33.4375C26.53 33.4375 25.7617 33.1822 25.1763 32.6716C24.6092 32.1427 24.3257 31.4862 24.3257 30.7021C24.3257 29.8997 24.6092 29.234 25.1763 28.7052C25.7617 28.1763 26.53 27.9119 27.4812 27.9119C28.4141 27.9119 29.1641 28.1763 29.7312 28.7052C30.3166 29.234 30.6093 29.8997 30.6093 30.7021C30.6093 31.4862 30.3166 32.1427 29.7312 32.6716C29.1641 33.1822 28.4141 33.4375 27.4812 33.4375ZM30.1428 34.8599V50.2057H24.7647V34.8599H30.1428Z" fill="white"/>
<path d="M41.6294 34.6685C42.6721 34.6685 43.5777 34.8782 44.346 35.2976C45.1326 35.717 45.7362 36.2824 46.157 36.9936V34.8599H51.5351V50.0416C51.5351 51.4823 51.2607 52.7771 50.7119 53.9259C50.1631 55.0931 49.3034 56.0231 48.1326 56.7161C46.9801 57.4091 45.5167 57.7556 43.7423 57.7556C41.3642 57.7556 39.4617 57.1993 38.0349 56.0869C36.608 54.9745 35.794 53.4609 35.5928 51.5461H40.8886C40.9983 52.0385 41.2727 52.4215 41.7118 52.695C42.1508 52.9685 42.7179 53.1053 43.413 53.1053C45.2423 53.1053 46.157 52.0841 46.157 50.0416V48.0721C45.7362 48.7833 45.1326 49.3486 44.346 49.7681C43.5777 50.1875 42.6721 50.3972 41.6294 50.3972C40.4038 50.3972 39.2879 50.0781 38.2818 49.4398C37.294 48.8016 36.5074 47.8897 35.922 46.7044C35.355 45.5008 35.0714 44.1057 35.0714 42.5192C35.0714 40.9326 35.355 39.5466 35.922 38.3613C36.5074 37.1759 37.294 36.2641 38.2818 35.6259C39.2879 34.9876 40.4038 34.6685 41.6294 34.6685ZM46.157 42.5192C46.157 41.5344 45.8826 40.7594 45.3338 40.194C44.8033 39.6287 44.1447 39.346 43.3581 39.346C42.5532 39.346 41.8856 39.6287 41.3551 40.194C40.8246 40.7411 40.5593 41.5162 40.5593 42.5192C40.5593 43.5039 40.8246 44.2881 41.3551 44.8716C41.8856 45.437 42.5532 45.7196 43.3581 45.7196C44.1447 45.7196 44.8033 45.437 45.3338 44.8716C45.8826 44.3063 46.157 43.5222 46.157 42.5192Z" fill="white"/>
<path d="M60.0602 33.4375C59.109 33.4375 58.3407 33.1822 57.7553 32.6716C57.1882 32.1427 56.9047 31.4862 56.9047 30.7021C56.9047 29.8997 57.1882 29.234 57.7553 28.7052C58.3407 28.1763 59.109 27.9119 60.0602 27.9119C60.9931 27.9119 61.7431 28.1763 62.3102 28.7052C62.8956 29.234 63.1883 29.8997 63.1883 30.7021C63.1883 31.4862 62.8956 32.1427 62.3102 32.6716C61.7431 33.1822 60.9931 33.4375 60.0602 33.4375ZM62.7218 34.8599V50.2057H57.3437V34.8599H62.7218Z" fill="white"/>
<path d="M77.6109 45.6376V50.2057H75.2786C71.3456 50.2057 69.3791 48.2636 69.3791 44.3793V39.3187H67.4858V34.8599H69.3791V31.1397H74.7847V34.8599H77.5835V39.3187H74.7847V44.4613C74.7847 44.8808 74.8761 45.1817 75.0591 45.364C75.2603 45.5464 75.5896 45.6376 76.0469 45.6376H77.6109Z" fill="white"/>
<path d="M81.9436 42.5192C81.9436 40.9326 82.2271 39.5466 82.7942 38.3613C83.3796 37.1759 84.1662 36.2641 85.154 35.6259C86.1601 34.9876 87.276 34.6685 88.5016 34.6685C89.5626 34.6685 90.4773 34.8782 91.2456 35.2976C92.0139 35.717 92.6084 36.2824 93.0291 36.9936V34.8599H98.4073V50.2057H93.0291V48.0721C92.6084 48.7833 92.0047 49.3486 91.2181 49.7681C90.4498 50.1875 89.5443 50.3972 88.5016 50.3972C87.276 50.3972 86.1601 50.0781 85.154 49.4398C84.1662 48.8016 83.3796 47.8897 82.7942 46.7044C82.2271 45.5008 81.9436 44.1057 81.9436 42.5192ZM93.0291 42.5192C93.0291 41.5344 92.7547 40.7594 92.206 40.194C91.6755 39.6287 91.0169 39.346 90.2303 39.346C89.4254 39.346 88.7577 39.6287 88.2272 40.194C87.6967 40.7411 87.4315 41.5162 87.4315 42.5192C87.4315 43.5039 87.6967 44.2881 88.2272 44.8716C88.7577 45.437 89.4254 45.7196 90.2303 45.7196C91.0169 45.7196 91.6755 45.437 92.206 44.8716C92.7547 44.3063 93.0291 43.5222 93.0291 42.5192Z" fill="white"/>
<path d="M109.594 29.9635V50.2057H104.216V29.9635H109.594Z" fill="white"/>
</svg>
