<svg width="1000" height="1000" viewBox="0 0 1000 1000" fill="none" xmlns="http://www.w3.org/2000/svg">
<rect width="1000" height="1000" fill="#272727"/>
<path d="M355.402 698.995L222 301L355.402 301L480.4 698.995H355.402Z" fill="#727373"/>
<path d="M355.406 699L477.318 301V699L355.406 699Z" fill="#999A96"/>
<path d="M610.946 301C644.457 301 673.742 309.432 698.8 326.296C724.159 343.16 743.632 366.583 757.218 396.563C770.803 426.544 777.597 460.648 777.597 498.873C777.597 536.724 770.803 570.827 757.218 601.183C743.632 631.538 724.16 655.523 698.8 673.137C673.742 690.376 644.457 698.995 610.946 698.995H477.318V301H610.946ZM570.776 592.672L681.624 501.871L570.776 411.07V592.672Z" fill="#B2B2B2"/>
<path d="M578.443 577.012V425.953L667.766 501.483L578.443 577.012Z" stroke="#7D7D7D" stroke-width="25"/>
</svg>
